<?xml version="1.0" standalone="no"?>
<!DOCTYPE svg PUBLIC "-//W3C//DTD SVG 20010904//EN"
 "http://www.w3.org/TR/2001/REC-SVG-20010904/DTD/svg10.dtd">
<svg version="1.0" xmlns="http://www.w3.org/2000/svg"
 width="117.000000pt" height="225.000000pt" viewBox="0 0 117.000000 225.000000"
 preserveAspectRatio="xMidYMid meet">
<metadata>
Created by potrace 1.16, written by Peter Selinger 2001-2019
</metadata>
<g transform="translate(0.000000,225.000000) scale(0.100000,-0.100000)"
fill="#000000" stroke="none">
<path d="M575 2239 c-38 -3 -99 -15 -135 -26 -36 -11 -84 -26 -107 -33 -24 -7
-50 -21 -59 -32 -10 -10 -22 -18 -29 -18 -14 0 -65 -62 -88 -106 -9 -17 -22
-36 -31 -43 -8 -7 -18 -27 -22 -44 -3 -18 -10 -36 -14 -42 -25 -32 -51 -297
-31 -310 6 -3 11 -31 11 -61 0 -35 7 -67 20 -91 11 -21 20 -45 20 -54 0 -9 8
-27 19 -40 10 -13 21 -34 25 -46 11 -34 110 -101 188 -128 81 -27 101 -41 72
-50 -39 -12 -109 -51 -148 -82 -87 -69 -106 -85 -106 -94 0 -6 -9 -20 -21 -32
-29 -31 -85 -152 -99 -214 -18 -79 -5 -279 21 -311 10 -14 19 -31 19 -40 0
-20 93 -143 130 -173 17 -13 55 -36 83 -51 47 -25 62 -28 156 -28 85 0 119 5
185 26 226 72 369 189 437 356 42 102 46 156 19 271 -22 100 -27 108 -127 231
-43 53 -152 146 -171 146 -4 0 -22 9 -41 21 l-35 21 45 28 c78 49 187 178 223
265 9 22 28 56 41 75 28 42 48 118 46 180 -3 79 -22 204 -36 230 -8 14 -21 40
-29 59 -47 101 -213 227 -316 240 -25 3 -76 3 -115 0z m163 -64 c91 -28 213
-158 234 -250 3 -16 14 -57 23 -90 12 -41 15 -79 12 -121 -4 -39 -2 -65 5 -72
9 -9 7 -16 -5 -30 -9 -10 -17 -23 -17 -29 0 -6 -7 -13 -15 -17 -8 -3 -15 -16
-15 -29 0 -13 -9 -32 -21 -43 -11 -10 -37 -46 -56 -79 -50 -86 -131 -182 -167
-199 -58 -27 -126 -39 -205 -34 -71 4 -85 8 -137 43 -57 38 -174 149 -174 166
0 4 -14 29 -32 55 -50 74 -65 198 -43 361 17 131 137 289 251 331 165 62 253
71 362 37z m-26 -1072 c24 -9 59 -30 79 -47 20 -17 55 -46 78 -64 78 -63 146
-172 177 -286 20 -74 2 -202 -38 -270 -58 -97 -107 -146 -212 -207 -131 -77
-383 -109 -491 -63 -32 14 -106 82 -141 130 -11 16 -33 64 -49 107 -26 73 -27
84 -23 201 4 112 8 131 34 183 15 32 45 80 66 107 21 27 38 52 38 57 0 5 50
41 111 81 115 75 140 82 182 53 12 -8 26 -10 36 -5 35 17 88 38 103 39 4 1 27
-7 50 -16z"/>
<path d="M524 1712 c-18 -12 -44 -56 -44 -73 0 -9 12 -21 26 -27 21 -10 29 -9
49 5 49 36 19 129 -31 95z"/>
<path d="M32 1050 c0 -19 2 -27 5 -17 2 9 2 25 0 35 -3 9 -5 1 -5 -18z"/>
</g>
</svg>
