<?xml version="1.0" standalone="no"?>
<!DOCTYPE svg PUBLIC "-//W3C//DTD SVG 20010904//EN"
 "http://www.w3.org/TR/2001/REC-SVG-20010904/DTD/svg10.dtd">
<svg version="1.0" xmlns="http://www.w3.org/2000/svg"
 width="126.000000pt" height="237.000000pt" viewBox="0 0 126.000000 237.000000"
 preserveAspectRatio="xMidYMid meet">
<metadata>
Created by potrace 1.16, written by Peter Selinger 2001-2019
</metadata>
<g transform="translate(0.000000,237.000000) scale(0.100000,-0.100000)"
fill="#000000" stroke="none">
<path d="M493 2266 c-58 -16 -94 -32 -120 -55 -21 -17 -51 -40 -67 -49 -58
-34 -104 -84 -132 -142 -16 -32 -34 -59 -41 -60 -11 0 -15 -20 -29 -144 -8
-84 14 -257 36 -276 10 -8 30 -35 45 -60 60 -96 212 -219 298 -240 65 -15 72
-25 25 -35 -39 -9 -80 -29 -100 -48 -8 -8 -28 -22 -45 -30 -26 -14 -165 -146
-223 -212 -10 -11 -21 -40 -24 -65 -4 -25 -15 -66 -24 -93 -15 -45 -15 -52 6
-156 12 -60 22 -118 22 -130 0 -11 6 -21 13 -21 7 0 27 -25 45 -54 43 -72 74
-102 180 -174 91 -61 129 -74 215 -72 26 0 53 -2 59 -6 15 -10 130 -5 143 6 5
4 27 11 49 15 21 4 52 21 70 37 17 16 56 50 86 75 30 25 77 76 103 112 27 36
52 68 56 71 16 11 33 72 28 99 -3 15 -2 32 3 37 5 5 12 28 16 50 6 38 4 43
-17 49 -34 11 -32 14 -49 -75 -15 -77 -27 -105 -76 -180 -60 -92 -181 -189
-286 -231 -144 -56 -418 28 -505 155 -86 127 -126 289 -98 398 16 64 57 148
92 192 27 32 126 116 137 116 5 0 19 9 34 20 16 13 29 17 35 11 6 -6 17 -2 31
10 28 26 105 60 131 58 11 -1 40 8 65 19 25 12 52 22 61 22 9 0 27 8 40 18 13
10 56 37 95 60 98 59 145 101 185 168 19 32 47 71 62 87 24 26 29 40 33 101 6
94 4 215 -3 245 -3 14 -21 44 -39 68 -18 23 -36 53 -40 65 -12 41 -76 119
-141 173 -55 45 -74 54 -153 73 -111 27 -181 26 -287 -2z m317 -54 c41 -13 88
-34 103 -46 41 -30 107 -99 107 -112 0 -5 13 -30 28 -55 45 -71 75 -162 67
-201 -5 -18 -9 -58 -9 -89 -1 -43 -11 -76 -43 -142 -48 -99 -106 -166 -181
-211 -29 -17 -70 -41 -90 -53 -64 -39 -100 -44 -203 -29 -52 8 -119 25 -149
39 -81 36 -178 140 -235 251 -44 84 -46 92 -46 175 -1 47 2 104 6 126 13 73
61 159 118 211 114 103 173 137 287 159 80 16 143 10 240 -23z"/>
<path d="M0 2236 c0 -2 11 -6 25 -8 14 -3 25 -1 25 3 0 5 -11 9 -25 9 -14 0
-25 -2 -25 -4z"/>
<path d="M1141 1474 c0 -11 3 -14 6 -6 3 7 2 16 -1 19 -3 4 -6 -2 -5 -13z"/>
<path d="M125 970 c-3 -5 -1 -10 4 -10 6 0 11 5 11 10 0 6 -2 10 -4 10 -3 0
-8 -4 -11 -10z"/>
<path d="M120 145 c0 -8 5 -15 10 -15 6 0 10 7 10 15 0 8 -4 15 -10 15 -5 0
-10 -7 -10 -15z"/>
</g>
</svg>
