<?xml version="1.0" standalone="no"?>
<!DOCTYPE svg PUBLIC "-//W3C//DTD SVG 20010904//EN"
 "http://www.w3.org/TR/2001/REC-SVG-20010904/DTD/svg10.dtd">
<svg version="1.0" xmlns="http://www.w3.org/2000/svg"
 width="126.000000pt" height="228.000000pt" viewBox="0 0 126.000000 228.000000"
 preserveAspectRatio="xMidYMid meet">
<metadata>
Created by potrace 1.16, written by Peter Selinger 2001-2019
</metadata>
<g transform="translate(0.000000,228.000000) scale(0.100000,-0.100000)"
fill="#000000" stroke="none">
<path d="M623 2199 c-6 -6 -39 -13 -74 -16 -48 -4 -87 -17 -154 -50 -100 -49
-148 -90 -206 -175 -22 -32 -43 -58 -48 -58 -5 0 -11 -24 -14 -52 -4 -30 -13
-58 -22 -64 -22 -17 -20 -217 3 -306 15 -55 29 -79 81 -140 37 -43 84 -85 115
-102 28 -16 58 -34 66 -41 33 -26 192 -96 207 -91 15 6 41 1 153 -32 146 -41
225 -101 329 -248 31 -44 51 -131 51 -225 0 -63 -4 -82 -23 -110 -12 -19 -34
-54 -49 -79 -66 -112 -228 -232 -332 -245 -115 -14 -237 24 -379 119 -71 48
-151 192 -171 309 -7 36 -18 43 -49 31 -11 -4 -13 -12 -6 -32 4 -15 15 -56 24
-90 29 -114 130 -239 234 -292 33 -16 62 -34 66 -39 3 -6 38 -20 78 -32 40
-11 76 -25 82 -30 5 -5 19 -9 32 -9 13 0 24 -6 24 -12 1 -13 4 -25 9 -43 1 -5
5 6 9 25 5 28 11 36 31 38 14 2 48 12 76 22 137 50 248 137 305 238 98 175 91
155 91 256 0 88 -2 97 -40 172 -22 44 -48 87 -58 95 -9 8 -24 26 -33 40 -25
41 -114 106 -196 144 -41 19 -80 35 -86 35 -27 0 2 24 60 49 34 16 81 46 104
67 100 94 197 198 203 218 4 11 16 32 26 47 17 23 19 40 16 135 -3 115 -4 116
-75 264 -63 129 -216 258 -309 261 -16 0 -23 3 -16 6 27 11 9 19 -45 20 -39 1
-61 7 -68 17 -8 11 -15 12 -22 5z m167 -115 c87 -40 150 -77 150 -89 0 -15 49
-72 50 -58 0 6 -4 15 -10 18 -16 10 -12 27 4 18 26 -15 98 -126 117 -182 28
-79 25 -174 -7 -272 -18 -54 -35 -87 -53 -100 -14 -11 -30 -29 -36 -38 -38
-68 -229 -193 -315 -207 -19 -3 -45 -9 -57 -14 -48 -19 -258 65 -343 137 -46
40 -100 122 -100 152 0 13 -7 37 -16 54 -9 18 -21 40 -25 49 -5 10 -5 28 0 41
5 13 7 35 4 50 -8 41 25 170 62 245 44 87 105 146 202 194 l78 38 115 -3 c103
-3 122 -6 180 -33z"/>
<path d="M640 1004 c0 -8 5 -12 10 -9 6 4 8 11 5 16 -9 14 -15 11 -15 -7z"/>
</g>
</svg>
