<?xml version="1.0" standalone="no"?>
<!DOCTYPE svg PUBLIC "-//W3C//DTD SVG 20010904//EN"
 "http://www.w3.org/TR/2001/REC-SVG-20010904/DTD/svg10.dtd">
<svg version="1.0" xmlns="http://www.w3.org/2000/svg"
 width="129.000000pt" height="228.000000pt" viewBox="0 0 129.000000 228.000000"
 preserveAspectRatio="xMidYMid meet">
<metadata>
Created by potrace 1.16, written by Peter Selinger 2001-2019
</metadata>
<g transform="translate(0.000000,228.000000) scale(0.100000,-0.100000)"
fill="#000000" stroke="none">
<path d="M555 2178 c-146 -28 -160 -36 -250 -142 -22 -26 -53 -62 -69 -79 -15
-18 -42 -59 -58 -92 -17 -33 -37 -73 -46 -90 -13 -23 -16 -57 -15 -154 2 -122
2 -125 32 -165 17 -23 38 -56 47 -74 28 -56 119 -129 230 -183 57 -29 104 -55
104 -58 0 -3 -9 -11 -19 -16 -68 -35 -134 -80 -153 -106 -13 -17 -35 -43 -50
-57 -45 -45 -97 -124 -115 -177 -30 -85 -14 -282 31 -389 38 -90 155 -205 254
-248 130 -58 210 -63 334 -23 90 30 216 147 295 273 l48 77 3 132 4 133 -46
73 c-52 83 -243 285 -295 311 -39 20 -35 25 39 55 73 30 174 133 225 229 20
40 43 72 50 72 17 0 28 207 15 284 -5 33 -20 75 -33 95 -13 20 -37 57 -53 82
-37 58 -80 95 -172 148 -152 88 -232 110 -337 89z m254 -93 c48 -23 100 -50
118 -59 43 -22 119 -108 151 -171 22 -42 27 -67 30 -153 5 -109 -5 -161 -43
-242 -54 -117 -131 -200 -230 -250 -63 -31 -77 -35 -142 -33 -53 1 -77 -2 -88
-13 -13 -13 -17 -13 -37 0 -13 8 -46 21 -74 29 -49 14 -92 38 -176 94 -21 14
-63 62 -93 107 -46 68 -56 92 -65 151 -6 39 -8 93 -5 120 11 88 63 211 111
262 15 15 50 57 80 93 61 76 107 98 232 110 105 11 132 5 231 -45z m-51 -970
c45 -16 145 -84 159 -109 4 -8 34 -44 67 -80 71 -80 96 -112 96 -121 0 -3 9
-25 20 -49 11 -26 22 -78 26 -133 l7 -91 -44 -83 c-74 -139 -222 -272 -335
-300 -65 -17 -168 -5 -254 28 -149 57 -245 185 -270 358 -16 111 -16 184 -1
212 6 12 11 31 11 42 0 29 69 127 142 201 77 78 182 135 235 127 18 -3 35 -1
38 4 9 13 54 11 103 -6z"/>
</g>
</svg>
