<?xml version="1.0" standalone="no"?>
<!DOCTYPE svg PUBLIC "-//W3C//DTD SVG 20010904//EN"
 "http://www.w3.org/TR/2001/REC-SVG-20010904/DTD/svg10.dtd">
<svg version="1.0" xmlns="http://www.w3.org/2000/svg"
 width="119.000000pt" height="228.000000pt" viewBox="0 0 119.000000 228.000000"
 preserveAspectRatio="xMidYMid meet">
<metadata>
Created by potrace 1.16, written by Peter Selinger 2001-2019
</metadata>
<g transform="translate(0.000000,228.000000) scale(0.100000,-0.100000)"
fill="#000000" stroke="none">
<path d="M729 2215 c-3 -2 -30 -7 -60 -9 -91 -8 -171 -27 -226 -52 -28 -13
-57 -24 -64 -24 -34 0 -154 -136 -208 -235 -84 -154 -90 -368 -13 -479 48 -69
173 -196 201 -203 42 -10 122 -53 116 -62 -3 -5 -30 -23 -60 -40 -66 -38 -78
-47 -164 -131 -77 -77 -106 -131 -126 -233 -8 -41 -15 -79 -16 -83 -1 -5 0
-20 3 -34 4 -14 12 -52 18 -85 32 -162 82 -252 183 -337 199 -165 471 -158
682 18 73 61 82 73 124 168 40 91 41 98 43 208 2 161 -28 242 -138 361 -34 36
-54 47 -54 27 0 -5 16 -25 35 -44 19 -20 35 -42 35 -50 0 -7 11 -21 25 -30 14
-9 28 -29 31 -44 4 -15 13 -34 21 -44 32 -36 5 -320 -36 -377 -12 -16 -21 -37
-21 -48 0 -22 -85 -103 -155 -148 -69 -44 -133 -62 -251 -70 -98 -7 -103 -6
-178 25 -42 18 -102 53 -133 78 -60 49 -128 144 -138 195 -4 18 -16 60 -27 94
-14 46 -18 80 -15 130 10 143 34 197 143 312 63 68 91 88 158 120 45 22 99 41
120 44 63 8 143 -9 217 -48 37 -19 74 -35 82 -35 8 0 17 -7 21 -15 6 -16 36
-21 36 -6 0 11 -114 84 -166 106 l-39 16 35 13 c19 7 49 19 65 28 17 9 44 23
60 31 36 17 145 125 182 182 15 22 36 50 47 63 35 40 73 222 61 292 -11 59
-37 134 -55 155 -9 11 -28 40 -42 65 -61 106 -146 174 -278 221 -56 19 -73 23
-81 14z m94 -69 c99 -37 161 -80 199 -139 103 -155 108 -169 108 -301 0 -91
-4 -109 -33 -183 -18 -46 -42 -93 -53 -105 -10 -13 -28 -37 -38 -53 -29 -45
-125 -137 -136 -130 -5 3 -24 -1 -42 -9 -65 -28 -139 -39 -242 -33 -152 8
-201 30 -303 134 -105 106 -109 112 -128 206 -33 162 16 311 157 469 43 49 72
71 106 84 26 10 56 24 68 31 12 7 50 15 85 17 35 2 80 11 99 19 48 22 79 21
153 -7z"/>
<path d="M130 1163 c0 -5 5 -15 10 -23 8 -12 10 -11 10 8 0 12 -4 22 -10 22
-5 0 -10 -3 -10 -7z"/>
<path d="M605 713 c-10 -10 -15 -29 -13 -52 3 -32 6 -36 35 -39 43 -4 60 25
39 67 -19 36 -41 45 -61 24z"/>
</g>
</svg>
