<?xml version="1.0" standalone="no"?>
<!DOCTYPE svg PUBLIC "-//W3C//DTD SVG 20010904//EN"
 "http://www.w3.org/TR/2001/REC-SVG-20010904/DTD/svg10.dtd">
<svg version="1.0" xmlns="http://www.w3.org/2000/svg"
 width="120.000000pt" height="240.000000pt" viewBox="0 0 120.000000 240.000000"
 preserveAspectRatio="xMidYMid meet">
<metadata>
Created by potrace 1.16, written by Peter Selinger 2001-2019
</metadata>
<g transform="translate(0.000000,240.000000) scale(0.100000,-0.100000)"
fill="#000000" stroke="none">
<path d="M556 2301 c-3 -5 -18 -12 -33 -16 -15 -3 -45 -14 -68 -24 -22 -10
-70 -30 -107 -46 -100 -41 -149 -106 -247 -328 -11 -26 -21 -53 -21 -60 0 -6
-7 -25 -15 -41 -14 -27 -14 -38 1 -115 9 -47 25 -97 34 -111 40 -58 80 -124
80 -131 0 -14 140 -120 184 -140 24 -10 46 -25 49 -33 6 -14 59 -26 113 -26
27 0 32 -4 35 -27 6 -43 -11 -425 -19 -453 -4 -14 -5 -56 -2 -95 3 -38 2 -160
-2 -270 -5 -174 -4 -205 10 -237 18 -40 32 -49 32 -20 0 10 5 23 11 29 7 7 13
68 15 160 3 81 7 200 10 263 2 63 4 162 4 220 -1 58 1 176 5 262 l8 158 36 0
c60 1 130 25 156 52 13 14 39 31 57 37 22 8 51 35 88 83 83 109 94 125 140
228 l42 95 -11 85 c-17 121 -17 118 -43 191 -27 74 -89 155 -165 217 -28 23
-54 42 -57 42 -3 0 -27 13 -55 29 -45 27 -57 29 -154 30 -58 1 -108 -3 -111
-8z m243 -85 c9 -7 30 -21 46 -29 45 -23 120 -97 140 -137 10 -19 22 -38 28
-41 5 -4 20 -47 33 -95 20 -80 22 -98 12 -174 -11 -98 -55 -193 -117 -257 -21
-21 -54 -58 -73 -83 -55 -68 -160 -103 -297 -100 -88 2 -162 27 -242 81 -72
48 -106 88 -149 174 -34 67 -35 72 -35 186 l0 116 45 89 c61 120 111 181 169
206 25 11 73 33 107 49 63 30 103 36 120 19 7 -7 17 -5 30 5 24 20 159 13 183
-9z"/>
<path d="M567 1812 c-31 -32 -32 -39 -13 -61 8 -9 22 -30 30 -46 14 -27 16
-27 16 -8 0 13 11 30 25 39 33 21 40 50 21 79 -21 33 -46 31 -79 -3z"/>
<path d="M865 720 c-3 -5 -2 -10 4 -10 5 0 13 5 16 10 3 6 2 10 -4 10 -5 0
-13 -4 -16 -10z"/>
<path d="M808 193 c7 -3 16 -2 19 1 4 3 -2 6 -13 5 -11 0 -14 -3 -6 -6z"/>
</g>
</svg>
