<?xml version="1.0" standalone="no"?>
<!DOCTYPE svg PUBLIC "-//W3C//DTD SVG 20010904//EN"
 "http://www.w3.org/TR/2001/REC-SVG-20010904/DTD/svg10.dtd">
<svg version="1.0" xmlns="http://www.w3.org/2000/svg"
 width="132.000000pt" height="240.000000pt" viewBox="0 0 132.000000 240.000000"
 preserveAspectRatio="xMidYMid meet">
<metadata>
Created by potrace 1.16, written by Peter Selinger 2001-2019
</metadata>
<g transform="translate(0.000000,240.000000) scale(0.100000,-0.100000)"
fill="#000000" stroke="none">
<path d="M645 2330 c3 -5 8 -10 11 -10 2 0 4 5 4 10 0 6 -5 10 -11 10 -5 0 -7
-4 -4 -10z"/>
<path d="M555 2300 c-12 -4 -27 -15 -34 -24 -7 -8 -29 -19 -50 -22 -50 -10
-97 -42 -156 -106 -98 -108 -145 -193 -145 -262 0 -18 -8 -57 -18 -87 -14 -43
-16 -66 -10 -114 5 -33 10 -73 12 -90 2 -16 22 -69 44 -116 30 -65 57 -103
110 -157 41 -43 77 -72 90 -72 11 0 44 -9 74 -20 29 -10 71 -24 93 -29 l40
-10 -2 -393 c0 -216 -3 -424 -5 -463 -3 -38 -5 -87 -6 -109 l-2 -38 -52 6
c-29 3 -96 9 -148 12 -52 3 -113 9 -135 13 -62 11 -157 3 -177 -16 -24 -22
-23 -32 7 -43 18 -7 25 -17 25 -35 0 -34 25 -32 28 2 1 14 4 29 7 32 3 2 61
-1 128 -8 67 -7 163 -14 213 -16 51 -1 108 -8 128 -15 24 -8 41 -8 49 -2 11 9
100 16 350 28 90 4 108 2 113 -11 9 -23 64 -20 64 4 0 10 7 24 15 31 18 15 20
40 3 41 -40 2 -260 -4 -363 -10 -66 -4 -127 -6 -136 -3 -13 3 -17 18 -18 75
-1 40 -4 130 -7 202 -6 165 -6 183 6 205 13 24 14 51 1 32 -13 -22 -21 77 -21
284 l0 191 48 7 c101 15 244 118 320 230 27 40 70 116 95 170 45 95 47 102 47
190 -1 60 -6 100 -15 116 -8 14 -14 40 -15 57 0 46 -66 167 -120 223 -36 37
-54 48 -89 53 -24 3 -53 15 -65 26 -34 32 -267 62 -321 41z m200 -59 c119 -23
128 -26 181 -62 74 -50 138 -160 164 -281 25 -113 -20 -306 -101 -437 -43 -69
-77 -105 -144 -151 -82 -56 -103 -61 -227 -57 -103 3 -121 7 -179 34 -59 28
-79 46 -142 128 -72 93 -107 200 -107 324 0 70 6 101 31 171 16 47 37 94 45
105 8 11 25 36 38 55 52 76 146 142 246 171 73 22 79 22 195 0z"/>
<path d="M638 1779 c-21 -12 -24 -63 -5 -102 12 -27 27 -36 27 -16 0 6 11 20
25 31 18 14 24 27 22 47 -6 50 -29 64 -69 40z"/>
<path d="M880 1770 c0 -5 5 -10 10 -10 6 0 10 5 10 10 0 6 -4 10 -10 10 -5 0
-10 -4 -10 -10z"/>
<path d="M133 1525 c-3 -9 -3 -18 -1 -21 3 -3 8 4 11 16 6 23 -1 27 -10 5z"/>
</g>
</svg>
