<?xml version="1.0" standalone="no"?>
<!DOCTYPE svg PUBLIC "-//W3C//DTD SVG 20010904//EN"
 "http://www.w3.org/TR/2001/REC-SVG-20010904/DTD/svg10.dtd">
<svg version="1.0" xmlns="http://www.w3.org/2000/svg"
 width="132.000000pt" height="234.000000pt" viewBox="0 0 132.000000 234.000000"
 preserveAspectRatio="xMidYMid meet">
<metadata>
Created by potrace 1.16, written by Peter Selinger 2001-2019
</metadata>
<g transform="translate(0.000000,234.000000) scale(0.100000,-0.100000)"
fill="#000000" stroke="none">
<path d="M489 2286 c-31 -7 -70 -21 -86 -32 -77 -50 -133 -94 -190 -152 -49
-50 -63 -71 -68 -105 -4 -23 -11 -50 -16 -59 -36 -67 -41 -284 -10 -347 11
-21 24 -74 29 -118 5 -43 10 -68 11 -55 0 12 5 22 9 22 5 0 31 -28 59 -62 67
-84 168 -145 261 -159 136 -20 133 -19 126 -43 -3 -11 -14 -30 -23 -41 -36
-43 -121 -200 -121 -225 0 -6 -24 -59 -54 -118 -29 -59 -57 -118 -61 -130 -8
-27 -172 -354 -197 -392 -29 -46 -43 -99 -30 -112 7 -7 12 -31 12 -54 0 -24 5
-46 10 -49 6 -4 10 13 10 45 0 29 8 67 18 88 10 20 60 118 110 217 95 188 144
293 157 335 4 14 19 42 32 64 14 21 31 60 39 86 8 27 36 85 62 130 26 45 51
90 57 101 13 26 25 24 25 -4 0 -30 10 -40 26 -26 14 12 44 -24 44 -53 0 -9 4
-20 10 -23 17 -10 76 -106 132 -215 143 -275 204 -392 245 -470 29 -54 50
-110 58 -155 7 -38 13 -59 14 -45 1 14 10 31 21 38 24 15 25 37 5 76 -8 15
-15 41 -15 57 0 17 -5 29 -13 29 -28 0 -68 59 -96 141 -16 46 -45 114 -65 151
-20 37 -36 72 -36 78 0 6 -11 26 -25 44 -14 18 -25 37 -25 43 0 5 -13 29 -28
54 -44 68 -169 291 -176 315 -6 19 3 25 68 54 41 17 77 38 80 46 3 8 13 14 22
14 22 0 204 188 229 236 10 22 26 50 35 64 9 14 18 54 21 90 7 108 1 271 -12
286 -6 7 -8 18 -4 24 3 5 0 10 -7 10 -7 0 -24 21 -38 48 -31 58 -88 122 -149
165 -117 85 -339 126 -492 93z m169 -47 c2 -5 15 -6 28 -3 34 9 150 -15 204
-42 57 -28 142 -107 171 -159 12 -22 34 -60 48 -85 25 -43 26 -52 25 -190 0
-100 -4 -153 -14 -170 -29 -56 -101 -160 -115 -168 -9 -4 -37 -28 -63 -53 -53
-51 -112 -90 -168 -114 -42 -17 -139 -13 -249 11 -114 25 -160 49 -237 122
-46 43 -111 168 -122 232 -25 146 -10 273 45 396 33 74 183 188 291 220 72 22
149 23 156 3z"/>
<path d="M638 1768 c-37 -13 -38 -55 -3 -88 15 -15 25 -34 25 -52 0 -17 4 -27
10 -23 6 3 10 17 10 30 0 13 5 27 10 30 6 3 10 25 10 48 0 51 -21 69 -62 55z"/>
</g>
</svg>
