<?xml version="1.0" standalone="no"?>
<!DOCTYPE svg PUBLIC "-//W3C//DTD SVG 20010904//EN"
 "http://www.w3.org/TR/2001/REC-SVG-20010904/DTD/svg10.dtd">
<svg version="1.0" xmlns="http://www.w3.org/2000/svg"
 width="141.000000pt" height="228.000000pt" viewBox="0 0 141.000000 228.000000"
 preserveAspectRatio="xMidYMid meet">
<metadata>
Created by potrace 1.16, written by Peter Selinger 2001-2019
</metadata>
<g transform="translate(0.000000,228.000000) scale(0.100000,-0.100000)"
fill="#000000" stroke="none">
<path d="M835 2250 c3 -5 10 -10 16 -10 5 0 9 5 9 10 0 6 -7 10 -16 10 -8 0
-12 -4 -9 -10z"/>
<path d="M629 2226 c-3 -4 -32 -13 -63 -21 -33 -9 -76 -30 -99 -48 -23 -19
-58 -43 -78 -55 -39 -24 -145 -131 -175 -177 -10 -16 -24 -34 -31 -38 -7 -4
-13 -17 -13 -29 0 -26 -21 -99 -32 -114 -5 -6 -11 -47 -14 -90 -5 -67 -2 -94
21 -179 16 -55 28 -108 27 -117 -1 -15 2 -15 18 -5 17 10 24 7 52 -19 60 -57
155 -111 220 -128 54 -13 179 -36 200 -36 6 0 -27 -67 -97 -195 -17 -33 -45
-91 -61 -130 -15 -38 -38 -87 -51 -107 -13 -21 -23 -41 -23 -45 0 -4 -29 -66
-64 -137 -35 -72 -83 -170 -105 -218 -23 -49 -52 -95 -65 -103 -31 -21 -53
-72 -37 -88 6 -6 11 -19 11 -29 0 -10 5 -18 10 -18 6 0 10 9 10 20 0 15 13 27
48 42 39 17 78 22 242 29 260 11 236 11 400 4 368 -14 371 -14 376 -1 2 6 -5
38 -16 70 -11 33 -20 72 -20 88 0 24 -3 28 -18 24 -14 -5 -27 5 -50 38 -18 24
-32 49 -32 55 0 6 -14 26 -31 46 -17 19 -39 50 -49 68 -40 75 -69 126 -92 163
-21 33 -90 161 -152 279 -41 81 -69 145 -65 150 3 3 35 8 70 11 90 9 99 15
247 142 24 20 64 67 89 105 27 40 52 67 62 67 15 0 18 10 19 68 2 103 12 162
28 162 8 0 14 4 14 10 0 5 -6 7 -14 4 -10 -4 -16 14 -25 71 -7 41 -12 90 -11
108 3 47 1 52 -11 40 -9 -9 -21 3 -49 45 -62 97 -174 173 -287 196 -81 17
-226 30 -234 22z m201 -74 c79 -12 92 -17 151 -54 126 -80 190 -201 189 -358
-1 -200 -57 -301 -238 -437 -46 -35 -65 -42 -154 -58 -198 -35 -334 -9 -453
86 -104 82 -127 129 -133 267 -3 77 0 114 11 145 9 23 18 56 22 73 7 38 79
139 126 177 19 15 56 46 82 68 120 98 214 120 397 91z m-50 -1198 c36 -63 83
-148 105 -189 66 -122 134 -235 194 -323 70 -103 110 -173 111 -191 0 -11 -38
-13 -232 -7 -128 4 -246 8 -263 8 -16 1 -117 -2 -222 -5 -106 -3 -193 -4 -193
-2 0 2 18 41 40 86 22 46 40 88 40 94 0 6 33 72 74 147 40 75 76 144 79 154
12 40 66 161 94 214 66 120 67 121 103 129 3 0 34 -51 70 -115z"/>
<path d="M660 1753 c-26 -9 -50 -35 -50 -53 0 -18 35 -53 63 -64 25 -8 56 30
57 70 0 46 -25 63 -70 47z"/>
<path d="M10 1216 c0 -2 9 -6 20 -9 11 -3 20 -1 20 4 0 5 -9 9 -20 9 -11 0
-20 -2 -20 -4z"/>
<path d="M153 1213 c9 -2 23 -2 30 0 6 3 -1 5 -18 5 -16 0 -22 -2 -12 -5z"/>
<path d="M182 680 c0 -14 2 -19 5 -12 2 6 2 18 0 25 -3 6 -5 1 -5 -13z"/>
</g>
</svg>
