<?xml version="1.0" standalone="no"?>
<!DOCTYPE svg PUBLIC "-//W3C//DTD SVG 20010904//EN"
 "http://www.w3.org/TR/2001/REC-SVG-20010904/DTD/svg10.dtd">
<svg version="1.0" xmlns="http://www.w3.org/2000/svg"
 width="129.000000pt" height="216.000000pt" viewBox="0 0 129.000000 216.000000"
 preserveAspectRatio="xMidYMid meet">
<metadata>
Created by potrace 1.16, written by Peter Selinger 2001-2019
</metadata>
<g transform="translate(0.000000,216.000000) scale(0.100000,-0.100000)"
fill="#000000" stroke="none">
<path d="M550 2123 c-31 -8 -82 -34 -118 -59 -34 -24 -66 -44 -70 -44 -18 -1
-84 -60 -116 -102 -36 -48 -59 -90 -113 -203 -25 -54 -28 -70 -28 -166 0 -85
3 -111 16 -125 9 -11 20 -34 24 -52 8 -40 66 -117 127 -171 44 -39 104 -71
161 -85 15 -3 27 -10 27 -14 0 -6 -28 -21 -70 -35 -37 -12 -101 -70 -135 -121
-20 -31 -40 -56 -45 -56 -4 0 -14 -12 -22 -27 -7 -16 -25 -48 -38 -73 l-24
-45 -7 35 -7 35 -1 -40 c-1 -22 -4 -84 -7 -138 -7 -111 1 -187 20 -187 7 0 23
-23 36 -51 17 -36 55 -81 126 -149 86 -81 118 -105 200 -145 l98 -48 85 13
c47 7 93 16 101 21 8 4 38 18 65 30 100 45 209 147 273 256 17 28 39 86 51
129 11 44 23 89 27 102 5 18 2 22 -14 22 -26 0 -35 -17 -52 -95 -48 -225 -272
-418 -482 -416 -56 0 -76 7 -188 66 -57 31 -209 185 -237 240 -14 27 -32 57
-39 66 -10 11 -15 42 -15 101 0 110 26 183 102 278 20 25 48 64 63 87 27 40
38 48 149 97 25 11 58 17 96 15 31 -1 62 0 67 3 5 3 25 9 44 13 19 4 65 20
102 36 36 16 75 29 86 29 29 0 191 166 215 220 11 25 28 54 38 65 10 11 23 39
28 63 6 23 16 61 22 85 13 50 4 160 -17 201 -7 16 -14 40 -14 53 0 48 -185
243 -230 243 -8 0 -27 6 -41 14 -68 35 -234 50 -319 29z m295 -63 c28 -12 73
-44 102 -69 50 -44 123 -132 123 -147 0 -4 10 -28 23 -53 19 -39 22 -62 22
-151 0 -104 -1 -107 -42 -192 -34 -68 -61 -105 -130 -176 -77 -79 -96 -93
-153 -112 -103 -36 -252 -33 -372 6 -87 28 -188 140 -234 259 -26 67 -26 212
0 270 98 219 125 249 323 366 41 24 51 26 166 24 105 -1 129 -4 172 -25z"/>
<path d="M583 1633 c-31 -21 -29 -35 8 -56 30 -17 33 -17 50 -1 23 21 25 60 3
68 -23 9 -37 7 -61 -11z"/>
<path d="M1132 1100 c0 -19 2 -27 5 -17 2 9 2 25 0 35 -3 9 -5 1 -5 -18z"/>
<path d="M113 365 c0 -27 2 -38 4 -22 2 15 2 37 0 50 -2 12 -4 0 -4 -28z"/>
<path d="M111 204 c0 -11 3 -14 6 -6 3 7 2 16 -1 19 -3 4 -6 -2 -5 -13z"/>
<path d="M1141 54 c0 -11 3 -14 6 -6 3 7 2 16 -1 19 -3 4 -6 -2 -5 -13z"/>
</g>
</svg>
