<?xml version="1.0" standalone="no"?>
<!DOCTYPE svg PUBLIC "-//W3C//DTD SVG 20010904//EN"
 "http://www.w3.org/TR/2001/REC-SVG-20010904/DTD/svg10.dtd">
<svg version="1.0" xmlns="http://www.w3.org/2000/svg"
 width="123.000000pt" height="231.000000pt" viewBox="0 0 123.000000 231.000000"
 preserveAspectRatio="xMidYMid meet">
<metadata>
Created by potrace 1.16, written by Peter Selinger 2001-2019
</metadata>
<g transform="translate(0.000000,231.000000) scale(0.100000,-0.100000)"
fill="#000000" stroke="none">
<path d="M503 2245 c-79 -15 -100 -24 -157 -69 -133 -107 -175 -163 -233 -313
-24 -61 -26 -82 -27 -208 -1 -132 0 -143 22 -170 13 -17 38 -52 56 -80 20 -31
50 -59 78 -75 24 -14 67 -45 94 -69 54 -48 112 -77 189 -93 27 -5 54 -14 59
-19 6 -5 21 -9 35 -9 15 0 69 -18 122 -41 149 -64 211 -127 300 -307 29 -58
31 -70 31 -170 1 -124 -12 -181 -53 -239 -16 -23 -29 -44 -29 -48 0 -17 -72
-80 -130 -113 l-65 -37 -123 2 c-115 1 -128 3 -185 31 -34 16 -87 41 -117 54
-80 36 -123 78 -154 150 -15 35 -34 77 -42 95 -8 17 -14 37 -14 45 0 24 -54
128 -65 125 -18 -7 -7 -101 24 -193 52 -156 87 -202 188 -253 23 -11 62 -35
88 -52 47 -32 128 -59 177 -59 15 0 31 -7 36 -16 6 -11 11 -13 16 -5 4 6 36
11 76 11 38 0 71 4 74 9 3 5 21 12 40 15 40 8 74 34 165 126 66 67 121 164
121 215 0 15 5 36 12 48 7 13 11 63 10 125 l-1 103 -45 76 c-25 41 -46 80 -46
85 0 6 -33 44 -72 85 -61 63 -88 82 -164 118 -50 23 -94 47 -98 53 -4 7 14 17
48 27 31 9 58 20 61 25 3 4 26 19 53 31 76 37 155 122 206 222 39 75 48 104
62 200 14 95 14 123 4 182 -7 39 -23 86 -36 106 -13 19 -24 38 -24 43 0 22
-73 92 -139 134 -87 55 -249 113 -313 111 -24 -1 -75 -7 -115 -14z m242 -71
c183 -67 248 -120 299 -241 45 -107 49 -144 30 -267 -13 -89 -24 -124 -52
-176 -49 -89 -129 -163 -222 -207 -41 -19 -89 -41 -106 -49 -38 -18 -148 -21
-197 -5 -134 45 -271 151 -320 250 -42 83 -50 150 -33 266 31 201 124 340 281
420 102 51 197 54 320 9z"/>
<path d="M615 1772 c-29 -21 -47 -94 -25 -107 13 -8 45 14 63 45 15 24 15 29
1 48 -16 23 -23 26 -39 14z"/>
</g>
</svg>
