<?xml version="1.0" standalone="no"?>
<!DOCTYPE svg PUBLIC "-//W3C//DTD SVG 20010904//EN"
 "http://www.w3.org/TR/2001/REC-SVG-20010904/DTD/svg10.dtd">
<svg version="1.0" xmlns="http://www.w3.org/2000/svg"
 width="129.000000pt" height="228.000000pt" viewBox="0 0 129.000000 228.000000"
 preserveAspectRatio="xMidYMid meet">
<metadata>
Created by potrace 1.16, written by Peter Selinger 2001-2019
</metadata>
<g transform="translate(0.000000,228.000000) scale(0.100000,-0.100000)"
fill="#000000" stroke="none">
<path d="M123 2156 c-17 -8 -23 -20 -25 -56 -2 -37 2 -51 25 -78 15 -18 27
-39 27 -47 0 -9 16 -38 35 -65 30 -43 57 -94 111 -217 8 -17 14 -38 14 -46 0
-9 4 -19 10 -22 9 -5 170 -327 226 -452 l24 -53 -70 -145 c-39 -80 -70 -148
-70 -151 0 -3 -11 -20 -25 -38 -14 -18 -25 -38 -25 -45 0 -19 -31 -75 -48 -85
-11 -6 -12 -10 -2 -16 10 -6 2 -31 -32 -102 -25 -51 -62 -130 -83 -175 -36
-78 -60 -109 -48 -63 3 11 3 20 0 20 -9 0 -27 -72 -33 -134 -4 -47 -2 -56 11
-56 23 0 56 20 50 30 -3 4 8 34 24 67 16 32 43 89 60 126 18 38 58 121 90 186
32 64 61 130 65 146 7 29 36 93 112 251 19 40 43 79 53 88 17 16 19 15 31 -16
20 -56 33 -78 40 -73 4 2 13 -8 19 -23 7 -15 41 -76 75 -137 35 -60 79 -139
98 -175 63 -116 148 -263 198 -344 27 -43 48 -82 45 -86 -5 -8 40 -50 54 -50
5 0 12 12 15 26 8 29 -3 49 -107 204 -38 56 -77 121 -88 144 -37 76 -117 224
-190 348 -16 27 -36 65 -44 85 -8 19 -31 61 -50 93 -51 83 -49 131 9 241 106
201 124 237 141 287 9 29 28 66 41 81 13 16 24 34 24 41 0 7 15 37 34 68 18
32 46 79 62 106 16 27 39 65 51 85 11 20 32 55 44 79 29 55 39 61 39 25 l1
-28 15 28 c8 15 12 32 9 37 -3 5 -1 19 5 30 6 11 8 30 5 42 -6 23 -8 23 -128
20 -273 -8 -341 -8 -545 1 -156 7 -230 6 -274 -3 -34 -6 -64 -8 -71 -3 -7 5
-21 5 -34 -1z m332 -51 c77 -2 151 -7 165 -12 14 -5 66 -7 115 -5 50 1 106 2
125 2 19 0 74 0 123 0 48 1 87 -2 87 -6 0 -4 -29 -57 -64 -118 -36 -61 -68
-120 -72 -131 -9 -25 -81 -143 -104 -170 -9 -11 -25 -47 -35 -80 -10 -33 -29
-77 -42 -98 -13 -20 -35 -62 -48 -92 -23 -50 -45 -72 -45 -44 0 5 -4 7 -10 4
-6 -3 -10 -22 -10 -41 0 -39 -24 -104 -38 -104 -14 0 -237 458 -282 580 -8 19
-27 54 -43 78 -39 58 -97 177 -97 199 0 30 49 54 95 47 22 -3 103 -7 180 -9z"/>
</g>
</svg>
