<?xml version="1.0" standalone="no"?>
<!DOCTYPE svg PUBLIC "-//W3C//DTD SVG 20010904//EN"
 "http://www.w3.org/TR/2001/REC-SVG-20010904/DTD/svg10.dtd">
<svg version="1.0" xmlns="http://www.w3.org/2000/svg"
 width="105.000000pt" height="204.000000pt" viewBox="0 0 105.000000 204.000000"
 preserveAspectRatio="xMidYMid meet">
<metadata>
Created by potrace 1.16, written by Peter Selinger 2001-2019
</metadata>
<g transform="translate(0.000000,204.000000) scale(0.100000,-0.100000)"
fill="#000000" stroke="none">
<path d="M466 1953 c-22 -21 -25 -29 -13 -31 12 -3 16 -35 23 -190 6 -154 11
-680 7 -744 -1 -10 -1 -35 -1 -55 1 -21 -2 -123 -5 -228 -9 -272 -8 -474 3
-584 5 -53 10 -102 10 -109 0 -8 7 -12 15 -10 16 3 16 55 28 1696 1 149 -1
272 -5 272 -3 0 -13 2 -20 5 -8 3 -27 -7 -42 -22z"/>
<path d="M610 10 c19 -13 30 -13 30 0 0 6 -10 10 -22 10 -19 0 -20 -2 -8 -10z"/>
</g>
</svg>
