<?xml version="1.0" standalone="no"?>
<!DOCTYPE svg PUBLIC "-//W3C//DTD SVG 20010904//EN"
 "http://www.w3.org/TR/2001/REC-SVG-20010904/DTD/svg10.dtd">
<svg version="1.0" xmlns="http://www.w3.org/2000/svg"
 width="114.000000pt" height="219.000000pt" viewBox="0 0 114.000000 219.000000"
 preserveAspectRatio="xMidYMid meet">
<metadata>
Created by potrace 1.16, written by Peter Selinger 2001-2019
</metadata>
<g transform="translate(0.000000,219.000000) scale(0.100000,-0.100000)"
fill="#000000" stroke="none">
<path d="M529 2106 c-2 -2 -4 -430 -4 -949 l0 -945 -54 -7 c-30 -4 -125 -4
-212 0 -138 7 -162 5 -183 -9 -14 -9 -30 -24 -35 -33 -8 -17 5 -18 235 -16
134 1 244 -2 244 -7 0 -12 300 -2 333 11 33 14 147 6 175 -12 11 -7 27 -9 36
-6 21 8 21 54 -1 66 -27 13 -160 24 -167 13 -3 -5 -34 -10 -68 -10 -35 0 -93
-4 -130 -7 -37 -4 -80 -4 -97 0 l-31 7 0 209 c0 160 3 209 13 209 9 0 9 2 0 8
-10 6 -12 117 -8 497 7 812 7 963 1 974 -7 11 -38 15 -47 7z"/>
</g>
</svg>
