<?xml version="1.0" standalone="no"?>
<!DOCTYPE svg PUBLIC "-//W3C//DTD SVG 20010904//EN"
 "http://www.w3.org/TR/2001/REC-SVG-20010904/DTD/svg10.dtd">
<svg version="1.0" xmlns="http://www.w3.org/2000/svg"
 width="126.000000pt" height="225.000000pt" viewBox="0 0 126.000000 225.000000"
 preserveAspectRatio="xMidYMid meet">
<metadata>
Created by potrace 1.16, written by Peter Selinger 2001-2019
</metadata>
<g transform="translate(0.000000,225.000000) scale(0.100000,-0.100000)"
fill="#000000" stroke="none">
<path d="M1113 2144 c-24 -17 -15 -17 -398 -10 -514 8 -623 9 -634 2 -8 -5 -4
-20 14 -50 14 -24 25 -51 25 -62 0 -10 52 -120 115 -244 63 -124 122 -241 131
-260 9 -19 26 -46 39 -60 20 -21 47 -66 86 -140 4 -8 26 -57 49 -108 l40 -93
-32 -72 c-18 -39 -66 -137 -107 -217 -41 -80 -83 -163 -94 -185 -121 -248
-224 -452 -234 -462 -10 -11 -9 -21 5 -49 14 -30 18 -33 28 -19 9 12 30 15 95
15 166 -1 656 9 767 15 81 5 112 3 112 -5 0 -8 11 -9 33 -5 43 9 56 23 36 38
-19 14 -49 70 -49 90 0 8 -6 17 -14 20 -8 3 -20 18 -28 34 -47 90 -92 170
-102 183 -7 8 -27 44 -46 80 -18 36 -38 72 -45 80 -13 15 -36 56 -78 135 -12
22 -43 77 -69 121 -26 45 -48 85 -48 89 0 3 -12 31 -27 61 -20 42 -24 57 -15
66 7 7 12 20 12 29 0 17 39 89 103 189 20 31 45 79 56 108 24 61 107 226 131
262 10 14 22 41 29 60 6 19 30 64 53 100 24 36 48 76 54 90 l12 25 2 -25 c1
-23 2 -23 10 -5 5 11 9 37 9 58 1 21 8 51 16 67 13 25 13 30 -3 48 -16 19 -19
19 -39 6z m-518 -69 c214 -4 475 -16 475 -23 0 -10 -35 -78 -48 -94 -8 -9 -76
-140 -152 -290 -166 -329 -203 -398 -212 -398 -5 0 -8 7 -8 15 0 8 -6 12 -15
9 -10 -4 -12 -15 -8 -35 3 -15 2 -36 -2 -46 -7 -18 -11 -11 -112 192 -14 28
-36 61 -48 75 -13 14 -58 93 -101 175 -42 83 -91 175 -108 205 -41 72 -72 145
-80 194 l-7 38 123 -7 c68 -3 204 -8 303 -10z m35 -1074 c-4 -73 0 -91 16 -91
13 0 15 7 10 32 -3 18 -3 28 2 23 33 -39 69 -98 119 -192 31 -59 65 -119 76
-133 21 -28 79 -129 175 -304 48 -89 61 -120 52 -126 -7 -5 -70 -11 -139 -15
-153 -9 -737 -12 -745 -4 -9 8 66 184 114 268 23 40 51 94 62 120 11 25 25 53
33 61 12 15 124 235 179 353 29 63 48 67 46 8z"/>
<path d="M800 660 c0 -5 5 -10 11 -10 5 0 7 5 4 10 -3 6 -8 10 -11 10 -2 0 -4
-4 -4 -10z"/>
<path d="M510 1150 c0 -5 5 -10 10 -10 6 0 10 5 10 10 0 6 -4 10 -10 10 -5 0
-10 -4 -10 -10z"/>
<path d="M1208 663 c7 -3 16 -2 19 1 4 3 -2 6 -13 5 -11 0 -14 -3 -6 -6z"/>
<path d="M142 640 c0 -14 2 -19 5 -12 2 6 2 18 0 25 -3 6 -5 1 -5 -13z"/>
</g>
</svg>
