<?xml version="1.0" standalone="no"?>
<!DOCTYPE svg PUBLIC "-//W3C//DTD SVG 20010904//EN"
 "http://www.w3.org/TR/2001/REC-SVG-20010904/DTD/svg10.dtd">
<svg version="1.0" xmlns="http://www.w3.org/2000/svg"
 width="123.000000pt" height="216.000000pt" viewBox="0 0 123.000000 216.000000"
 preserveAspectRatio="xMidYMid meet">
<metadata>
Created by potrace 1.16, written by Peter Selinger 2001-2019
</metadata>
<g transform="translate(0.000000,216.000000) scale(0.100000,-0.100000)"
fill="#000000" stroke="none">
<path d="M605 2081 c-20 -4 -31 -14 -35 -31 -8 -31 -1 -278 26 -865 l7 -140
-92 -180 c-51 -99 -103 -194 -116 -211 -14 -18 -34 -56 -45 -86 -18 -46 -65
-137 -176 -342 -14 -27 -32 -56 -40 -64 -8 -7 -14 -27 -14 -43 0 -54 28 -32
67 54 14 29 30 59 37 67 7 8 53 92 101 185 48 94 92 175 96 181 17 21 80 140
129 241 42 87 53 100 70 96 13 -3 20 0 20 8 1 25 29 -21 111 -185 44 -87 88
-171 98 -185 10 -14 33 -62 50 -106 18 -43 37 -85 43 -92 10 -13 21 -31 73
-123 14 -25 37 -60 50 -79 14 -19 25 -42 25 -51 0 -23 36 -54 55 -47 19 8 20
41 1 56 -8 7 -18 26 -21 42 -4 16 -13 33 -21 37 -28 16 -194 331 -194 368 0 4
-6 15 -14 23 -7 9 -59 105 -115 215 -56 109 -110 210 -119 224 -14 22 -17 57
-19 232 0 113 -3 341 -5 507 -1 167 -3 302 -3 302 0 -1 -13 -4 -30 -8z"/>
</g>
</svg>
