<?xml version="1.0" standalone="no"?>
<!DOCTYPE svg PUBLIC "-//W3C//DTD SVG 20010904//EN"
 "http://www.w3.org/TR/2001/REC-SVG-20010904/DTD/svg10.dtd">
<svg version="1.0" xmlns="http://www.w3.org/2000/svg"
 width="126.000000pt" height="219.000000pt" viewBox="0 0 126.000000 219.000000"
 preserveAspectRatio="xMidYMid meet">
<metadata>
Created by potrace 1.16, written by Peter Selinger 2001-2019
</metadata>
<g transform="translate(0.000000,219.000000) scale(0.100000,-0.100000)"
fill="#000000" stroke="none">
<path d="M125 2130 c4 -6 11 -8 16 -5 14 9 11 15 -7 15 -8 0 -12 -5 -9 -10z"/>
<path d="M1121 2117 c-1 -18 -12 -19 -178 -17 -98 1 -317 0 -486 -2 -169 -3
-310 -1 -313 4 -3 4 -17 -6 -31 -22 -28 -34 -27 -69 3 -130 9 -17 14 -42 12
-55 -3 -12 1 -34 8 -46 7 -13 13 -18 14 -11 0 26 17 10 43 -41 15 -30 27 -58
27 -63 0 -19 46 -122 76 -169 17 -27 44 -72 59 -100 16 -27 36 -59 46 -70 10
-11 31 -45 47 -76 43 -83 113 -199 123 -205 15 -9 -1 -24 -25 -24 -75 0 -304
-188 -359 -295 -8 -17 -24 -38 -35 -48 -14 -13 -20 -32 -21 -73 -1 -65 -5 -75
-29 -68 -14 5 -14 3 2 -10 14 -11 22 -38 30 -103 11 -85 13 -90 63 -153 29
-36 71 -78 94 -95 22 -16 57 -44 77 -61 20 -17 48 -35 62 -39 14 -4 41 -16 60
-26 19 -11 51 -19 72 -19 20 0 48 -4 62 -10 14 -5 28 -5 31 0 3 4 23 11 44 15
21 3 85 29 142 57 102 49 113 57 212 168 12 14 31 42 41 63 12 23 22 33 27 26
13 -21 29 2 29 40 0 77 12 131 29 131 9 0 3 7 -14 16 -40 21 -79 11 -72 -18 7
-25 -45 -159 -79 -203 -54 -71 -123 -135 -181 -168 -58 -33 -165 -63 -183 -52
-5 3 -11 1 -15 -5 -9 -15 -69 -12 -107 4 -18 8 -47 20 -65 26 -45 17 -158 106
-204 160 -30 35 -43 65 -61 133 -20 79 -21 93 -10 159 22 125 89 224 218 319
65 48 198 96 218 79 19 -15 44 26 158 248 55 108 115 222 133 252 18 30 55
105 83 165 85 190 94 206 107 201 8 -3 18 8 25 25 15 35 22 140 10 154 -4 6
-10 19 -13 30 -4 18 -5 18 -6 2z m-168 -77 c141 0 139 4 73 -133 -24 -51 -65
-137 -90 -192 -25 -55 -50 -107 -55 -115 -6 -8 -50 -96 -100 -195 -49 -99
-105 -198 -123 -219 l-34 -40 -46 65 c-25 35 -62 98 -82 139 -20 41 -45 83
-55 95 -10 11 -31 45 -46 75 -15 30 -36 67 -46 81 -10 14 -36 71 -59 128 -22
56 -61 143 -86 193 -24 50 -43 96 -41 102 5 14 436 8 455 -6 8 -7 17 -6 28 3
16 13 134 29 169 23 11 -2 73 -4 138 -4z"/>
<path d="M250 1591 c0 -6 4 -13 10 -16 6 -3 7 1 4 9 -7 18 -14 21 -14 7z"/>
<path d="M710 1079 c0 -5 5 -7 10 -4 6 3 10 8 10 11 0 2 -4 4 -10 4 -5 0 -10
-5 -10 -11z"/>
<path d="M141 194 c0 -11 3 -14 6 -6 3 7 2 16 -1 19 -3 4 -6 -2 -5 -13z"/>
</g>
</svg>
