<?xml version="1.0" standalone="no"?>
<!DOCTYPE svg PUBLIC "-//W3C//DTD SVG 20010904//EN"
 "http://www.w3.org/TR/2001/REC-SVG-20010904/DTD/svg10.dtd">
<svg version="1.0" xmlns="http://www.w3.org/2000/svg"
 width="129.000000pt" height="219.000000pt" viewBox="0 0 129.000000 219.000000"
 preserveAspectRatio="xMidYMid meet">
<metadata>
Created by potrace 1.16, written by Peter Selinger 2001-2019
</metadata>
<g transform="translate(0.000000,219.000000) scale(0.100000,-0.100000)"
fill="#000000" stroke="none">
<path d="M588 2065 c-5 -5 -3 -281 6 -730 l6 -270 -64 -130 c-36 -71 -76 -158
-90 -192 -14 -34 -51 -101 -82 -148 -30 -48 -74 -124 -96 -168 -76 -153 -87
-174 -103 -187 -8 -7 -15 -24 -15 -39 0 -15 -5 -32 -11 -38 -7 -7 -8 -17 -2
-27 7 -13 46 -16 248 -21 291 -8 238 -8 490 -1 116 3 216 2 223 -2 19 -12 83
-1 89 15 3 8 -6 27 -21 42 -15 16 -26 39 -27 57 0 23 -2 25 -8 10 -6 -16 -12
-12 -38 30 -16 27 -32 60 -36 74 -3 14 -28 51 -54 82 -26 31 -59 84 -72 117
-13 34 -35 76 -49 94 -22 30 -95 172 -186 364 -32 68 -36 85 -26 98 9 11 9 19
2 28 -9 10 -18 389 -22 875 l0 72 -28 0 c-16 0 -31 -2 -34 -5z m45 -1110 c-3
-9 4 -23 16 -33 12 -9 46 -66 77 -127 65 -129 142 -270 237 -432 37 -63 67
-117 67 -120 0 -3 9 -16 20 -30 11 -14 20 -30 20 -34 0 -5 -48 -8 -107 -7 -60
1 -247 0 -418 -3 -171 -3 -318 -1 -327 3 -21 10 -18 15 66 173 50 95 79 144
144 250 13 21 68 133 135 275 22 47 44 91 50 97 12 16 28 7 20 -12z"/>
<path d="M640 758 c0 -9 5 -20 10 -23 13 -8 13 5 0 25 -8 13 -10 13 -10 -2z"/>
<path d="M745 1100 c4 -6 11 -8 16 -5 14 9 11 15 -7 15 -8 0 -12 -5 -9 -10z"/>
<path d="M1035 620 c3 -5 8 -10 11 -10 2 0 4 5 4 10 0 6 -5 10 -11 10 -5 0 -7
-4 -4 -10z"/>
<path d="M1120 281 c0 -6 5 -13 10 -16 6 -3 10 1 10 9 0 9 -4 16 -10 16 -5 0
-10 -4 -10 -9z"/>
</g>
</svg>
