<?xml version="1.0" standalone="no"?>
<!DOCTYPE svg PUBLIC "-//W3C//DTD SVG 20010904//EN"
 "http://www.w3.org/TR/2001/REC-SVG-20010904/DTD/svg10.dtd">
<svg version="1.0" xmlns="http://www.w3.org/2000/svg"
 width="126.000000pt" height="216.000000pt" viewBox="0 0 126.000000 216.000000"
 preserveAspectRatio="xMidYMid meet">
<metadata>
Created by potrace 1.16, written by Peter Selinger 2001-2019
</metadata>
<g transform="translate(0.000000,216.000000) scale(0.100000,-0.100000)"
fill="#000000" stroke="none">
<path d="M608 2110 c-2 -7 -76 -12 -203 -15 -110 -1 -215 -8 -233 -14 -18 -5
-40 -7 -49 -4 -12 5 -14 1 -8 -17 4 -13 7 -48 7 -77 0 -29 4 -55 9 -59 5 -3 9
2 9 11 0 36 25 -5 114 -183 51 -103 112 -218 136 -257 73 -119 116 -197 152
-280 47 -105 47 -108 29 -123 -14 -11 -14 -11 1 -6 12 4 21 -4 33 -26 l17 -32
22 21 c15 14 35 21 63 21 53 0 252 -65 280 -92 47 -44 102 -152 119 -232 22
-107 9 -224 -32 -291 -138 -221 -256 -292 -477 -286 -125 4 -230 66 -334 198
-30 37 -93 172 -93 198 0 18 -28 45 -46 45 -18 0 -18 -21 2 -89 29 -97 67
-160 145 -240 57 -59 95 -88 149 -115 41 -20 82 -36 91 -36 10 0 21 -5 24 -11
4 -6 14 -8 22 -4 9 3 31 -4 51 -15 33 -20 35 -20 48 -2 7 10 30 23 51 30 21 6
62 18 92 27 98 30 218 120 276 208 17 27 45 37 45 16 0 -5 4 -7 10 -4 5 3 10
20 10 38 0 17 6 49 14 72 43 125 43 172 1 318 -14 45 -25 96 -26 112 -1 17 -3
22 -6 12 -7 -27 -19 -21 -50 25 -37 54 -65 74 -149 105 -38 14 -85 31 -104 39
-19 7 -57 13 -83 14 l-49 0 21 33 c12 17 57 106 101 197 44 91 90 181 101 200
20 35 101 201 154 318 21 46 31 59 35 46 6 -17 7 -17 13 0 4 10 7 29 7 44 0
14 7 46 16 69 16 40 16 45 0 62 -14 16 -23 17 -52 10 -19 -6 -39 -7 -44 -4 -5
3 -98 6 -205 6 -164 -1 -197 2 -201 14 -7 17 -21 20 -26 5z m-7 -93 c12 -21
29 -22 29 -2 0 13 30 15 209 15 131 0 212 -4 216 -10 7 -11 -20 -86 -54 -157
-11 -23 -39 -83 -62 -135 -22 -51 -46 -100 -54 -108 -11 -13 -51 -93 -195
-392 -17 -38 -34 -68 -36 -68 -9 0 -33 73 -27 83 3 5 1 7 -5 3 -6 -4 -23 19
-41 56 -32 67 -63 121 -115 203 -80 128 -106 175 -145 270 -21 50 -57 126 -79
169 -23 44 -38 84 -35 89 3 5 84 8 195 5 167 -3 191 -5 199 -21z"/>
<path d="M40 2070 c-13 -8 -12 -10 3 -10 9 0 17 5 17 10 0 12 -1 12 -20 0z"/>
<path d="M141 284 c0 -11 3 -14 6 -6 3 7 2 16 -1 19 -3 4 -6 -2 -5 -13z"/>
</g>
</svg>
