<?xml version="1.0" standalone="no"?>
<!DOCTYPE svg PUBLIC "-//W3C//DTD SVG 20010904//EN"
 "http://www.w3.org/TR/2001/REC-SVG-20010904/DTD/svg10.dtd">
<svg version="1.0" xmlns="http://www.w3.org/2000/svg"
 width="120.000000pt" height="216.000000pt" viewBox="0 0 120.000000 216.000000"
 preserveAspectRatio="xMidYMid meet">
<metadata>
Created by potrace 1.16, written by Peter Selinger 2001-2019
</metadata>
<g transform="translate(0.000000,216.000000) scale(0.100000,-0.100000)"
fill="#000000" stroke="none">
<path d="M583 2052 c-10 -6 -12 -94 -8 -398 3 -214 7 -417 10 -451 5 -73 -6
-89 -63 -98 -68 -12 -235 -107 -263 -150 -72 -112 -95 -144 -101 -145 -5 0 -9
28 -10 63 -1 56 -2 57 -5 15 -2 -27 -7 -48 -11 -48 -4 0 -8 -28 -8 -62 -1 -35
-3 -117 -5 -183 -5 -159 7 -196 102 -298 39 -42 81 -82 94 -89 13 -7 47 -27
77 -44 30 -19 74 -35 103 -38 56 -7 149 -9 180 -3 11 2 41 7 68 11 26 5 47 12
47 16 0 4 26 28 58 53 90 71 157 139 171 173 6 17 26 46 43 64 29 32 31 33 44
15 13 -17 14 -14 14 31 0 27 5 67 10 89 10 45 -2 68 -34 63 -13 -2 -22 -13
-27 -33 -27 -123 -162 -302 -282 -374 -53 -31 -65 -34 -164 -38 -105 -5 -110
-4 -186 27 -101 43 -204 136 -249 223 -30 59 -30 63 -25 172 5 123 20 164 80
233 18 20 41 49 50 64 24 39 91 82 185 118 95 37 133 37 142 0 15 -61 19 90
15 538 -4 368 -2 472 8 473 6 0 3 4 -8 9 -26 11 -37 11 -52 2z"/>
<path d="M622 270 c0 -14 2 -19 5 -12 2 6 2 18 0 25 -3 6 -5 1 -5 -13z"/>
</g>
</svg>
