<?xml version="1.0" standalone="no"?>
<!DOCTYPE svg PUBLIC "-//W3C//DTD SVG 20010904//EN"
 "http://www.w3.org/TR/2001/REC-SVG-20010904/DTD/svg10.dtd">
<svg version="1.0" xmlns="http://www.w3.org/2000/svg"
 width="120.000000pt" height="231.000000pt" viewBox="0 0 120.000000 231.000000"
 preserveAspectRatio="xMidYMid meet">
<metadata>
Created by potrace 1.16, written by Peter Selinger 2001-2019
</metadata>
<g transform="translate(0.000000,231.000000) scale(0.100000,-0.100000)"
fill="#000000" stroke="none">
<path d="M1092 2290 c0 -14 2 -19 5 -12 2 6 2 18 0 25 -3 6 -5 1 -5 -13z"/>
<path d="M350 2170 c-128 -16 -260 -47 -262 -61 -3 -32 21 -113 43 -146 16
-23 29 -48 29 -57 0 -8 4 -17 9 -20 4 -3 37 -67 72 -143 69 -151 180 -358 266
-496 30 -49 53 -91 51 -93 -2 -2 -34 -10 -71 -17 -114 -24 -225 -109 -308
-236 -60 -91 -70 -127 -71 -252 0 -113 15 -167 76 -278 47 -84 87 -128 166
-179 74 -47 126 -62 229 -62 107 -1 158 13 246 68 105 65 153 107 204 175 91
122 110 200 87 364 -16 110 -21 123 -77 198 -79 106 -157 164 -271 203 -46 15
-85 31 -87 35 -4 9 1 19 115 252 42 88 83 167 89 175 6 8 18 35 25 60 8 25 30
79 51 120 20 41 40 86 44 98 12 40 67 122 81 122 9 0 14 12 14 30 0 17 7 44
15 59 13 26 13 30 -4 45 -16 14 -61 18 -307 26 -159 5 -314 11 -344 13 -30 2
-80 1 -110 -3z m238 -79 l4 -23 15 22 c16 23 17 23 202 17 102 -4 196 -7 209
-7 30 0 28 -23 -8 -90 -49 -90 -160 -321 -160 -333 0 -7 -42 -95 -93 -197 -51
-102 -100 -204 -109 -227 -21 -55 -41 -57 -36 -3 2 22 0 40 -4 40 -5 0 -8 -4
-8 -10 0 -27 -29 -4 -60 48 -18 31 -39 64 -46 72 -23 27 -129 240 -216 430
-81 177 -109 238 -115 251 -4 6 87 24 185 37 29 4 94 5 145 2 87 -5 92 -6 95
-29z m138 -1006 c31 -14 61 -25 67 -25 30 0 154 -113 203 -184 64 -94 85 -300
40 -398 -60 -132 -167 -229 -307 -276 -83 -28 -215 -20 -295 19 -165 78 -263
246 -266 455 -2 116 18 174 90 260 62 76 131 128 188 144 34 10 123 22 206 29
10 0 43 -10 74 -24z"/>
<path d="M121 954 c0 -11 3 -14 6 -6 3 7 2 16 -1 19 -3 4 -6 -2 -5 -13z"/>
</g>
</svg>
