<?xml version="1.0" standalone="no"?>
<!DOCTYPE svg PUBLIC "-//W3C//DTD SVG 20010904//EN"
 "http://www.w3.org/TR/2001/REC-SVG-20010904/DTD/svg10.dtd">
<svg version="1.0" xmlns="http://www.w3.org/2000/svg"
 width="123.000000pt" height="213.000000pt" viewBox="0 0 123.000000 213.000000"
 preserveAspectRatio="xMidYMid meet">
<metadata>
Created by potrace 1.16, written by Peter Selinger 2001-2019
</metadata>
<g transform="translate(0.000000,213.000000) scale(0.100000,-0.100000)"
fill="#000000" stroke="none">
<path d="M586 2004 c-14 -13 -16 -62 -16 -385 0 -385 11 -546 39 -586 19 -27
31 -29 31 -7 0 14 11 16 83 11 103 -6 151 -30 233 -113 70 -72 99 -136 113
-252 13 -103 8 -142 -25 -209 -51 -105 -110 -179 -166 -211 -119 -68 -176 -85
-283 -88 -99 -2 -100 -2 -178 38 -125 65 -208 185 -238 342 -10 56 -32 87 -49
70 -12 -12 8 -204 21 -204 4 0 19 -24 32 -53 47 -99 94 -147 197 -203 83 -45
105 -53 173 -59 47 -4 77 -12 77 -19 0 -6 5 -3 11 7 5 9 18 17 29 17 10 0 76
29 147 64 135 68 169 97 249 215 17 25 36 45 42 44 7 -2 12 6 12 16 0 11 4 22
9 25 5 3 7 83 5 177 -3 175 -13 224 -45 234 -9 3 -29 23 -44 45 -40 58 -129
138 -161 146 -16 4 -33 10 -39 14 -14 10 -91 28 -144 35 -24 2 -47 8 -50 11
-7 7 -7 9 -16 503 -3 206 -8 378 -11 383 -8 12 -21 10 -38 -8z"/>
</g>
</svg>
