<?xml version="1.0" standalone="no"?>
<!DOCTYPE svg PUBLIC "-//W3C//DTD SVG 20010904//EN"
 "http://www.w3.org/TR/2001/REC-SVG-20010904/DTD/svg10.dtd">
<svg version="1.0" xmlns="http://www.w3.org/2000/svg"
 width="129.000000pt" height="231.000000pt" viewBox="0 0 129.000000 231.000000"
 preserveAspectRatio="xMidYMid meet">
<metadata>
Created by potrace 1.16, written by Peter Selinger 2001-2019
</metadata>
<g transform="translate(0.000000,231.000000) scale(0.100000,-0.100000)"
fill="#000000" stroke="none">
<path d="M609 2145 c-4 -3 -64 -6 -135 -6 -223 0 -335 -9 -341 -28 -3 -9 -9
-25 -14 -36 -7 -14 -5 -34 6 -64 8 -24 15 -54 15 -67 0 -15 5 -22 13 -19 12 5
35 -39 108 -205 18 -41 38 -82 45 -90 6 -8 31 -51 55 -95 24 -44 64 -111 89
-150 38 -58 120 -208 120 -220 0 -8 -102 -65 -116 -65 -9 0 -51 -36 -95 -81
-129 -132 -199 -302 -179 -434 28 -191 80 -290 203 -387 38 -31 175 -77 227
-78 15 0 31 -5 36 -10 8 -8 15 -6 24 5 7 8 19 15 28 15 36 0 142 46 208 90 68
46 146 137 189 220 9 17 25 40 35 50 25 25 45 169 36 266 -4 59 -14 88 -51
160 -54 103 -60 111 -139 172 -71 55 -113 71 -188 72 -60 0 -88 7 -88 21 0 5
17 46 39 91 34 73 63 142 142 333 79 189 217 451 245 462 8 3 14 19 14 39 0
31 -3 34 -28 34 -15 0 -32 -4 -38 -10 -10 -10 -391 4 -438 16 -12 3 -24 2 -27
-1z m359 -81 c35 -4 62 -12 62 -18 0 -6 -11 -27 -23 -46 -51 -75 -143 -266
-197 -405 -4 -11 -14 -38 -23 -60 -78 -204 -140 -329 -159 -323 -5 2 -30 42
-55 88 -25 47 -65 113 -90 148 -24 34 -58 93 -75 130 -17 37 -37 74 -45 83 -7
9 -29 52 -47 95 -18 44 -57 130 -87 192 -44 95 -51 115 -38 123 15 11 665 5
777 -7z m-328 -965 c0 -8 5 -7 15 1 19 16 172 7 207 -11 51 -27 139 -102 166
-142 59 -87 77 -144 77 -242 -1 -128 -30 -210 -124 -342 -73 -103 -209 -180
-317 -181 -22 -1 -44 -2 -50 -3 -21 -6 -102 15 -146 37 -139 70 -221 228 -222
429 -1 97 0 103 40 185 55 115 133 199 228 245 71 35 126 45 126 24z"/>
<path d="M607 668 c-22 -8 -28 -15 -25 -36 2 -21 10 -28 35 -33 28 -5 33 -3
44 22 13 32 7 59 -13 58 -7 0 -26 -5 -41 -11z"/>
</g>
</svg>
