<?xml version="1.0" standalone="no"?>
<!DOCTYPE svg PUBLIC "-//W3C//DTD SVG 20010904//EN"
 "http://www.w3.org/TR/2001/REC-SVG-20010904/DTD/svg10.dtd">
<svg version="1.0" xmlns="http://www.w3.org/2000/svg"
 width="110.000000pt" height="222.000000pt" viewBox="0 0 110.000000 222.000000"
 preserveAspectRatio="xMidYMid meet">
<metadata>
Created by potrace 1.16, written by Peter Selinger 2001-2019
</metadata>
<g transform="translate(0.000000,222.000000) scale(0.100000,-0.100000)"
fill="#000000" stroke="none">
<path d="M415 2160 c-62 -25 -82 -41 -170 -132 -80 -82 -105 -115 -123 -161
-26 -70 -56 -249 -47 -286 3 -14 7 -37 9 -51 3 -24 16 -57 34 -90 5 -8 15 -28
23 -45 9 -18 24 -31 38 -33 20 -3 22 -1 16 20 -4 13 -13 36 -21 53 -48 99 -59
268 -24 384 20 69 70 139 176 246 63 65 123 84 246 79 105 -4 130 -14 234 -92
153 -117 205 -210 220 -397 7 -91 -18 -205 -62 -284 -13 -24 -24 -48 -24 -53
0 -6 -14 -31 -31 -57 l-31 -46 40 40 c22 22 52 64 65 95 85 187 101 238 93
287 -4 21 -10 63 -15 93 -4 30 -12 66 -18 80 -6 14 -17 47 -24 73 -10 41 -26
62 -97 133 -47 46 -90 84 -95 84 -5 0 -22 11 -39 25 -79 67 -252 83 -373 35z"/>
<path d="M570 1651 c-14 -28 -13 -56 5 -71 22 -18 48 -8 59 22 17 48 -41 92
-64 49z"/>
<path d="M210 1320 c0 -11 10 -32 23 -46 12 -14 22 -31 22 -38 0 -20 31 -45
82 -67 27 -11 67 -29 90 -40 24 -10 52 -19 62 -19 11 0 22 -4 25 -8 8 -14 -23
-52 -38 -46 -8 3 -17 1 -21 -5 -3 -6 -13 -11 -21 -11 -23 0 -117 -73 -133
-103 -8 -15 -18 -27 -23 -27 -17 0 -39 -30 -36 -48 3 -13 11 -7 35 26 67 91
208 172 302 172 44 0 56 8 56 38 0 25 -50 58 -61 41 -3 -6 -3 -13 0 -16 3 -3
1 -15 -5 -25 -7 -14 -14 -17 -21 -10 -7 7 -6 17 1 30 6 12 8 23 4 25 -28 17
-156 47 -177 41 -20 -5 -28 -2 -33 12 -9 24 -102 132 -120 138 -8 3 -13 -2
-13 -14z"/>
<path d="M825 1198 c-11 -6 -27 -19 -36 -30 -8 -11 -40 -28 -69 -38 -35 -12
-57 -26 -62 -39 -5 -16 -3 -21 9 -21 23 0 103 -40 103 -51 0 -5 7 -9 16 -9 9
0 22 -8 29 -17 7 -9 28 -22 46 -28 23 -8 33 -18 34 -34 1 -12 18 -37 38 -54
37 -33 87 -114 87 -142 0 -8 6 -18 14 -21 9 -4 16 -30 21 -82 6 -70 3 -85 -25
-161 -24 -67 -43 -99 -89 -150 -72 -82 -164 -154 -216 -171 -22 -7 -51 -20
-65 -29 -17 -11 -48 -16 -110 -16 -76 0 -92 3 -150 32 -203 102 -313 376 -226
566 14 32 26 62 26 68 0 5 7 21 16 35 18 26 13 44 -5 22 -49 -57 -61 -76 -61
-93 0 -11 -7 -29 -15 -39 -8 -11 -15 -27 -15 -37 0 -9 -6 -22 -14 -28 -17 -14
-19 -93 -5 -180 14 -87 86 -217 157 -282 29 -26 81 -62 115 -78 54 -27 74 -31
158 -32 75 -2 102 1 130 16 19 10 55 28 80 41 85 42 180 116 222 173 73 98 84
117 101 172 9 30 21 62 27 71 41 76 -34 282 -146 400 -55 57 -174 148 -196
148 -27 0 19 59 47 60 5 0 25 16 44 35 34 35 26 46 -15 23z"/>
<path d="M573 643 c-7 -2 -13 -11 -13 -18 0 -8 -7 -18 -16 -23 -9 -5 -14 -14
-10 -21 10 -15 48 -14 71 3 17 12 18 18 7 40 -12 26 -17 29 -39 19z"/>
</g>
</svg>
