<?xml version="1.0" standalone="no"?>
<!DOCTYPE svg PUBLIC "-//W3C//DTD SVG 20010904//EN"
 "http://www.w3.org/TR/2001/REC-SVG-20010904/DTD/svg10.dtd">
<svg version="1.0" xmlns="http://www.w3.org/2000/svg"
 width="123.000000pt" height="213.000000pt" viewBox="0 0 123.000000 213.000000"
 preserveAspectRatio="xMidYMid meet">
<metadata>
Created by potrace 1.16, written by Peter Selinger 2001-2019
</metadata>
<g transform="translate(0.000000,213.000000) scale(0.100000,-0.100000)"
fill="#000000" stroke="none">
<path d="M574 1956 c11 -119 8 -688 -4 -762 -13 -83 -14 -84 -51 -84 -42 0
-169 -37 -189 -55 -9 -8 -21 -15 -26 -15 -25 0 -120 -129 -145 -196 -46 -119
-50 -139 -51 -251 -1 -139 0 -151 10 -135 6 8 21 -11 48 -60 25 -46 69 -103
124 -159 l85 -87 100 -23 c109 -25 198 -28 304 -8 46 9 65 17 68 29 3 12 19
20 50 25 25 3 42 9 39 12 -3 4 19 32 49 63 29 32 57 69 61 84 9 36 24 33 24
-5 0 -16 4 -28 9 -25 5 4 12 50 16 104 4 53 10 113 14 132 4 19 4 51 -1 70 -5
19 -9 68 -9 107 0 56 -4 73 -15 73 -8 0 -14 11 -15 28 0 15 -3 21 -6 15 -6
-16 -23 -17 -23 -1 0 14 -55 104 -84 137 -47 53 -168 118 -257 136 -40 9 -75
17 -77 19 -1 2 2 136 9 297 9 245 8 491 -5 572 -3 20 -23 37 -45 37 -11 0 -12
-14 -7 -74z m151 -915 c22 -6 44 -16 50 -24 5 -7 18 -16 27 -20 10 -3 20 -17
23 -30 4 -14 18 -31 33 -38 14 -8 53 -46 86 -85 52 -61 63 -81 77 -140 27
-116 16 -200 -43 -317 -64 -129 -140 -178 -309 -200 -112 -15 -187 -10 -216
15 -10 8 -38 25 -63 37 -25 13 -61 39 -82 59 -20 20 -50 51 -67 67 -17 17 -31
37 -31 45 0 9 -6 24 -13 35 -16 24 -34 91 -42 160 -6 49 -4 61 47 235 11 40
122 152 165 167 122 43 203 56 203 33 0 -5 9 -10 20 -10 11 0 20 6 20 14 0 16
41 15 115 -3z"/>
<path d="M111 834 c0 -11 3 -14 6 -6 3 7 2 16 -1 19 -3 4 -6 -2 -5 -13z"/>
</g>
</svg>
