<?xml version="1.0" standalone="no"?>
<!DOCTYPE svg PUBLIC "-//W3C//DTD SVG 20010904//EN"
 "http://www.w3.org/TR/2001/REC-SVG-20010904/DTD/svg10.dtd">
<svg version="1.0" xmlns="http://www.w3.org/2000/svg"
 width="126.000000pt" height="228.000000pt" viewBox="0 0 126.000000 228.000000"
 preserveAspectRatio="xMidYMid meet">
<metadata>
Created by potrace 1.16, written by Peter Selinger 2001-2019
</metadata>
<g transform="translate(0.000000,228.000000) scale(0.100000,-0.100000)"
fill="#000000" stroke="none">
<path d="M425 2183 c-16 -8 -39 -23 -50 -33 -11 -9 -42 -29 -70 -45 -107 -61
-163 -127 -195 -230 -17 -56 -30 -66 -30 -24 -1 25 -3 30 -10 18 -5 -8 -9 -47
-9 -85 0 -38 -1 -112 -2 -164 -2 -66 1 -95 9 -95 6 0 33 -32 59 -71 26 -39 64
-89 83 -111 45 -52 198 -151 275 -177 58 -21 60 -22 59 -56 -1 -19 -2 -122 -3
-228 -2 -187 -3 -193 -23 -201 l-22 -8 21 -5 c20 -5 21 -12 22 -149 1 -79 4
-186 7 -236 5 -66 3 -97 -5 -107 -10 -12 -8 -17 8 -25 18 -10 21 -7 31 31 8
27 9 73 4 132 -9 120 -7 216 6 299 9 49 9 71 1 81 -8 9 -9 85 -5 258 l7 245
-40 6 c-78 13 -231 96 -306 166 -53 49 -124 153 -136 198 -36 129 18 333 113
425 28 27 68 58 89 69 20 10 56 29 80 41 55 28 125 39 173 27 22 -5 61 -12 88
-15 59 -6 93 -20 171 -69 128 -82 236 -230 241 -328 1 -23 2 -45 3 -49 1 -5
15 -8 31 -8 35 0 36 7 14 93 -11 43 -12 62 -4 67 6 4 8 14 4 23 -6 16 -16 21
-40 18 -5 0 -18 16 -27 37 -26 58 -114 145 -202 199 -137 85 -343 127 -420 86z"/>
<path d="M1082 2050 c0 -19 2 -27 5 -17 2 9 2 25 0 35 -3 9 -5 1 -5 -18z"/>
<path d="M645 170 c-18 -7 -19 -8 -2 -15 20 -8 47 0 47 15 0 12 -17 12 -45 0z"/>
</g>
</svg>
