<?xml version="1.0" standalone="no"?>
<!DOCTYPE svg PUBLIC "-//W3C//DTD SVG 20010904//EN"
 "http://www.w3.org/TR/2001/REC-SVG-20010904/DTD/svg10.dtd">
<svg version="1.0" xmlns="http://www.w3.org/2000/svg"
 width="132.000000pt" height="213.000000pt" viewBox="0 0 132.000000 213.000000"
 preserveAspectRatio="xMidYMid meet">
<metadata>
Created by potrace 1.16, written by Peter Selinger 2001-2019
</metadata>
<g transform="translate(0.000000,213.000000) scale(0.100000,-0.100000)"
fill="#000000" stroke="none">
<path d="M631 1976 c-6 -7 -9 -26 -6 -42 11 -68 12 -587 1 -703 l-11 -125 -72
-12 c-39 -6 -77 -15 -85 -20 -41 -25 -130 -98 -150 -123 -97 -123 -115 -164
-128 -302 -10 -90 -3 -129 38 -234 46 -117 64 -147 129 -213 79 -81 154 -120
248 -132 35 -4 68 -11 73 -14 5 -3 20 3 33 13 13 10 51 24 84 32 95 20 254
148 297 238 28 57 58 99 58 80 0 -9 5 -6 13 6 17 28 17 329 0 346 -7 7 -13 23
-13 36 0 13 -5 23 -10 23 -6 0 -30 30 -53 68 -41 63 -110 130 -167 161 -33 17
-79 30 -164 45 l-69 11 1 425 c1 407 -2 450 -28 450 -4 0 -13 -6 -19 -14z
m210 -956 c88 -45 151 -98 180 -150 11 -19 28 -48 39 -65 33 -53 53 -135 52
-215 -2 -68 -6 -84 -49 -169 -36 -69 -62 -107 -103 -144 -89 -82 -125 -103
-192 -117 -35 -6 -84 -19 -110 -27 -57 -17 -90 -12 -168 28 -53 27 -140 102
-140 121 0 5 -11 19 -24 32 -14 12 -41 59 -61 104 -34 79 -36 87 -36 197 0
104 2 121 27 177 40 90 80 140 149 186 72 49 107 59 204 60 40 0 76 4 80 7 12
13 109 -3 152 -25z"/>
<path d="M620 620 c-11 -11 -20 -27 -20 -35 0 -8 9 -24 20 -35 11 -11 27 -20
35 -20 19 0 55 36 55 55 0 19 -36 55 -55 55 -8 0 -24 -9 -35 -20z"/>
</g>
</svg>
