<?xml version="1.0" standalone="no"?>
<!DOCTYPE svg PUBLIC "-//W3C//DTD SVG 20010904//EN"
 "http://www.w3.org/TR/2001/REC-SVG-20010904/DTD/svg10.dtd">
<svg version="1.0" xmlns="http://www.w3.org/2000/svg"
 width="135.000000pt" height="231.000000pt" viewBox="0 0 135.000000 231.000000"
 preserveAspectRatio="xMidYMid meet">
<metadata>
Created by potrace 1.16, written by Peter Selinger 2001-2019
</metadata>
<g transform="translate(0.000000,231.000000) scale(0.100000,-0.100000)"
fill="#000000" stroke="none">
<path d="M532 2225 c-123 -28 -264 -151 -320 -277 -11 -27 -25 -48 -30 -48 -6
0 -10 -10 -10 -22 -1 -30 -17 -107 -29 -136 -5 -13 -5 -50 -1 -85 4 -34 11
-86 14 -116 5 -37 12 -55 23 -58 9 -3 34 -33 57 -67 51 -78 201 -206 247 -212
60 -7 149 -22 152 -26 2 -2 6 -188 9 -413 3 -226 8 -438 12 -472 5 -49 4 -64
-7 -67 -15 -5 -291 -15 -426 -16 l-83 0 0 -34 c0 -38 25 -57 33 -25 5 17 15
19 94 20 99 1 196 5 295 14 57 4 71 2 86 -13 15 -15 21 -16 28 -6 7 9 73 14
263 17 262 5 299 12 256 43 -11 8 -29 13 -40 10 -11 -3 -115 -9 -231 -12 -175
-6 -212 -5 -220 7 -5 8 -10 236 -11 507 -1 272 -3 496 -6 498 -2 3 -26 6 -53
8 -73 5 -202 53 -260 96 -56 42 -105 104 -154 195 -28 51 -32 70 -32 130 0 77
29 199 67 280 35 74 155 189 225 217 63 24 181 31 187 11 3 -9 17 -11 41 -7
22 3 54 0 78 -9 57 -19 191 -105 223 -143 14 -17 37 -43 50 -59 65 -78 120
-202 97 -225 -8 -8 -7 -14 7 -21 9 -6 17 -17 17 -24 0 -8 7 -15 15 -15 8 0 15
7 15 15 0 9 7 18 15 21 19 8 20 30 1 37 -7 3 -16 26 -19 52 -2 26 -14 59 -26
74 -12 14 -33 44 -48 66 -53 80 -109 139 -177 184 -38 25 -80 54 -94 63 -14 9
-28 21 -31 26 -3 5 -37 12 -76 15 -38 4 -90 9 -115 11 -25 3 -73 -1 -108 -9z"/>
<path d="M858 2223 c7 -3 16 -2 19 1 4 3 -2 6 -13 5 -11 0 -14 -3 -6 -6z"/>
<path d="M164 1959 c-3 -6 -1 -16 5 -22 8 -8 11 -5 11 11 0 24 -5 28 -16 11z"/>
<path d="M740 1220 c0 -5 7 -10 16 -10 8 0 12 5 9 10 -3 6 -10 10 -16 10 -5 0
-9 -4 -9 -10z"/>
<path d="M800 1220 c0 -5 7 -10 16 -10 8 0 12 5 9 10 -3 6 -10 10 -16 10 -5 0
-9 -4 -9 -10z"/>
<path d="M515 1080 c-3 -5 1 -10 10 -10 9 0 13 5 10 10 -3 6 -8 10 -10 10 -2
0 -7 -4 -10 -10z"/>
<path d="M848 713 c7 -3 16 -2 19 1 4 3 -2 6 -13 5 -11 0 -14 -3 -6 -6z"/>
<path d="M1181 284 c0 -11 3 -14 6 -6 3 7 2 16 -1 19 -3 4 -6 -2 -5 -13z"/>
<path d="M100 199 c0 -5 5 -7 10 -4 6 3 10 8 10 11 0 2 -4 4 -10 4 -5 0 -10
-5 -10 -11z"/>
</g>
</svg>
