<?xml version="1.0" standalone="no"?>
<!DOCTYPE svg PUBLIC "-//W3C//DTD SVG 20010904//EN"
 "http://www.w3.org/TR/2001/REC-SVG-20010904/DTD/svg10.dtd">
<svg version="1.0" xmlns="http://www.w3.org/2000/svg"
 width="118.000000pt" height="218.000000pt" viewBox="0 0 118.000000 218.000000"
 preserveAspectRatio="xMidYMid meet">
<metadata>
Created by potrace 1.16, written by Peter Selinger 2001-2019
</metadata>
<g transform="translate(0.000000,218.000000) scale(0.100000,-0.100000)"
fill="#000000" stroke="none">
<path d="M576 2101 c-3 -5 -36 -9 -73 -10 -122 -2 -285 -11 -295 -17 -5 -3
-23 0 -39 6 -23 10 -33 10 -42 1 -6 -6 -18 -11 -27 -11 -9 0 -24 -6 -34 -13
-17 -13 -17 -15 -1 -46 16 -32 17 -32 37 -14 18 16 42 18 244 20 l224 1 2
-176 c3 -391 -7 -1383 -17 -1568 -8 -156 -1 -199 31 -192 19 4 27 164 29 563
0 160 4 488 9 730 4 242 8 485 9 540 l2 100 45 1 c25 0 133 -2 240 -6 107 -4
197 -5 199 -3 3 2 -3 16 -12 32 -12 21 -13 31 -5 39 9 9 8 12 -5 12 -9 0 -17
-3 -17 -8 0 -4 -39 -4 -87 0 -49 3 -152 7 -231 7 -79 1 -152 6 -162 11 -11 6
-21 6 -24 1z"/>
<path d="M358 93 c7 -3 16 -2 19 1 4 3 -2 6 -13 5 -11 0 -14 -3 -6 -6z"/>
</g>
</svg>
