<?xml version="1.0" standalone="no"?>
<!DOCTYPE svg PUBLIC "-//W3C//DTD SVG 20010904//EN"
 "http://www.w3.org/TR/2001/REC-SVG-20010904/DTD/svg10.dtd">
<svg version="1.0" xmlns="http://www.w3.org/2000/svg"
 width="132.000000pt" height="225.000000pt" viewBox="0 0 132.000000 225.000000"
 preserveAspectRatio="xMidYMid meet">
<metadata>
Created by potrace 1.16, written by Peter Selinger 2001-2019
</metadata>
<g transform="translate(0.000000,225.000000) scale(0.100000,-0.100000)"
fill="#000000" stroke="none">
<path d="M640 2188 c0 -10 -14 -17 -45 -21 -24 -4 -82 -24 -127 -46 -68 -32
-97 -53 -158 -118 -48 -50 -88 -103 -110 -148 -19 -38 -40 -74 -46 -80 -16
-14 -25 -101 -24 -219 1 -105 4 -120 25 -112 7 2 24 -17 41 -50 31 -58 171
-204 196 -204 9 0 32 -11 52 -25 20 -14 64 -29 102 -36 39 -7 68 -17 71 -26 3
-8 -13 -49 -36 -91 -23 -42 -52 -100 -65 -128 -14 -28 -40 -76 -59 -106 -19
-30 -42 -70 -51 -89 -9 -18 -20 -41 -25 -49 -6 -8 -49 -94 -97 -190 -47 -96
-98 -191 -113 -210 l-26 -35 -6 30 c-7 33 -13 12 -9 -37 1 -15 -3 -35 -9 -46
-13 -24 -3 -62 15 -62 8 0 14 6 14 13 0 8 10 18 23 24 12 6 23 20 24 32 1 12
17 47 36 79 19 31 57 105 85 163 28 59 55 110 61 113 5 4 19 30 29 59 11 28
38 81 61 117 22 36 54 90 70 120 40 75 101 176 101 166 0 -5 6 -3 14 3 8 7 12
20 9 29 -6 24 15 75 27 67 14 -9 65 -110 95 -191 14 -37 41 -96 60 -133 19
-36 35 -76 35 -88 0 -13 4 -23 9 -23 12 0 121 -229 121 -254 0 -4 23 -55 51
-112 28 -58 48 -112 45 -119 -3 -8 3 -17 15 -20 10 -4 19 -14 19 -23 0 -13 4
-12 19 7 13 18 16 31 10 50 -5 14 -11 39 -14 55 -3 15 -9 26 -12 22 -8 -8 -45
58 -71 126 -12 29 -37 91 -57 138 -58 136 -56 130 -40 130 8 0 15 5 15 11 0 6
-6 9 -13 6 -8 -3 -18 -2 -23 1 -10 8 -149 295 -159 330 -4 13 -20 50 -36 82
-16 33 -29 64 -29 69 0 6 -12 11 -27 11 -30 0 -185 40 -243 62 -102 38 -199
136 -247 251 -40 92 -44 184 -14 287 33 118 70 170 189 268 87 72 214 120 246
93 11 -9 19 -9 35 1 17 10 29 9 74 -6 67 -23 118 -62 204 -158 74 -83 122
-168 138 -248 9 -45 17 -57 43 -72 l32 -18 0 38 c0 26 -18 75 -60 157 -55 112
-67 127 -168 228 l-108 108 -75 15 c-41 9 -82 23 -91 31 -16 14 -18 14 -18 1z"/>
<path d="M840 2140 c0 -5 7 -10 15 -10 8 0 15 5 15 10 0 6 -7 10 -15 10 -8 0
-15 -4 -15 -10z"/>
<path d="M144 445 c0 -88 2 -123 3 -77 2 46 2 118 0 160 -1 42 -3 5 -3 -83z"/>
<path d="M50 136 c0 -2 9 -6 20 -9 11 -3 18 -1 14 4 -5 9 -34 13 -34 5z"/>
</g>
</svg>
