<?xml version="1.0" standalone="no"?>
<!DOCTYPE svg PUBLIC "-//W3C//DTD SVG 20010904//EN"
 "http://www.w3.org/TR/2001/REC-SVG-20010904/DTD/svg10.dtd">
<svg version="1.0" xmlns="http://www.w3.org/2000/svg"
 width="129.000000pt" height="225.000000pt" viewBox="0 0 129.000000 225.000000"
 preserveAspectRatio="xMidYMid meet">
<metadata>
Created by potrace 1.16, written by Peter Selinger 2001-2019
</metadata>
<g transform="translate(0.000000,225.000000) scale(0.100000,-0.100000)"
fill="#000000" stroke="none">
<path d="M610 2194 c-25 -7 -56 -14 -70 -14 -14 0 -43 -14 -65 -30 -22 -16
-56 -38 -75 -49 -64 -35 -145 -127 -190 -213 -28 -53 -37 -59 -43 -25 -2 12
-5 -2 -6 -31 -1 -62 -20 -142 -32 -142 -5 0 -6 -13 -3 -29 3 -15 13 -79 22
-142 11 -71 21 -114 29 -114 6 0 25 -18 41 -40 16 -22 61 -70 99 -108 59 -58
78 -70 138 -88 39 -12 96 -24 128 -26 45 -4 57 -8 57 -22 0 -9 -4 -21 -9 -26
-5 -6 -33 -64 -62 -130 -29 -66 -58 -129 -64 -140 -7 -11 -16 -33 -19 -49 -4
-16 -18 -45 -32 -65 -13 -19 -24 -41 -24 -47 0 -6 -11 -31 -25 -55 -14 -24
-34 -62 -45 -84 -11 -22 -44 -83 -73 -135 -79 -145 -101 -175 -119 -164 -4 3
-8 -2 -8 -11 0 -9 -9 -19 -20 -22 -23 -6 -27 -23 -5 -23 8 0 15 -8 15 -18 0
-26 10 -33 31 -21 11 6 103 10 217 10 108 0 206 0 217 0 174 2 535 -5 551 -11
17 -7 24 -4 33 16 15 33 14 49 -4 64 -8 7 -15 21 -15 31 0 12 -7 19 -18 19
-22 0 -118 158 -154 255 -61 162 -60 158 -47 165 8 5 5 10 -9 14 -13 5 -34 34
-57 81 -19 40 -35 77 -35 80 0 4 -22 53 -50 110 -27 56 -52 114 -56 129 -3 14
-10 29 -15 32 -5 3 -9 20 -9 37 0 28 -5 35 -32 45 -21 8 -34 9 -36 2 -9 -26
-132 -7 -242 37 -42 17 -132 101 -166 154 -48 77 -83 269 -49 269 8 0 15 5 15
10 0 6 -7 10 -16 10 -11 0 -14 5 -10 17 4 9 11 36 16 59 19 83 62 156 137 231
40 40 87 80 105 89 51 27 191 73 202 67 5 -4 37 -7 70 -7 104 -2 175 -50 270
-186 62 -88 101 -168 111 -228 5 -34 13 -45 32 -53 32 -12 34 -10 41 46 4 36
1 50 -15 68 -11 12 -39 56 -62 97 -58 104 -147 217 -201 256 -67 49 -210 72
-290 48z m106 -1181 c8 -21 19 -47 24 -58 4 -11 24 -56 43 -100 19 -44 40 -98
47 -120 7 -22 25 -67 40 -100 103 -220 184 -379 208 -408 18 -21 -50 -27 -243
-21 -88 3 -167 5 -175 5 -8 0 -78 -1 -155 -1 -162 0 -255 8 -255 22 0 6 14 30
30 55 17 24 30 46 30 49 0 2 24 44 53 92 29 48 58 101 65 117 26 59 72 122
100 135 22 11 24 14 10 17 -22 6 -22 11 1 49 10 17 22 45 26 62 3 17 15 42 26
56 11 14 27 48 35 76 8 28 24 60 35 71 10 10 19 24 19 29 0 24 22 7 36 -27z"/>
<path d="M660 2120 c0 -5 5 -10 11 -10 5 0 7 5 4 10 -3 6 -8 10 -11 10 -2 0
-4 -4 -4 -10z"/>
<path d="M172 325 c0 -16 2 -22 5 -12 2 9 2 23 0 30 -3 6 -5 -1 -5 -18z"/>
</g>
</svg>
