<?xml version="1.0" standalone="no"?>
<!DOCTYPE svg PUBLIC "-//W3C//DTD SVG 20010904//EN"
 "http://www.w3.org/TR/2001/REC-SVG-20010904/DTD/svg10.dtd">
<svg version="1.0" xmlns="http://www.w3.org/2000/svg"
 width="124.000000pt" height="220.000000pt" viewBox="0 0 124.000000 220.000000"
 preserveAspectRatio="xMidYMid meet">
<metadata>
Created by potrace 1.16, written by Peter Selinger 2001-2019
</metadata>
<g transform="translate(0.000000,220.000000) scale(0.100000,-0.100000)"
fill="#000000" stroke="none">
<path d="M95 2090 c-6 -10 5 -43 22 -69 1 -2 8 0 15 6 8 5 61 6 133 2 66 -4
164 -8 218 -8 l97 -1 1 -252 c1 -139 3 -287 5 -328 7 -166 7 -274 1 -720 -5
-443 -10 -545 -27 -555 -8 -5 -281 -6 -390 -2 -36 2 -77 -2 -92 -7 -28 -11
-38 -26 -16 -26 6 0 19 -7 28 -15 14 -13 59 -16 277 -17 143 0 265 2 270 5 6
4 53 7 104 7 52 1 103 1 114 2 11 0 73 -2 138 -6 l117 -6 0 29 0 28 -127 7
c-71 3 -172 6 -226 5 -54 0 -101 2 -104 4 -4 4 -4 733 0 967 1 36 -3 246 -7
466 -7 334 -6 403 5 410 8 5 122 9 254 9 l240 1 3 25 c5 41 -15 49 -88 39 -80
-11 -919 -8 -941 3 -11 5 -20 4 -24 -3z"/>
<path d="M1160 2070 c0 -5 7 -10 15 -10 8 0 15 5 15 10 0 6 -7 10 -15 10 -8 0
-15 -4 -15 -10z"/>
<path d="M100 70 c0 -19 3 -21 12 -12 9 9 9 15 0 24 -9 9 -12 7 -12 -12z"/>
</g>
</svg>
