<?xml version="1.0" standalone="no"?>
<!DOCTYPE svg PUBLIC "-//W3C//DTD SVG 20010904//EN"
 "http://www.w3.org/TR/2001/REC-SVG-20010904/DTD/svg10.dtd">
<svg version="1.0" xmlns="http://www.w3.org/2000/svg"
 width="129.000000pt" height="222.000000pt" viewBox="0 0 129.000000 222.000000"
 preserveAspectRatio="xMidYMid meet">
<metadata>
Created by potrace 1.16, written by Peter Selinger 2001-2019
</metadata>
<g transform="translate(0.000000,222.000000) scale(0.100000,-0.100000)"
fill="#000000" stroke="none">
<path d="M532 2162 c-32 -6 -66 -16 -77 -22 -11 -5 -40 -15 -64 -23 -62 -20
-134 -86 -182 -168 -23 -38 -47 -73 -55 -77 -7 -4 -12 -14 -11 -22 4 -33 -15
-166 -26 -178 -8 -10 -7 -16 2 -21 12 -8 33 -165 24 -187 -3 -7 -1 -19 3 -26
6 -9 10 -5 14 12 6 25 7 25 24 -10 65 -127 153 -213 245 -241 42 -13 39 -29
-4 -29 -34 0 -93 -69 -110 -128 -11 -37 -30 -67 -63 -100 -25 -26 -54 -58 -64
-72 -11 -15 -18 -19 -18 -10 0 10 -3 11 -11 3 -21 -21 -30 -263 -15 -409 6
-58 5 -83 -3 -88 -17 -11 -13 -34 9 -46 16 -8 18 -8 14 4 -3 8 -1 17 5 21 6 3
14 -2 18 -12 9 -26 80 -103 128 -138 103 -77 273 -120 365 -93 124 37 164 55
208 92 66 54 212 221 212 242 0 4 13 28 29 53 27 43 56 163 44 184 -14 24 -30
0 -41 -64 -13 -74 -42 -126 -143 -254 -90 -115 -221 -193 -312 -186 -15 1 -38
-5 -50 -14 -27 -19 -56 -19 -82 -1 -11 7 -36 16 -55 20 -56 10 -198 83 -211
108 -6 13 -22 34 -35 48 -22 24 -38 66 -64 163 -15 57 -6 217 16 280 60 173
164 314 256 348 67 24 188 27 188 4 0 -8 4 -15 8 -15 7 0 9 45 3 82 -1 4 -9 6
-18 6 -45 -2 -146 23 -207 51 -103 47 -173 122 -219 239 -34 83 -38 104 -38
185 -1 106 21 187 75 272 37 57 105 120 139 128 12 3 54 15 92 26 91 27 131
26 218 -3 131 -44 251 -133 312 -230 10 -17 22 -33 26 -36 16 -11 69 -124 69
-146 0 -26 34 -51 45 -34 30 48 -136 317 -238 385 -69 47 -263 141 -290 141
-16 -1 -54 -7 -85 -14z"/>
<path d="M1151 484 c0 -11 3 -14 6 -6 3 7 2 16 -1 19 -3 4 -6 -2 -5 -13z"/>
<path d="M545 170 c3 -5 14 -10 23 -10 15 0 15 2 2 10 -20 13 -33 13 -25 0z"/>
<path d="M928 173 c7 -3 16 -2 19 1 4 3 -2 6 -13 5 -11 0 -14 -3 -6 -6z"/>
</g>
</svg>
