<?xml version="1.0" standalone="no"?>
<!DOCTYPE svg PUBLIC "-//W3C//DTD SVG 20010904//EN"
 "http://www.w3.org/TR/2001/REC-SVG-20010904/DTD/svg10.dtd">
<svg version="1.0" xmlns="http://www.w3.org/2000/svg"
 width="120.000000pt" height="218.000000pt" viewBox="0 0 120.000000 218.000000"
 preserveAspectRatio="xMidYMid meet">
<metadata>
Created by potrace 1.16, written by Peter Selinger 2001-2019
</metadata>
<g transform="translate(0.000000,218.000000) scale(0.100000,-0.100000)"
fill="#000000" stroke="none">
<path d="M588 2124 c-14 -14 -45 -17 -185 -20 -284 -5 -341 -16 -310 -58 12
-16 18 -16 53 -6 25 7 105 10 224 8 l185 -3 2 -340 c1 -187 6 -387 12 -444 10
-107 5 -144 -23 -154 -9 -4 -16 -16 -16 -29 0 -12 -25 -74 -56 -138 -159 -329
-179 -372 -222 -476 -17 -39 -41 -89 -55 -111 -14 -22 -32 -59 -40 -84 -8 -25
-23 -48 -36 -54 -11 -5 -21 -17 -21 -27 0 -9 -12 -28 -27 -42 -23 -22 -25 -27
-14 -53 6 -16 20 -34 31 -41 18 -11 20 -9 20 22 0 25 6 38 24 49 15 10 50 69
89 149 35 73 114 234 175 358 60 124 123 254 139 290 48 110 46 108 77 75 14
-15 26 -32 26 -37 0 -5 11 -33 24 -61 47 -98 86 -195 86 -212 0 -18 67 -172
85 -195 7 -8 33 -54 59 -101 25 -48 59 -102 74 -122 16 -19 39 -57 53 -83 13
-27 34 -56 46 -66 13 -12 19 -25 16 -38 -4 -14 0 -20 11 -20 12 0 15 6 10 25
-4 16 -2 25 6 25 8 0 10 9 7 27 -4 16 -9 43 -13 60 -3 18 -12 33 -20 33 -14 0
-73 75 -113 145 -86 147 -124 235 -101 235 5 0 10 5 10 10 0 6 -8 10 -19 10
-19 0 -41 42 -75 143 -9 27 -39 99 -67 160 -28 62 -57 128 -65 148 -22 60 -35
316 -32 649 l3 315 150 -4 c83 -2 192 -6 244 -10 109 -8 139 3 108 37 -16 17
-27 19 -76 15 -32 -3 -134 0 -227 6 -143 11 -172 15 -190 32 -25 23 -26 23
-46 3z"/>
<path d="M112 975 c0 -16 2 -22 5 -12 2 9 2 23 0 30 -3 6 -5 -1 -5 -18z"/>
<path d="M595 971 c-3 -5 -1 -12 5 -16 5 -3 10 1 10 9 0 18 -6 21 -15 7z"/>
</g>
</svg>
