<?xml version="1.0" standalone="no"?>
<!DOCTYPE svg PUBLIC "-//W3C//DTD SVG 20010904//EN"
 "http://www.w3.org/TR/2001/REC-SVG-20010904/DTD/svg10.dtd">
<svg version="1.0" xmlns="http://www.w3.org/2000/svg"
 width="120.000000pt" height="218.000000pt" viewBox="0 0 120.000000 218.000000"
 preserveAspectRatio="xMidYMid meet">
<metadata>
Created by potrace 1.16, written by Peter Selinger 2001-2019
</metadata>
<g transform="translate(0.000000,218.000000) scale(0.100000,-0.100000)"
fill="#000000" stroke="none">
<path d="M133 2075 c-59 -14 -66 -24 -50 -70 9 -26 15 -34 19 -23 4 8 21 22
40 31 31 15 47 15 169 2 73 -8 160 -15 192 -15 l57 0 -4 -107 c-2 -60 0 -205
5 -323 5 -118 10 -289 10 -380 2 -157 0 -168 -24 -226 -40 -94 -94 -202 -138
-274 -22 -36 -44 -76 -51 -90 -6 -14 -29 -46 -50 -72 -21 -26 -38 -50 -38 -53
0 -12 -83 -178 -118 -237 -19 -32 -42 -58 -51 -58 -9 0 -24 -7 -34 -15 -18
-13 -18 -15 -1 -45 14 -23 24 -30 39 -25 98 29 219 35 385 18 55 -5 146 -5
215 -1 170 12 343 4 363 -16 14 -14 18 -13 39 10 29 31 29 31 -3 88 -14 26
-23 54 -20 62 4 11 2 15 -8 11 -14 -6 -22 6 -83 118 -6 11 -32 65 -57 120 -26
55 -51 107 -56 115 -44 70 -87 152 -119 227 -21 48 -53 113 -71 143 -52 87
-59 148 -66 597 l-7 402 34 5 c19 3 124 7 234 10 188 4 201 6 222 26 29 28 29
34 0 49 -18 9 -34 10 -63 3 -21 -6 -122 -13 -224 -16 -149 -5 -190 -3 -209 8
-20 11 -29 12 -45 1 -16 -10 -51 -10 -156 -3 -188 14 -229 14 -277 3z m529
-1177 c42 -82 128 -269 128 -278 0 -4 6 -13 14 -19 20 -17 211 -400 203 -408
-4 -3 -24 -1 -44 5 -28 9 -39 9 -44 0 -9 -14 -212 -17 -376 -5 -68 5 -114 4
-117 -2 -3 -5 -15 -7 -25 -4 -10 3 -29 -1 -41 -7 -19 -10 -27 -9 -49 7 -18 14
-33 17 -51 12 -36 -10 -70 -10 -70 0 0 12 147 278 172 311 60 80 136 215 172
303 9 22 24 41 36 44 11 3 20 13 20 22 0 9 5 33 11 54 13 46 23 41 61 -35z"/>
<path d="M1070 1980 c0 -5 5 -10 10 -10 6 0 10 5 10 10 0 6 -4 10 -10 10 -5 0
-10 -4 -10 -10z"/>
</g>
</svg>
