<?xml version="1.0" standalone="no"?>
<!DOCTYPE svg PUBLIC "-//W3C//DTD SVG 20010904//EN"
 "http://www.w3.org/TR/2001/REC-SVG-20010904/DTD/svg10.dtd">
<svg version="1.0" xmlns="http://www.w3.org/2000/svg"
 width="123.000000pt" height="219.000000pt" viewBox="0 0 123.000000 219.000000"
 preserveAspectRatio="xMidYMid meet">
<metadata>
Created by potrace 1.16, written by Peter Selinger 2001-2019
</metadata>
<g transform="translate(0.000000,219.000000) scale(0.100000,-0.100000)"
fill="#000000" stroke="none">
<path d="M535 2155 c-22 -7 -56 -14 -76 -14 -21 -1 -49 -11 -69 -26 -19 -14
-39 -25 -44 -25 -17 0 -89 -71 -124 -122 -49 -71 -100 -184 -112 -247 -6 -31
-14 -63 -18 -71 -12 -22 -6 -70 12 -112 9 -21 16 -43 16 -50 0 -50 64 -166
132 -239 70 -76 218 -139 328 -141 54 0 158 -26 203 -49 54 -29 124 -95 178
-169 81 -111 90 -135 91 -260 2 -99 0 -110 -35 -194 -52 -126 -113 -184 -245
-232 -94 -34 -245 -37 -315 -6 -136 60 -245 195 -292 362 -17 62 -24 76 -43
78 -18 3 -22 -1 -22 -25 0 -16 4 -33 9 -38 4 -6 14 -32 21 -60 40 -153 199
-340 326 -384 136 -47 322 -13 449 82 80 60 102 89 145 195 17 42 36 87 42 99
7 15 9 63 5 138 -5 98 -9 123 -31 165 -37 70 -126 193 -161 222 -118 98 -207
137 -305 133 -109 -4 -260 63 -328 144 -95 113 -126 209 -120 365 4 95 7 106
47 184 73 144 165 220 299 248 189 40 316 -12 437 -176 46 -63 111 -221 120
-293 3 -32 13 -70 21 -85 l14 -27 0 27 c0 15 4 29 9 32 26 17 5 162 -31 216
-9 14 -24 43 -33 64 -45 107 -166 236 -264 279 -56 25 -181 31 -236 12z"/>
<path d="M80 1525 c0 -5 5 -17 10 -25 5 -8 10 -10 10 -5 0 6 -5 17 -10 25 -5
8 -10 11 -10 5z"/>
<path d="M580 1270 c0 -5 5 -10 10 -10 6 0 10 5 10 10 0 6 -4 10 -10 10 -5 0
-10 -4 -10 -10z"/>
<path d="M90 445 c0 -8 5 -15 10 -15 6 0 10 7 10 15 0 8 -4 15 -10 15 -5 0
-10 -7 -10 -15z"/>
</g>
</svg>
