<?xml version="1.0" standalone="no"?>
<!DOCTYPE svg PUBLIC "-//W3C//DTD SVG 20010904//EN"
 "http://www.w3.org/TR/2001/REC-SVG-20010904/DTD/svg10.dtd">
<svg version="1.0" xmlns="http://www.w3.org/2000/svg"
 width="122.000000pt" height="218.000000pt" viewBox="0 0 122.000000 218.000000"
 preserveAspectRatio="xMidYMid meet">
<metadata>
Created by potrace 1.16, written by Peter Selinger 2001-2019
</metadata>
<g transform="translate(0.000000,218.000000) scale(0.100000,-0.100000)"
fill="#000000" stroke="none">
<path d="M577 2098 c-3 -10 -38 -13 -128 -14 -200 -2 -350 -11 -362 -23 -14
-14 4 -33 35 -38 13 -2 113 -3 223 -4 120 0 204 -4 211 -10 14 -11 13 -82 -5
-324 -5 -77 -8 -157 -6 -177 2 -21 5 -115 6 -210 l3 -173 -58 -13 c-31 -7 -76
-24 -99 -39 -69 -43 -212 -193 -247 -258 -18 -33 -36 -64 -40 -70 -5 -5 -11
-32 -15 -60 -4 -27 -11 -55 -16 -60 -4 -6 -4 -17 1 -25 6 -8 10 -55 10 -105 0
-99 8 -145 21 -124 6 10 13 7 28 -12 11 -13 20 -28 21 -33 0 -5 16 -28 35 -51
54 -66 201 -136 319 -151 54 -6 103 -8 121 -3 16 5 43 9 60 9 78 1 265 132
343 240 17 25 38 45 45 45 8 0 14 24 18 71 4 39 10 84 13 101 6 26 4 32 -13
38 -31 9 -41 -2 -41 -46 0 -56 -33 -144 -71 -187 -64 -74 -185 -175 -239 -199
-47 -21 -70 -24 -158 -24 -117 1 -131 3 -223 37 -122 45 -217 172 -227 303 -6
87 19 213 54 276 34 61 173 201 234 236 65 37 136 55 155 39 12 -10 15 -10 15
3 0 8 6 20 14 26 11 9 12 20 5 44 -16 61 5 864 23 883 5 4 101 9 214 11 200 3
206 3 211 -17 8 -30 20 -24 27 12 12 61 3 63 -248 60 -190 -2 -226 0 -239 13
-19 18 -24 19 -30 3z"/>
<path d="M111 1364 c0 -11 3 -14 6 -6 3 7 2 16 -1 19 -3 4 -6 -2 -5 -13z"/>
<path d="M112 975 c0 -16 2 -22 5 -12 2 9 2 23 0 30 -3 6 -5 -1 -5 -18z"/>
<path d="M102 885 c0 -16 2 -22 5 -12 2 9 2 23 0 30 -3 6 -5 -1 -5 -18z"/>
<path d="M100 789 c0 -11 4 -18 10 -14 5 3 7 12 3 20 -7 21 -13 19 -13 -6z"/>
</g>
</svg>
