<?xml version="1.0" standalone="no"?>
<!DOCTYPE svg PUBLIC "-//W3C//DTD SVG 20010904//EN"
 "http://www.w3.org/TR/2001/REC-SVG-20010904/DTD/svg10.dtd">
<svg version="1.0" xmlns="http://www.w3.org/2000/svg"
 width="126.000000pt" height="222.000000pt" viewBox="0 0 126.000000 222.000000"
 preserveAspectRatio="xMidYMid meet">
<metadata>
Created by potrace 1.16, written by Peter Selinger 2001-2019
</metadata>
<g transform="translate(0.000000,222.000000) scale(0.100000,-0.100000)"
fill="#000000" stroke="none">
<path d="M535 2175 c-27 -7 -90 -35 -140 -62 -76 -42 -98 -60 -143 -119 -98
-128 -145 -247 -147 -377 -1 -78 2 -95 27 -147 15 -33 28 -65 28 -73 0 -40
140 -195 201 -223 22 -9 39 -20 39 -24 0 -6 -66 -53 -132 -93 -17 -11 -48 -58
-89 -139 l-62 -123 -1 -126 c-1 -119 0 -127 25 -165 14 -21 35 -59 47 -84 47
-97 190 -240 240 -240 10 0 45 -9 78 -19 62 -21 119 -28 144 -18 8 3 31 8 50
10 180 24 305 122 393 307 l40 85 -6 125 c-6 122 -7 127 -47 204 -23 44 -52
92 -65 108 -13 15 -25 31 -27 35 -5 13 -124 113 -133 113 -4 0 -29 13 -54 29
-54 34 -117 44 -269 42 -124 -1 -154 11 -236 95 -94 96 -129 192 -130 354 -1
99 1 109 34 180 66 144 123 208 235 265 144 73 276 63 409 -30 149 -105 193
-176 222 -357 6 -36 26 -54 46 -42 10 6 7 71 -8 168 -8 48 -50 112 -121 183
-48 48 -78 71 -162 125 -20 13 -217 53 -233 47 -2 0 -25 -6 -53 -14z m210
-1042 c124 -65 239 -172 290 -273 76 -151 50 -383 -58 -515 -61 -75 -101 -102
-189 -130 -165 -52 -344 -19 -446 84 -56 56 -127 159 -157 226 -54 122 -41
261 38 409 34 65 53 87 102 123 78 56 137 84 199 93 71 10 185 1 221 -17z"/>
<path d="M115 957 c-4 -10 -5 -21 -1 -24 10 -10 18 4 13 24 -4 17 -4 17 -12 0z"/>
</g>
</svg>
