<?xml version="1.0" standalone="no"?>
<!DOCTYPE svg PUBLIC "-//W3C//DTD SVG 20010904//EN"
 "http://www.w3.org/TR/2001/REC-SVG-20010904/DTD/svg10.dtd">
<svg version="1.0" xmlns="http://www.w3.org/2000/svg"
 width="120.000000pt" height="218.000000pt" viewBox="0 0 120.000000 218.000000"
 preserveAspectRatio="xMidYMid meet">
<metadata>
Created by potrace 1.16, written by Peter Selinger 2001-2019
</metadata>
<g transform="translate(0.000000,218.000000) scale(0.100000,-0.100000)"
fill="#000000" stroke="none">
<path d="M580 2140 c0 -5 5 -10 10 -10 6 0 10 5 10 10 0 6 -4 10 -10 10 -5 0
-10 -4 -10 -10z"/>
<path d="M978 2085 c-3 -3 -207 -7 -454 -8 l-449 -3 -3 -27 c-6 -49 33 -92 40
-44 l3 22 220 -3 c121 -2 221 -5 224 -7 9 -9 7 -479 -2 -714 l-10 -244 23 -17
c21 -16 26 -16 46 -4 19 13 31 13 99 -1 96 -20 158 -49 224 -106 89 -77 137
-222 129 -386 -5 -101 -19 -134 -106 -256 -54 -75 -121 -137 -149 -137 -8 0
-41 -9 -74 -20 -55 -19 -69 -20 -142 -10 -104 15 -175 37 -207 64 -14 12 -41
34 -61 49 -86 62 -184 228 -195 329 -6 56 -8 59 -33 56 -25 -3 -26 -6 -24 -55
2 -47 16 -90 42 -133 5 -8 17 -35 27 -60 22 -53 156 -194 227 -238 28 -17 83
-38 125 -48 43 -10 84 -24 94 -31 11 -10 18 -11 23 -4 3 6 21 11 39 11 40 0
130 25 229 63 39 15 50 27 129 144 59 87 77 102 79 65 2 -52 20 47 35 185 12
115 13 161 5 177 -6 12 -15 45 -21 74 -23 124 -141 236 -317 301 -45 16 -103
31 -130 33 l-48 3 1 45 c1 25 2 228 3 452 1 311 4 409 14 415 6 4 50 9 97 10
47 1 141 3 209 5 93 2 125 0 128 -9 8 -22 23 -14 23 11 0 14 -10 32 -22 40
-21 15 -79 22 -90 11z"/>
<path d="M595 1000 c-3 -5 -1 -10 4 -10 6 0 11 5 11 10 0 6 -2 10 -4 10 -3 0
-8 -4 -11 -10z"/>
</g>
</svg>
