<?xml version="1.0" standalone="no"?>
<!DOCTYPE svg PUBLIC "-//W3C//DTD SVG 20010904//EN"
 "http://www.w3.org/TR/2001/REC-SVG-20010904/DTD/svg10.dtd">
<svg version="1.0" xmlns="http://www.w3.org/2000/svg"
 width="135.000000pt" height="219.000000pt" viewBox="0 0 135.000000 219.000000"
 preserveAspectRatio="xMidYMid meet">
<metadata>
Created by potrace 1.16, written by Peter Selinger 2001-2019
</metadata>
<g transform="translate(0.000000,219.000000) scale(0.100000,-0.100000)"
fill="#000000" stroke="none">
<path d="M655 2158 c-22 -4 -57 -7 -77 -7 -84 -2 -368 -223 -384 -301 -3 -14
-12 -43 -19 -65 -20 -57 -28 -163 -16 -210 44 -171 60 -201 133 -240 15 -8 57
-38 94 -65 37 -28 75 -50 85 -50 10 0 36 -6 56 -14 21 -7 58 -19 83 -26 41
-12 43 -14 20 -20 -42 -12 -180 -79 -180 -88 0 -4 -15 -16 -32 -26 -42 -25
-128 -107 -128 -124 0 -7 -15 -34 -33 -60 -22 -30 -42 -78 -55 -132 -20 -76
-21 -96 -13 -182 6 -59 16 -106 25 -120 9 -12 16 -30 16 -39 0 -9 26 -43 59
-75 64 -65 170 -125 262 -148 67 -18 204 -24 274 -12 76 13 245 100 298 155
100 102 119 129 153 228 36 104 40 138 24 224 -11 62 -71 219 -83 219 -8 0
-70 46 -110 82 -11 9 -49 29 -86 43 -36 15 -73 33 -83 42 -9 8 -54 20 -100 27
-45 7 -96 18 -111 25 -16 6 -42 11 -58 11 -40 0 -156 33 -205 58 -21 11 -77
49 -123 84 -76 56 -88 69 -109 123 -35 85 -37 229 -4 334 21 65 32 81 92 142
38 38 74 69 80 69 6 0 26 11 43 24 58 43 117 67 182 73 61 6 63 5 68 -18 l4
-24 2 24 c1 23 3 24 56 17 151 -17 350 -140 407 -250 19 -37 40 -132 42 -191
1 -21 7 -31 20 -33 36 -7 38 13 10 129 -26 111 -28 115 -83 172 -70 74 -155
133 -246 170 -86 35 -196 55 -250 45z m270 -1059 c23 -10 54 -21 70 -25 78
-18 210 -134 222 -194 3 -19 12 -39 19 -45 14 -11 34 -109 34 -170 0 -22 -6
-49 -14 -60 -7 -11 -19 -38 -26 -60 -21 -68 -71 -146 -131 -205 -45 -45 -81
-67 -166 -106 l-108 -49 -120 1 c-136 1 -194 15 -290 68 -61 35 -121 91 -146
138 -40 74 -52 292 -21 362 11 23 24 52 30 66 54 119 115 178 268 260 49 26
68 31 116 29 32 -1 61 1 65 5 14 14 157 3 198 -15z"/>
<path d="M698 676 c-10 -7 -18 -20 -18 -29 0 -18 41 -33 65 -23 18 7 20 37 3
54 -15 15 -29 15 -50 -2z"/>
</g>
</svg>
