<?xml version="1.0" standalone="no"?>
<!DOCTYPE svg PUBLIC "-//W3C//DTD SVG 20010904//EN"
 "http://www.w3.org/TR/2001/REC-SVG-20010904/DTD/svg10.dtd">
<svg version="1.0" xmlns="http://www.w3.org/2000/svg"
 width="118.000000pt" height="212.000000pt" viewBox="0 0 118.000000 212.000000"
 preserveAspectRatio="xMidYMid meet">
<metadata>
Created by potrace 1.16, written by Peter Selinger 2001-2019
</metadata>
<g transform="translate(0.000000,212.000000) scale(0.100000,-0.100000)"
fill="#000000" stroke="none">
<path d="M559 2050 c-11 -6 -317 -20 -451 -21 -33 0 -52 -21 -43 -50 7 -20 11
-21 59 -14 48 7 385 18 386 12 1 -1 3 -94 5 -207 3 -113 9 -241 15 -285 5 -44
11 -150 13 -237 l3 -156 -31 -6 c-113 -19 -167 -42 -220 -94 -120 -116 -199
-251 -213 -363 -7 -59 3 -230 18 -296 0 -1 6 0 13 2 6 3 23 -12 37 -32 38 -57
109 -135 156 -170 45 -35 119 -59 222 -73 86 -11 253 12 289 40 14 11 32 20
39 20 17 0 149 137 185 191 14 21 28 36 32 33 3 -3 10 12 16 35 6 23 16 58 21
80 20 77 6 281 -20 281 -4 0 -14 23 -20 51 -7 29 -22 63 -34 77 -62 75 -91
103 -119 118 -123 63 -149 73 -220 83 -43 6 -80 11 -81 11 -9 0 -17 146 -22
390 -2 151 -6 295 -8 320 -2 25 -1 79 3 120 l6 75 140 1 c77 1 179 -1 228 -4
83 -4 87 -6 87 -28 0 -36 14 -29 27 15 16 50 -1 95 -32 85 -11 -3 -31 -5 -45
-4 -85 6 -429 7 -441 0z m174 -1045 c12 -8 28 -15 36 -15 28 0 137 -59 169
-91 40 -41 89 -127 108 -188 20 -67 18 -177 -6 -245 -32 -94 -96 -199 -147
-245 -79 -68 -140 -91 -272 -100 -182 -12 -263 17 -365 132 -182 204 -177 419
14 644 69 82 83 90 190 121 51 15 247 5 273 -13z"/>
<path d="M580 996 c0 -9 5 -16 10 -16 6 0 10 4 10 9 0 6 -4 13 -10 16 -5 3
-10 -1 -10 -9z"/>
<path d="M103 285 c0 -22 2 -30 4 -17 2 12 2 30 0 40 -3 9 -5 -1 -4 -23z"/>
</g>
</svg>
