<?xml version="1.0" standalone="no"?>
<!DOCTYPE svg PUBLIC "-//W3C//DTD SVG 20010904//EN"
 "http://www.w3.org/TR/2001/REC-SVG-20010904/DTD/svg10.dtd">
<svg version="1.0" xmlns="http://www.w3.org/2000/svg"
 width="129.000000pt" height="231.000000pt" viewBox="0 0 129.000000 231.000000"
 preserveAspectRatio="xMidYMid meet">
<metadata>
Created by potrace 1.16, written by Peter Selinger 2001-2019
</metadata>
<g transform="translate(0.000000,231.000000) scale(0.100000,-0.100000)"
fill="#000000" stroke="none">
<path d="M473 2223 c-13 -2 -23 -8 -23 -13 0 -5 -14 -11 -31 -15 -57 -13 -171
-102 -225 -177 -37 -53 -59 -62 -52 -23 3 14 1 22 -4 19 -6 -4 -8 -17 -5 -30
2 -13 -4 -60 -14 -106 -20 -93 -23 -146 -9 -168 16 -25 28 0 40 80 13 84 35
135 83 196 71 87 132 129 241 164 55 18 208 7 283 -21 32 -11 73 -25 92 -31
18 -5 39 -14 45 -19 6 -5 40 -28 76 -51 53 -35 72 -55 105 -113 l40 -70 0
-140 c0 -129 -2 -144 -25 -190 -32 -63 -130 -162 -197 -198 -63 -34 -187 -77
-221 -77 -13 0 -35 -9 -49 -19 l-24 -20 3 -233 c5 -408 0 -742 -12 -773 -9
-25 -8 -31 6 -42 12 -9 18 -27 19 -53 0 -22 3 -40 7 -40 10 0 19 35 13 52 -6
16 19 48 38 48 6 0 3 6 -8 13 -17 13 -17 24 -5 226 10 170 10 236 0 334 -7 67
-10 156 -7 197 4 41 6 111 7 155 0 91 -5 86 120 129 150 53 223 103 307 213
56 74 71 87 58 56 -5 -14 -4 -15 6 -6 9 9 14 71 17 206 5 196 -2 243 -31 231
-8 -3 -20 10 -30 31 -61 128 -264 238 -491 265 -55 7 -104 13 -110 15 -6 1
-21 0 -33 -2z"/>
<path d="M890 1200 c0 -5 7 -10 16 -10 8 0 12 5 9 10 -3 6 -10 10 -16 10 -5 0
-9 -4 -9 -10z"/>
<path d="M540 170 c0 -5 5 -10 11 -10 5 0 7 5 4 10 -3 6 -8 10 -11 10 -2 0 -4
-4 -4 -10z"/>
</g>
</svg>
