<?xml version="1.0" standalone="no"?>
<!DOCTYPE svg PUBLIC "-//W3C//DTD SVG 20010904//EN"
 "http://www.w3.org/TR/2001/REC-SVG-20010904/DTD/svg10.dtd">
<svg version="1.0" xmlns="http://www.w3.org/2000/svg"
 width="118.000000pt" height="222.000000pt" viewBox="0 0 118.000000 222.000000"
 preserveAspectRatio="xMidYMid meet">
<metadata>
Created by potrace 1.16, written by Peter Selinger 2001-2019
</metadata>
<g transform="translate(0.000000,222.000000) scale(0.100000,-0.100000)"
fill="#000000" stroke="none">
<path d="M320 2130 c-192 -25 -235 -35 -237 -55 -2 -11 4 -28 11 -38 13 -17
17 -17 38 -4 53 34 428 46 428 14 0 -7 1 -214 2 -461 3 -391 1 -450 -12 -457
-8 -4 -47 -13 -87 -19 -84 -14 -177 -69 -219 -129 -127 -183 -153 -244 -161
-371 -3 -68 0 -100 17 -160 12 -41 25 -97 29 -125 5 -27 9 -40 10 -27 2 32 18
27 45 -15 29 -46 102 -120 136 -138 63 -33 156 -55 230 -55 42 0 80 4 86 10 5
5 23 12 39 14 55 7 110 26 151 54 23 15 55 34 71 43 29 16 129 147 182 240 17
29 31 45 34 37 11 -31 18 102 8 157 -6 32 -11 85 -11 117 0 32 -4 58 -10 58
-5 0 -10 7 -10 15 0 46 -87 151 -165 200 -17 10 -43 31 -60 45 -38 34 -114 60
-176 60 -26 0 -51 4 -54 10 -3 5 -8 208 -11 451 -4 327 -2 445 7 455 9 11 47
13 205 9 110 -2 203 -9 214 -15 26 -14 40 -5 40 25 0 54 -6 55 -335 54 -166 0
-318 2 -336 4 -19 3 -63 1 -99 -3z m424 -1059 c65 -23 125 -63 204 -135 98
-92 128 -183 112 -342 -7 -70 -15 -97 -40 -136 -16 -27 -30 -51 -30 -54 0 -2
-17 -29 -37 -60 -31 -46 -53 -65 -127 -108 -132 -76 -144 -80 -275 -80 -107 1
-120 3 -170 28 -70 37 -125 87 -169 156 -55 87 -62 112 -67 239 -4 130 -6 124
86 290 24 45 102 129 144 157 21 14 145 40 229 49 21 2 41 6 44 9 10 11 42 6
96 -13z"/>
<path d="M565 665 c-27 -26 -30 -41 -15 -79 7 -19 17 -26 35 -26 16 0 25 -6
25 -15 0 -8 5 -15 10 -15 6 0 10 10 10 22 0 12 5 36 12 54 9 27 9 38 -2 59
-17 32 -44 32 -75 0z"/>
</g>
</svg>
