<?xml version="1.0" standalone="no"?>
<!DOCTYPE svg PUBLIC "-//W3C//DTD SVG 20010904//EN"
 "http://www.w3.org/TR/2001/REC-SVG-20010904/DTD/svg10.dtd">
<svg version="1.0" xmlns="http://www.w3.org/2000/svg"
 width="141.000000pt" height="240.000000pt" viewBox="0 0 141.000000 240.000000"
 preserveAspectRatio="xMidYMid meet">
<metadata>
Created by potrace 1.16, written by Peter Selinger 2001-2019
</metadata>
<g transform="translate(0.000000,240.000000) scale(0.100000,-0.100000)"
fill="#000000" stroke="none">
<path d="M1038 2293 c7 -3 16 -2 19 1 4 3 -2 6 -13 5 -11 0 -14 -3 -6 -6z"/>
<path d="M675 2283 c-198 -48 -355 -148 -400 -257 -9 -20 -19 -36 -24 -36 -5
0 -11 -21 -14 -47 -16 -123 -21 -149 -35 -159 -13 -9 -13 -12 2 -17 9 -4 16
-15 16 -26 0 -12 5 -18 13 -16 17 7 37 54 37 88 0 43 28 144 56 204 14 29 46
71 72 94 98 87 330 163 348 114 6 -14 8 -14 18 1 11 14 22 12 112 -21 128 -48
128 -48 199 -110 107 -93 145 -199 125 -344 -6 -45 -18 -98 -26 -118 -43 -107
-115 -225 -161 -264 -29 -24 -150 -67 -258 -92 -44 -10 -59 -18 -55 -28 9 -24
8 -379 -1 -494 -4 -60 -11 -195 -13 -298 -3 -104 -8 -193 -12 -198 -4 -7 -88
-9 -240 -6 -136 3 -236 1 -240 -4 -3 -5 0 -25 7 -43 10 -28 15 -32 23 -21 8
10 22 12 51 7 52 -9 664 -7 828 3 94 6 127 5 127 -3 0 -7 7 -12 15 -12 8 0 15
7 15 15 0 9 9 15 23 15 32 0 67 11 67 21 0 21 -94 30 -327 29 -136 0 -257 -2
-268 -3 -17 -2 -20 3 -17 33 1 19 4 109 7 200 6 213 10 250 26 262 11 7 11 11
2 14 -9 4 -11 60 -7 237 l5 232 90 17 c50 9 96 15 104 12 7 -3 21 6 30 20 9
14 39 41 65 60 40 29 59 55 116 163 38 70 75 146 82 168 16 48 12 242 -5 253
-6 4 -17 27 -24 52 -10 35 -32 63 -95 126 -75 73 -89 83 -156 104 -40 13 -77
27 -83 31 -5 4 -39 16 -74 28 -62 20 -103 24 -146 14z"/>
<path d="M236 2075 c-3 -8 -1 -25 4 -37 8 -20 9 -18 9 15 1 39 -3 47 -13 22z"/>
<path d="M1235 300 c-3 -5 -1 -10 4 -10 6 0 11 5 11 10 0 6 -2 10 -4 10 -3 0
-8 -4 -11 -10z"/>
</g>
</svg>
