<?xml version="1.0" standalone="no"?>
<!DOCTYPE svg PUBLIC "-//W3C//DTD SVG 20010904//EN"
 "http://www.w3.org/TR/2001/REC-SVG-20010904/DTD/svg10.dtd">
<svg version="1.0" xmlns="http://www.w3.org/2000/svg"
 width="129.000000pt" height="234.000000pt" viewBox="0 0 129.000000 234.000000"
 preserveAspectRatio="xMidYMid meet">
<metadata>
Created by potrace 1.16, written by Peter Selinger 2001-2019
</metadata>
<g transform="translate(0.000000,234.000000) scale(0.100000,-0.100000)"
fill="#000000" stroke="none">
<path d="M748 2248 c9 -9 15 -9 24 0 9 9 7 12 -12 12 -19 0 -21 -3 -12 -12z"/>
<path d="M618 2239 c-2 -7 -28 -13 -58 -14 -129 -5 -197 -33 -291 -122 -44
-42 -76 -83 -94 -121 -15 -31 -33 -64 -40 -72 -30 -35 -42 -230 -14 -230 5 0
9 7 9 15 0 7 8 18 17 23 10 6 18 26 20 53 3 24 20 84 39 133 38 97 86 158 172
218 92 64 337 75 497 23 44 -14 91 -36 105 -48 71 -63 131 -181 144 -283 5
-44 4 -53 -11 -59 -17 -6 -17 -7 0 -16 16 -9 17 -20 11 -87 -9 -106 -57 -208
-123 -256 -25 -19 -57 -44 -71 -54 -34 -27 -189 -82 -229 -82 -18 0 -42 -5
-53 -11 -11 -6 -41 -15 -67 -19 -38 -6 -42 -9 -23 -15 12 -4 22 -9 22 -11 0
-9 -119 -240 -167 -322 -29 -51 -60 -108 -68 -127 -7 -19 -19 -35 -24 -35 -6
0 -11 -9 -11 -20 0 -11 -12 -49 -26 -83 -36 -86 -154 -321 -164 -327 -5 -3
-12 -19 -16 -35 -4 -17 -13 -38 -19 -48 -10 -15 -10 -24 2 -48 17 -33 33 -38
33 -9 0 11 9 25 20 32 11 7 20 17 20 22 0 5 17 45 39 90 21 44 48 104 60 131
91 206 154 338 216 450 24 44 60 113 80 152 20 40 40 73 45 73 6 0 10 6 10 14
0 7 9 16 19 19 22 5 51 -48 96 -178 15 -44 43 -114 62 -155 20 -41 53 -113 75
-160 52 -112 68 -143 110 -217 41 -71 88 -183 88 -210 0 -10 14 -27 30 -36 17
-10 30 -22 30 -28 0 -5 5 -9 10 -9 6 0 10 7 10 15 0 8 6 25 13 36 10 17 10 23
0 26 -7 3 -13 18 -13 33 0 17 -8 34 -18 42 -19 13 -34 38 -73 117 -11 24 -34
64 -50 89 -15 25 -36 68 -45 96 -9 28 -20 56 -24 61 -27 36 -117 232 -160 350
-28 77 -59 154 -68 172 -9 18 -14 35 -11 37 4 5 47 9 136 15 7 1 12 6 10 13
-1 6 12 16 28 21 59 18 131 58 190 104 33 27 67 49 75 51 22 5 34 31 36 77 1
22 10 82 19 133 16 88 16 99 0 180 -10 48 -20 101 -23 117 -2 17 -17 44 -31
62 -14 17 -46 59 -70 92 -24 34 -56 68 -71 76 -65 34 -185 65 -270 72 -30 2
-56 8 -58 13 -5 14 -40 12 -44 -1z"/>
<path d="M126 1995 c-9 -26 -7 -32 5 -12 6 10 9 21 6 23 -2 3 -7 -2 -11 -11z"/>
<path d="M120 1950 c0 -5 5 -10 11 -10 5 0 7 5 4 10 -3 6 -8 10 -11 10 -2 0
-4 -4 -4 -10z"/>
<path d="M633 1025 c0 -38 2 -53 4 -32 2 20 2 52 0 70 -2 17 -4 1 -4 -38z"/>
<path d="M260 710 c0 -5 5 -10 11 -10 5 0 7 5 4 10 -3 6 -8 10 -11 10 -2 0 -4
-4 -4 -10z"/>
</g>
</svg>
