<?xml version="1.0" standalone="no"?>
<!DOCTYPE svg PUBLIC "-//W3C//DTD SVG 20010904//EN"
 "http://www.w3.org/TR/2001/REC-SVG-20010904/DTD/svg10.dtd">
<svg version="1.0" xmlns="http://www.w3.org/2000/svg"
 width="126.000000pt" height="218.000000pt" viewBox="0 0 126.000000 218.000000"
 preserveAspectRatio="xMidYMid meet">
<metadata>
Created by potrace 1.16, written by Peter Selinger 2001-2019
</metadata>
<g transform="translate(0.000000,218.000000) scale(0.100000,-0.100000)"
fill="#000000" stroke="none">
<path d="M96 2113 c-12 -12 -6 -38 18 -83 13 -25 40 -93 59 -151 20 -59 50
-135 67 -170 19 -39 29 -73 25 -86 -3 -15 1 -26 14 -35 18 -13 107 -179 164
-308 13 -30 36 -73 50 -94 28 -41 35 -62 16 -50 -8 4 -7 0 1 -15 6 -12 18 -25
26 -28 15 -6 15 -49 -3 -498 -15 -381 2 -514 63 -491 11 4 14 12 8 24 -14 32
-21 197 -12 302 8 90 11 197 17 587 1 53 4 63 22 68 11 4 18 9 16 12 -6 6 36
126 58 165 8 14 15 34 15 44 0 21 126 280 140 289 6 3 10 17 10 30 0 23 70
173 95 205 7 8 34 55 59 105 48 90 65 112 77 94 3 -5 10 1 16 14 14 29 -3 70
-30 75 -29 6 -56 -26 -100 -118 -23 -47 -63 -123 -90 -170 -27 -47 -67 -123
-88 -170 -22 -47 -51 -108 -64 -135 -14 -28 -25 -54 -25 -59 0 -4 -8 -20 -19
-34 -10 -15 -22 -43 -26 -62 -4 -19 -19 -58 -33 -86 -19 -40 -29 -50 -43 -47
-13 4 -19 0 -19 -11 0 -9 -8 -16 -20 -16 -14 0 -29 22 -61 88 -23 48 -46 94
-51 102 -24 43 -88 176 -88 186 0 6 -26 62 -58 125 -32 63 -64 137 -71 164
-20 79 -119 254 -135 238z"/>
<path d="M603 1465 c0 -22 2 -30 4 -17 2 12 2 30 0 40 -3 9 -5 -1 -4 -23z"/>
</g>
</svg>
