<?xml version="1.0" standalone="no"?>
<!DOCTYPE svg PUBLIC "-//W3C//DTD SVG 20010904//EN"
 "http://www.w3.org/TR/2001/REC-SVG-20010904/DTD/svg10.dtd">
<svg version="1.0" xmlns="http://www.w3.org/2000/svg"
 width="138.000000pt" height="231.000000pt" viewBox="0 0 138.000000 231.000000"
 preserveAspectRatio="xMidYMid meet">
<metadata>
Created by potrace 1.16, written by Peter Selinger 2001-2019
</metadata>
<g transform="translate(0.000000,231.000000) scale(0.100000,-0.100000)"
fill="#000000" stroke="none">
<path d="M143 2167 c-22 -11 -22 -11 -2 -32 50 -52 85 -103 146 -212 91 -165
126 -245 112 -254 -8 -4 -5 -11 9 -18 36 -19 222 -423 222 -482 0 -10 4 -20 9
-23 10 -7 7 -432 -4 -458 -3 -9 0 -27 8 -40 10 -17 14 -68 16 -188 2 -165 2
-165 -23 -187 -20 -18 -43 -23 -128 -29 -171 -11 -321 -6 -335 12 -10 13 -13
9 -21 -28 -5 -23 -6 -47 -2 -51 4 -4 111 -10 239 -12 127 -3 240 -9 249 -14
10 -5 23 -7 29 -3 12 7 305 6 407 -1 32 -3 61 -9 65 -14 3 -6 17 -13 31 -16
24 -6 25 -3 27 37 l2 43 -73 6 c-41 4 -86 11 -101 17 -24 9 -106 11 -245 7
l-45 -2 -6 56 c-3 31 -9 61 -12 66 -4 6 -2 25 4 42 7 21 8 53 1 103 -7 54 -6
85 4 118 15 52 22 175 11 186 -13 13 -8 164 6 164 8 0 9 2 1 8 -11 7 -14 19
-32 151 l-9 65 80 155 c81 158 134 243 181 294 14 15 26 34 26 41 0 20 59 144
91 191 15 22 39 62 55 90 15 27 33 56 41 63 12 12 18 34 14 55 -1 5 6 21 16
37 16 28 16 30 -1 49 -17 19 -18 19 -40 -3 -12 -11 -21 -24 -19 -28 4 -9 -94
-196 -117 -223 -10 -11 -38 -63 -64 -115 -26 -52 -56 -106 -67 -120 -35 -45
-88 -128 -126 -197 -49 -92 -51 -96 -57 -116 -3 -9 -17 -22 -31 -27 -20 -8
-25 -15 -20 -30 3 -11 4 -20 1 -20 -6 0 -66 127 -66 140 0 5 -13 33 -29 62
-29 53 -57 108 -73 141 -6 12 -4 17 7 17 17 0 20 26 4 36 -6 3 -15 1 -19 -7
-6 -9 -16 5 -34 44 -34 77 -130 247 -183 325 -24 35 -46 75 -50 90 -6 28 -30
52 -48 50 -5 0 -20 -5 -32 -11z"/>
<path d="M530 2140 c-12 -8 -10 -10 8 -10 13 0 20 4 17 10 -7 12 -6 12 -25 0z"/>
<path d="M671 1804 c0 -11 3 -14 6 -6 3 7 2 16 -1 19 -3 4 -6 -2 -5 -13z"/>
<path d="M1270 680 c0 -5 5 -10 10 -10 6 0 10 5 10 10 0 6 -4 10 -10 10 -5 0
-10 -4 -10 -10z"/>
<path d="M1230 190 c0 -5 5 -10 10 -10 6 0 10 5 10 10 0 6 -4 10 -10 10 -5 0
-10 -4 -10 -10z"/>
</g>
</svg>
