<?xml version="1.0" standalone="no"?>
<!DOCTYPE svg PUBLIC "-//W3C//DTD SVG 20010904//EN"
 "http://www.w3.org/TR/2001/REC-SVG-20010904/DTD/svg10.dtd">
<svg version="1.0" xmlns="http://www.w3.org/2000/svg"
 width="132.000000pt" height="234.000000pt" viewBox="0 0 132.000000 234.000000"
 preserveAspectRatio="xMidYMid meet">
<metadata>
Created by potrace 1.16, written by Peter Selinger 2001-2019
</metadata>
<g transform="translate(0.000000,234.000000) scale(0.100000,-0.100000)"
fill="#000000" stroke="none">
<path d="M660 2313 c-130 -21 -199 -38 -222 -54 -15 -10 -30 -19 -34 -19 -15
0 -117 -97 -151 -144 l-37 -51 -6 30 c-5 27 -6 28 -14 10 -4 -11 -12 -45 -16
-75 -4 -30 -14 -86 -23 -125 -9 -38 -17 -92 -19 -120 -3 -44 -1 -50 17 -50 12
0 21 -9 26 -25 l6 -25 8 28 c4 15 5 44 2 62 -9 53 29 223 60 270 46 70 116
129 184 156 127 51 213 68 248 50 16 -9 21 -9 21 0 0 17 46 5 121 -31 97 -46
228 -186 277 -295 8 -16 15 -58 17 -92 2 -34 6 -66 10 -72 9 -16 -15 -130 -38
-176 -11 -22 -56 -76 -101 -121 -67 -66 -98 -88 -179 -127 -106 -51 -117 -54
-117 -32 0 8 -4 15 -10 15 -5 0 -10 -9 -10 -20 0 -15 -7 -20 -27 -21 -57 -3
-58 -3 -55 -33 2 -15 -4 -43 -12 -60 -8 -17 -19 -42 -25 -56 -6 -14 -29 -54
-52 -90 -23 -36 -52 -93 -66 -128 -14 -34 -29 -65 -34 -68 -5 -3 -9 -13 -9
-23 0 -10 -9 -29 -19 -43 -11 -13 -27 -48 -37 -78 -9 -30 -21 -59 -25 -64 -5
-6 -9 -24 -9 -42 0 -17 -6 -37 -14 -43 -8 -7 -29 -56 -46 -109 -17 -53 -39
-104 -49 -112 -9 -8 -24 -34 -34 -57 -25 -64 -4 -140 27 -98 10 14 20 16 52
10 21 -4 103 -7 181 -6 78 1 169 -3 203 -9 33 -6 66 -7 73 -3 18 11 65 12 137
1 36 -6 127 -10 202 -9 120 1 138 -1 147 -17 9 -14 12 -14 20 -3 5 7 6 22 3
33 -2 11 1 30 8 44 11 20 11 27 -3 42 -10 10 -17 24 -17 31 0 7 -9 20 -20 29
-18 16 -120 237 -120 261 0 11 -45 109 -74 161 -8 14 -24 50 -36 80 -13 30
-29 69 -36 85 -26 61 -52 132 -79 214 -15 46 -36 90 -46 99 -21 18 -16 32 11
32 10 0 32 11 48 25 17 14 34 25 40 25 19 0 98 71 172 154 76 84 110 152 110
219 0 14 6 32 13 38 9 9 11 26 6 58 -9 59 -48 210 -62 236 -25 48 -160 206
-201 236 -25 18 -46 35 -46 39 0 4 -19 13 -42 20 -24 7 -54 16 -68 21 -37 12
-82 17 -110 12z m99 -1195 c12 -40 28 -86 36 -103 8 -16 26 -61 40 -99 14 -38
29 -74 34 -80 14 -18 171 -372 171 -386 0 -7 18 -53 40 -102 23 -50 39 -95 37
-102 -2 -6 3 -16 12 -23 14 -11 12 -12 -11 -13 -15 0 -29 4 -32 9 -3 4 -17 6
-31 4 -13 -3 -22 -9 -19 -14 9 -15 -13 -10 -26 6 -16 19 -34 19 -26 0 7 -18
-28 -20 -89 -4 -22 5 -179 12 -349 14 -170 2 -311 6 -313 8 -2 3 6 21 18 41
20 35 44 94 110 271 35 94 67 163 79 170 5 3 8 14 7 24 0 10 13 47 30 82 187
386 173 361 204 354 18 -4 29 -2 29 4 0 6 6 11 14 11 9 0 22 -27 35 -72z"/>
<path d="M701 994 c0 -11 3 -14 6 -6 3 7 2 16 -1 19 -3 4 -6 -2 -5 -13z"/>
<path d="M680 255 c0 -8 5 -15 10 -15 6 0 10 7 10 15 0 8 -4 15 -10 15 -5 0
-10 -7 -10 -15z"/>
<path d="M1145 2270 c4 -6 11 -8 16 -5 14 9 11 15 -7 15 -8 0 -12 -5 -9 -10z"/>
<path d="M1189 2018 c-2 -26 -1 -57 2 -70 6 -20 7 -21 9 -3 1 11 3 31 4 45 2
14 0 36 -4 50 -6 21 -8 17 -11 -22z"/>
<path d="M1050 1759 c0 -5 5 -7 10 -4 6 3 10 8 10 11 0 2 -4 4 -10 4 -5 0 -10
-5 -10 -11z"/>
<path d="M86 1751 c-4 -7 -5 -15 -2 -18 9 -9 19 4 14 18 -4 11 -6 11 -12 0z"/>
<path d="M100 210 c0 -5 5 -10 11 -10 5 0 7 5 4 10 -3 6 -8 10 -11 10 -2 0 -4
-4 -4 -10z"/>
</g>
</svg>
