<?xml version="1.0" standalone="no"?>
<!DOCTYPE svg PUBLIC "-//W3C//DTD SVG 20010904//EN"
 "http://www.w3.org/TR/2001/REC-SVG-20010904/DTD/svg10.dtd">
<svg version="1.0" xmlns="http://www.w3.org/2000/svg"
 width="120.000000pt" height="228.000000pt" viewBox="0 0 120.000000 228.000000"
 preserveAspectRatio="xMidYMid meet">
<metadata>
Created by potrace 1.16, written by Peter Selinger 2001-2019
</metadata>
<g transform="translate(0.000000,228.000000) scale(0.100000,-0.100000)"
fill="#000000" stroke="none">
<path d="M67 2173 c-9 -21 -7 -27 18 -47 24 -19 29 -30 27 -59 -3 -36 14 -59
27 -38 11 18 35 -16 60 -84 13 -33 29 -67 37 -76 7 -8 19 -31 26 -50 6 -19 21
-50 33 -69 12 -19 25 -46 29 -60 7 -23 46 -113 67 -153 6 -10 23 -52 39 -93
16 -41 41 -96 57 -122 15 -26 44 -83 64 -128 l36 -81 -44 -99 c-77 -170 -110
-237 -145 -289 -27 -41 -38 -49 -58 -47 -14 2 -21 0 -17 -5 5 -4 14 -8 20 -8
18 -1 8 -35 -24 -86 -16 -25 -29 -50 -29 -55 0 -5 -9 -20 -20 -34 -11 -14 -20
-30 -20 -37 0 -17 -95 -179 -120 -205 -31 -32 -39 -59 -31 -98 8 -41 31 -53
31 -15 0 14 8 38 19 53 51 73 93 146 138 237 46 92 107 198 131 228 10 12 45
75 90 162 11 22 35 72 52 112 25 55 38 72 56 76 19 3 28 -3 44 -28 11 -18 20
-35 20 -39 0 -3 25 -59 56 -124 31 -64 68 -142 82 -172 14 -30 54 -103 89
-162 35 -59 68 -117 73 -130 12 -28 49 -93 74 -131 18 -27 18 -27 -3 -27 -12
0 -21 -6 -21 -15 0 -13 4 -14 20 -5 25 13 38 6 50 -26 13 -33 24 -30 38 10 10
27 9 40 -3 70 -9 20 -13 41 -10 46 3 5 1 11 -5 15 -5 3 -10 1 -10 -5 0 -34
-56 48 -154 223 -36 65 -66 122 -66 125 0 10 -60 123 -81 153 -10 14 -27 50
-39 80 -11 30 -30 74 -42 99 -59 126 -69 155 -63 177 3 13 13 23 21 23 11 0
14 5 10 17 -4 9 8 46 28 87 95 198 146 305 160 339 10 25 21 37 35 37 17 0 19
5 15 33 -4 25 5 49 36 105 22 39 45 72 50 72 6 0 10 11 10 25 0 28 48 130 57
121 9 -9 47 46 51 73 2 14 12 34 23 44 21 20 23 26 11 44 -6 9 -17 10 -38 5
-16 -4 -209 -7 -429 -5 -338 2 -418 5 -513 21 l-114 19 -11 -24z m538 -72 c13
-27 25 -27 25 0 0 19 4 20 53 14 84 -10 168 -12 221 -4 40 7 124 -4 145 -18 7
-4 -21 -65 -70 -153 -36 -66 -46 -92 -42 -117 5 -30 -8 -54 -75 -138 -22 -28
-51 -88 -70 -142 -12 -34 -35 -87 -52 -118 -16 -30 -30 -59 -30 -64 0 -17 -71
-126 -81 -124 -5 2 -9 -2 -9 -9 0 -9 -3 -9 -12 0 -9 9 -10 15 -2 20 16 10 26
60 14 67 -6 4 -10 -6 -10 -24 0 -17 -4 -31 -9 -31 -9 0 -63 88 -89 145 -27 59
-92 219 -92 227 0 4 10 8 21 8 18 0 19 2 9 15 -7 8 -20 14 -29 13 -16 -3 -30
20 -75 124 -14 33 -21 60 -15 63 12 8 11 26 -2 22 -12 -2 -88 130 -89 156 0 9
-4 17 -9 17 -7 0 -31 51 -31 66 0 10 57 12 215 9 170 -3 181 -5 190 -24z"/>
<path d="M585 1670 c3 -5 8 -10 11 -10 2 0 4 5 4 10 0 6 -5 10 -11 10 -5 0 -7
-4 -4 -10z"/>
<path d="M570 681 l-25 -7 28 -6 c19 -4 27 -1 27 8 0 8 -1 14 -2 13 -2 -1 -14
-4 -28 -8z"/>
<path d="M990 680 c-13 -8 -12 -10 3 -10 9 0 17 5 17 10 0 12 -1 12 -20 0z"/>
</g>
</svg>
