<?xml version="1.0" standalone="no"?>
<!DOCTYPE svg PUBLIC "-//W3C//DTD SVG 20010904//EN"
 "http://www.w3.org/TR/2001/REC-SVG-20010904/DTD/svg10.dtd">
<svg version="1.0" xmlns="http://www.w3.org/2000/svg"
 width="135.000000pt" height="237.000000pt" viewBox="0 0 135.000000 237.000000"
 preserveAspectRatio="xMidYMid meet">
<metadata>
Created by potrace 1.16, written by Peter Selinger 2001-2019
</metadata>
<g transform="translate(0.000000,237.000000) scale(0.100000,-0.100000)"
fill="#000000" stroke="none">
<path d="M635 2293 c-16 -2 -68 -13 -113 -25 -65 -17 -88 -27 -100 -47 -10
-14 -35 -41 -56 -61 -54 -48 -119 -153 -147 -236 -13 -38 -27 -70 -31 -72 -4
-2 -8 -26 -8 -53 0 -27 -4 -49 -9 -49 -5 0 -4 -13 2 -29 l11 -30 15 22 c9 12
16 31 17 42 4 122 68 261 164 356 71 71 130 101 226 114 40 5 55 3 67 -9 11
-11 18 -13 23 -5 10 17 86 5 134 -20 22 -11 44 -21 49 -21 22 0 201 -170 221
-211 34 -66 53 -160 54 -269 1 -102 0 -107 -37 -183 -38 -77 -112 -165 -171
-201 -39 -25 -189 -67 -256 -73 -54 -4 -163 -49 -202 -82 -106 -90 -278 -287
-278 -318 0 -12 -3 -13 -14 -4 -33 27 -56 -244 -31 -347 9 -36 14 -73 12 -84
-4 -13 -1 -18 11 -16 11 2 23 -9 33 -29 8 -17 39 -60 68 -96 46 -57 64 -70
142 -106 49 -22 119 -45 156 -52 38 -6 76 -15 87 -21 12 -6 21 -6 25 0 3 5 44
19 91 31 47 12 96 30 110 38 42 27 174 167 196 209 71 129 86 154 93 150 8 -6
31 129 31 182 0 25 -4 32 -19 32 -15 0 -20 -10 -25 -60 -8 -65 -49 -174 -89
-235 -121 -184 -189 -246 -294 -271 -79 -19 -93 -18 -93 6 0 27 -18 25 -22 -2
-3 -21 -8 -23 -52 -20 -56 4 -200 54 -248 86 -42 28 -96 99 -139 184 -34 67
-34 68 -34 202 1 132 1 136 31 185 16 28 41 72 54 98 28 54 157 176 249 235
40 26 69 37 101 38 25 1 52 4 60 7 59 19 199 57 209 57 16 0 62 33 137 97 40
34 71 72 90 108 31 62 44 76 44 48 1 -16 2 -16 10 -2 11 19 15 290 5 334 -7
31 -9 36 -41 115 -20 48 -195 237 -264 285 -37 25 -194 86 -215 83 -5 0 -23
-3 -40 -5z"/>
<path d="M1280 1756 c0 -2 7 -7 16 -10 8 -3 12 -2 9 4 -6 10 -25 14 -25 6z"/>
<path d="M235 1740 c-3 -5 -1 -10 4 -10 6 0 11 5 11 10 0 6 -2 10 -4 10 -3 0
-8 -4 -11 -10z"/>
<path d="M1192 450 c0 -14 2 -19 5 -12 2 6 2 18 0 25 -3 6 -5 1 -5 -13z"/>
</g>
</svg>
