<?xml version="1.0" standalone="no"?>
<!DOCTYPE svg PUBLIC "-//W3C//DTD SVG 20010904//EN"
 "http://www.w3.org/TR/2001/REC-SVG-20010904/DTD/svg10.dtd">
<svg version="1.0" xmlns="http://www.w3.org/2000/svg"
 width="126.000000pt" height="237.000000pt" viewBox="0 0 126.000000 237.000000"
 preserveAspectRatio="xMidYMid meet">
<metadata>
Created by potrace 1.16, written by Peter Selinger 2001-2019
</metadata>
<g transform="translate(0.000000,237.000000) scale(0.100000,-0.100000)"
fill="#000000" stroke="none">
<path d="M464 2271 c-43 -12 -80 -33 -130 -73 -96 -77 -119 -105 -144 -168
-12 -30 -28 -68 -35 -85 -18 -41 -49 -201 -40 -214 9 -16 32 -13 39 5 3 9 6
38 6 64 0 27 6 64 14 82 8 18 25 61 38 96 16 43 40 81 76 119 28 31 52 53 52
49 0 -4 23 9 51 29 28 20 53 34 57 31 3 -3 21 4 40 16 32 20 39 20 86 9 58
-13 58 -13 110 -5 39 6 133 -10 171 -31 69 -35 188 -140 205 -179 3 -6 13 -22
22 -36 9 -14 26 -56 38 -94 19 -58 22 -84 18 -180 -4 -99 -8 -118 -36 -176
-46 -96 -196 -233 -274 -249 -23 -5 -61 -14 -83 -20 -22 -5 -52 -12 -67 -16
-19 -3 -28 -12 -28 -24 0 -15 11 -20 52 -25 28 -4 70 -16 92 -27 78 -37 160
-86 196 -117 71 -60 140 -231 135 -337 -5 -83 -73 -261 -118 -309 -12 -12 -52
-47 -88 -78 -58 -48 -75 -57 -131 -67 -36 -6 -108 -11 -161 -11 -107 0 -103
-2 -256 107 -90 64 -211 257 -211 337 0 40 -7 48 -31 35 -13 -6 -19 -21 -19
-43 0 -35 36 -134 55 -151 7 -5 27 -35 45 -65 38 -62 98 -130 115 -130 7 0 20
-10 31 -21 10 -12 42 -32 70 -44 29 -13 57 -31 62 -41 22 -39 261 -35 352 5
25 10 83 50 129 87 80 65 87 73 132 169 53 113 69 165 71 227 1 52 -19 153
-38 189 -25 49 -92 144 -120 171 -30 28 -185 121 -223 133 -32 10 -17 23 37
31 27 3 58 16 72 29 14 12 43 32 65 45 38 22 142 123 170 165 40 59 72 313 47
362 -12 23 -43 159 -40 175 2 7 -5 12 -14 10 -10 -2 -18 1 -18 6 0 21 -86 105
-153 149 -106 71 -136 82 -244 93 -134 13 -178 11 -249 -9z"/>
<path d="M1135 2107 c-4 -10 -5 -21 -1 -24 10 -10 18 4 13 24 -4 17 -4 17 -12
0z"/>
<path d="M644 1139 c-3 -6 -1 -16 5 -22 8 -8 11 -5 11 11 0 24 -5 28 -16 11z"/>
<path d="M40 730 c-12 -8 -10 -10 8 -10 13 0 20 4 17 10 -7 12 -6 12 -25 0z"/>
<path d="M655 130 c-3 -5 -1 -10 4 -10 6 0 11 5 11 10 0 6 -2 10 -4 10 -3 0
-8 -4 -11 -10z"/>
</g>
</svg>
