<?xml version="1.0" standalone="no"?>
<!DOCTYPE svg PUBLIC "-//W3C//DTD SVG 20010904//EN"
 "http://www.w3.org/TR/2001/REC-SVG-20010904/DTD/svg10.dtd">
<svg version="1.0" xmlns="http://www.w3.org/2000/svg"
 width="141.000000pt" height="228.000000pt" viewBox="0 0 141.000000 228.000000"
 preserveAspectRatio="xMidYMid meet">
<metadata>
Created by potrace 1.16, written by Peter Selinger 2001-2019
</metadata>
<g transform="translate(0.000000,228.000000) scale(0.100000,-0.100000)"
fill="#000000" stroke="none">
<path d="M1202 2220 c0 -14 2 -19 5 -12 2 6 2 18 0 25 -3 6 -5 1 -5 -13z"/>
<path d="M1178 2148 c-104 -218 -128 -269 -128 -278 0 -16 -85 -186 -232 -461
-14 -25 -28 -55 -31 -65 -4 -11 -11 -26 -16 -34 -5 -8 -14 -27 -20 -42 -11
-30 -31 -38 -31 -13 0 8 -8 15 -19 15 -23 0 -31 10 -61 80 -13 30 -45 102 -72
159 -26 56 -48 107 -48 112 0 5 -13 35 -30 67 -33 63 -150 298 -189 380 -14
28 -29 52 -34 52 -4 0 -18 12 -31 26 -17 20 -28 25 -44 20 -25 -8 -27 -23 -7
-50 8 -11 15 -30 15 -42 0 -13 5 -26 10 -29 6 -3 10 -1 10 5 0 6 5 8 10 5 6
-4 7 -11 4 -17 -4 -6 9 -25 29 -43 32 -30 177 -296 177 -327 0 -6 6 -19 13
-27 8 -9 31 -56 53 -106 21 -49 69 -150 106 -224 38 -73 68 -144 68 -158 0
-14 -31 -89 -69 -167 -37 -77 -74 -158 -82 -179 -7 -20 -30 -59 -50 -85 -20
-27 -76 -129 -125 -228 -48 -98 -95 -190 -105 -204 -51 -76 -61 -102 -48 -129
8 -14 14 -27 15 -29 0 -1 14 4 30 11 23 11 74 12 236 8 183 -6 209 -8 227 -25
18 -16 21 -17 21 -4 0 13 19 17 103 21 56 3 127 5 157 5 30 0 88 3 127 7 54 6
77 4 88 -5 9 -7 17 -11 18 -9 1 2 9 12 16 21 12 16 10 23 -15 55 -16 21 -44
67 -63 103 -18 36 -69 135 -112 220 -44 85 -84 162 -89 170 -5 8 -29 56 -53
105 -24 50 -64 131 -89 180 -72 141 -74 153 -49 205 11 24 21 48 21 53 0 16
151 294 171 316 10 11 19 28 19 39 0 10 4 22 10 28 5 5 36 73 69 150 66 156
113 254 133 275 23 25 38 80 27 100 -14 27 -24 24 -41 -13z m-391 -1206 c29
-53 74 -141 102 -196 28 -54 55 -103 60 -110 23 -27 202 -397 197 -405 -12
-19 -99 -24 -391 -23 -340 1 -474 8 -481 26 -5 12 76 175 101 206 7 8 33 53
57 100 73 137 109 199 119 205 5 4 9 14 9 23 0 9 22 62 48 117 79 164 78 163
105 158 18 -4 36 -28 74 -101z"/>
<path d="M455 1170 c-3 -5 -1 -10 4 -10 6 0 11 5 11 10 0 6 -2 10 -4 10 -3 0
-8 -4 -11 -10z"/>
<path d="M1300 1160 c0 -5 5 -10 11 -10 5 0 7 5 4 10 -3 6 -8 10 -11 10 -2 0
-4 -4 -4 -10z"/>
</g>
</svg>
