<?xml version="1.0" standalone="no"?>
<!DOCTYPE svg PUBLIC "-//W3C//DTD SVG 20010904//EN"
 "http://www.w3.org/TR/2001/REC-SVG-20010904/DTD/svg10.dtd">
<svg version="1.0" xmlns="http://www.w3.org/2000/svg"
 width="132.000000pt" height="228.000000pt" viewBox="0 0 132.000000 228.000000"
 preserveAspectRatio="xMidYMid meet">
<metadata>
Created by potrace 1.16, written by Peter Selinger 2001-2019
</metadata>
<g transform="translate(0.000000,228.000000) scale(0.100000,-0.100000)"
fill="#000000" stroke="none">
<path d="M138 2163 c-5 -19 16 -69 30 -75 4 -1 26 -32 47 -68 21 -36 44 -72
51 -80 14 -17 94 -161 167 -299 56 -106 179 -395 181 -426 1 -16 -12 -24 -69
-43 -38 -13 -79 -31 -91 -40 -12 -9 -56 -43 -98 -76 -80 -61 -138 -127 -162
-186 -11 -24 -17 -31 -23 -22 -12 20 -21 -64 -21 -203 0 -110 2 -124 20 -140
11 -10 34 -42 50 -70 42 -73 87 -116 200 -190 173 -114 222 -124 390 -83 94
22 137 43 146 70 3 10 9 18 13 18 17 0 107 128 148 209 35 71 43 96 43 144 0
31 5 57 10 57 6 0 10 5 10 10 0 6 -15 10 -34 10 l-33 0 0 -52 c1 -105 -57
-222 -164 -330 -32 -32 -66 -58 -76 -58 -10 0 -38 -10 -63 -21 -68 -32 -203
-28 -272 7 -161 81 -292 200 -324 294 -23 67 -27 159 -10 233 22 94 55 154
117 212 53 50 166 125 188 125 6 0 36 11 66 25 31 13 59 24 63 24 23 -4 33 7
61 64 17 34 49 89 71 122 22 33 43 66 46 73 4 7 36 66 73 130 36 64 77 144 90
177 14 33 34 74 47 90 12 17 36 64 54 105 36 84 56 113 46 65 -5 -24 -4 -27 5
-12 9 16 16 66 22 162 3 44 -29 47 -41 3 -6 -18 -22 -64 -37 -103 -14 -38 -31
-83 -37 -100 -6 -16 -21 -46 -34 -66 -12 -19 -58 -109 -103 -200 -44 -90 -108
-207 -143 -259 -35 -52 -70 -108 -79 -124 l-16 -29 -30 64 c-17 35 -37 80 -43
99 -27 72 -130 290 -167 351 -22 35 -52 89 -68 119 -16 30 -38 68 -50 85 -11
16 -42 68 -70 114 -54 91 -90 126 -97 94z"/>
<path d="M640 1321 c0 -5 5 -13 10 -16 6 -3 10 -2 10 4 0 5 -4 13 -10 16 -5 3
-10 2 -10 -4z"/>
</g>
</svg>
