<?xml version="1.0" standalone="no"?>
<!DOCTYPE svg PUBLIC "-//W3C//DTD SVG 20010904//EN"
 "http://www.w3.org/TR/2001/REC-SVG-20010904/DTD/svg10.dtd">
<svg version="1.0" xmlns="http://www.w3.org/2000/svg"
 width="126.000000pt" height="231.000000pt" viewBox="0 0 126.000000 231.000000"
 preserveAspectRatio="xMidYMid meet">
<metadata>
Created by potrace 1.16, written by Peter Selinger 2001-2019
</metadata>
<g transform="translate(0.000000,231.000000) scale(0.100000,-0.100000)"
fill="#000000" stroke="none">
<path d="M535 2274 c-155 -37 -238 -76 -289 -136 -21 -24 -59 -88 -86 -143
-41 -83 -50 -114 -58 -183 -6 -59 -5 -85 3 -92 19 -16 25 0 25 68 0 38 6 75
15 90 8 15 28 64 46 110 22 60 43 95 77 132 43 45 57 52 160 85 103 32 122 35
202 31 81 -3 96 -8 182 -51 116 -59 157 -98 209 -200 54 -104 68 -161 70 -283
2 -81 -1 -106 -15 -127 -9 -14 -28 -46 -41 -71 -45 -85 -103 -142 -204 -202
-96 -57 -96 -57 -170 -54 -78 2 -133 -11 -167 -40 -11 -10 -26 -18 -32 -18 -6
0 -48 -23 -92 -52 -64 -41 -89 -65 -129 -123 -28 -40 -60 -96 -71 -126 -12
-30 -25 -58 -30 -64 -7 -10 -20 -84 -20 -115 1 -50 17 -220 19 -195 l2 30 19
-24 c11 -13 20 -30 20 -38 0 -22 66 -127 103 -166 18 -19 46 -40 62 -49 94
-47 186 -87 229 -98 30 -8 50 -20 53 -30 3 -13 15 -17 44 -16 21 0 39 4 39 8
0 5 7 8 17 8 30 0 223 65 223 75 0 6 25 32 55 59 30 26 55 54 55 61 0 7 7 18
15 25 8 7 24 32 35 56 10 25 25 43 32 42 8 -2 14 10 16 31 2 19 10 45 19 58
12 18 14 43 10 121 -6 115 -32 187 -111 302 -43 63 -67 85 -142 135 -119 79
-151 105 -138 113 113 77 172 124 204 165 22 27 40 54 40 59 0 6 21 37 46 71
43 56 47 67 56 141 5 45 6 90 3 101 -4 11 -12 52 -19 90 -9 45 -26 91 -50 130
-20 33 -36 66 -36 73 0 42 -151 152 -280 205 -43 18 -184 31 -225 21z m70
-1084 c-4 -6 7 -10 27 -10 32 0 74 -9 153 -32 22 -7 78 -36 125 -65 93 -57
120 -90 187 -223 32 -65 37 -84 36 -140 -3 -170 -14 -204 -110 -340 -24 -33
-117 -120 -145 -135 -13 -6 -32 -16 -43 -22 -29 -16 -163 -43 -209 -43 -58 0
-112 19 -154 55 -20 18 -53 40 -72 50 -62 31 -101 66 -140 126 -87 135 -112
321 -57 427 15 30 27 58 27 64 0 6 23 39 50 74 52 65 184 166 243 186 18 6 36
17 40 25 4 7 17 13 28 13 11 0 17 -4 14 -10z"/>
<path d="M1105 2230 c3 -5 8 -10 11 -10 2 0 4 5 4 10 0 6 -5 10 -11 10 -5 0
-7 -4 -4 -10z"/>
<path d="M112 2030 c0 -14 2 -19 5 -12 2 6 2 18 0 25 -3 6 -5 1 -5 -13z"/>
<path d="M621 1464 c0 -11 3 -14 6 -6 3 7 2 16 -1 19 -3 4 -6 -2 -5 -13z"/>
<path d="M390 212 c0 -7 48 -32 63 -32 4 0 6 4 3 9 -8 12 -66 32 -66 23z"/>
</g>
</svg>
