<?xml version="1.0" standalone="no"?>
<!DOCTYPE svg PUBLIC "-//W3C//DTD SVG 20010904//EN"
 "http://www.w3.org/TR/2001/REC-SVG-20010904/DTD/svg10.dtd">
<svg version="1.0" xmlns="http://www.w3.org/2000/svg"
 width="125.000000pt" height="234.000000pt" viewBox="0 0 125.000000 234.000000"
 preserveAspectRatio="xMidYMid meet">
<metadata>
Created by potrace 1.16, written by Peter Selinger 2001-2019
</metadata>
<g transform="translate(0.000000,234.000000) scale(0.100000,-0.100000)"
fill="#000000" stroke="none">
<path d="M525 2245 c-72 -18 -192 -103 -235 -166 -19 -28 -47 -65 -61 -83 -68
-82 -129 -250 -101 -278 17 -17 29 -1 42 54 11 47 39 121 58 155 70 120 191
228 294 262 135 44 316 8 413 -84 57 -53 143 -161 163 -205 11 -25 16 -67 16
-145 1 -92 -3 -119 -21 -165 -30 -74 -92 -146 -166 -194 -34 -22 -63 -44 -65
-48 -2 -4 -8 -8 -13 -8 -6 0 -37 -18 -70 -40 -33 -22 -66 -40 -73 -40 -14 0
-73 -24 -174 -71 -35 -16 -65 -29 -68 -29 -3 0 -25 -13 -49 -30 -24 -16 -48
-30 -53 -30 -5 0 -41 -31 -78 -69 -121 -121 -172 -265 -159 -444 10 -152 57
-247 160 -324 27 -21 55 -43 60 -48 12 -13 61 -30 130 -45 57 -14 214 -13 230
0 5 5 32 14 58 21 26 6 59 21 74 33 15 11 41 30 59 41 67 42 180 135 201 167
13 19 31 59 42 89 10 31 24 64 30 75 17 32 30 117 20 135 -5 10 -9 31 -9 48 0
33 -79 192 -113 229 -61 66 -229 153 -339 177 -38 8 -35 19 10 38 53 23 138
73 207 123 33 24 69 49 80 57 12 8 39 43 62 78 23 35 50 73 59 83 36 40 23
290 -18 363 -43 75 -156 204 -214 244 -102 70 -275 103 -389 74z m160 -1100
c135 -20 345 -138 385 -215 89 -172 95 -234 40 -373 -30 -76 -44 -97 -100
-151 -88 -84 -238 -172 -332 -193 -60 -13 -87 -14 -164 -5 -50 5 -106 18 -125
29 -67 36 -150 107 -174 147 -27 48 -45 134 -45 220 1 248 89 379 355 528 51
29 55 29 160 13z"/>
<path d="M636 757 c-25 -20 -27 -26 -17 -44 16 -30 45 -37 81 -18 35 18 38 37
10 65 -26 26 -38 25 -74 -3z"/>
</g>
</svg>
