<?xml version="1.0" standalone="no"?>
<!DOCTYPE svg PUBLIC "-//W3C//DTD SVG 20010904//EN"
 "http://www.w3.org/TR/2001/REC-SVG-20010904/DTD/svg10.dtd">
<svg version="1.0" xmlns="http://www.w3.org/2000/svg"
 width="123.000000pt" height="225.000000pt" viewBox="0 0 123.000000 225.000000"
 preserveAspectRatio="xMidYMid meet">
<metadata>
Created by potrace 1.16, written by Peter Selinger 2001-2019
</metadata>
<g transform="translate(0.000000,225.000000) scale(0.100000,-0.100000)"
fill="#000000" stroke="none">
<path d="M1091 2194 c0 -17 -8 -38 -17 -45 -22 -18 -170 -327 -194 -404 -7
-22 -18 -50 -26 -62 -8 -12 -25 -52 -39 -88 -33 -88 -139 -300 -171 -342 -24
-31 -26 -32 -43 -15 -10 9 -44 71 -76 137 -85 180 -176 363 -213 429 -18 33
-49 98 -69 145 -62 143 -91 191 -117 191 -20 0 -22 -4 -18 -27 3 -16 12 -39
22 -53 9 -14 67 -128 129 -255 279 -569 350 -708 357 -691 10 25 121 20 167
-8 108 -66 142 -99 224 -216 58 -85 80 -267 44 -371 -31 -93 -57 -133 -121
-193 -116 -106 -191 -136 -355 -137 -124 -2 -218 33 -273 100 -88 105 -162
265 -162 347 0 36 -22 56 -42 36 -12 -12 20 -235 32 -227 4 3 33 -36 65 -85
32 -49 81 -112 109 -138 47 -45 60 -51 143 -71 50 -11 101 -21 113 -21 13 0
32 -8 42 -17 17 -15 19 -15 31 0 11 15 68 34 182 60 30 7 51 18 53 27 2 8 13
21 25 29 46 30 150 148 173 196 13 28 24 41 24 31 0 -20 0 -20 15 0 10 13 14
46 15 109 0 125 -11 285 -20 280 -4 -3 -27 28 -51 68 -89 147 -246 277 -336
277 -18 0 -33 5 -33 11 0 6 18 41 40 78 43 74 120 234 120 249 0 6 18 49 40
96 22 47 40 88 40 92 0 9 72 187 80 199 4 6 24 42 45 80 21 39 41 72 44 75 17
13 33 70 23 83 -6 6 -12 26 -15 42 l-4 30 -2 -31z"/>
<path d="M1091 2034 c0 -11 3 -14 6 -6 3 7 2 16 -1 19 -3 4 -6 -2 -5 -13z"/>
<path d="M1100 10 c0 -5 5 -10 11 -10 5 0 7 5 4 10 -3 6 -8 10 -11 10 -2 0 -4
-4 -4 -10z"/>
</g>
</svg>
