<?xml version="1.0" standalone="no"?>
<!DOCTYPE svg PUBLIC "-//W3C//DTD SVG 20010904//EN"
 "http://www.w3.org/TR/2001/REC-SVG-20010904/DTD/svg10.dtd">
<svg version="1.0" xmlns="http://www.w3.org/2000/svg"
 width="129.000000pt" height="225.000000pt" viewBox="0 0 129.000000 225.000000"
 preserveAspectRatio="xMidYMid meet">
<metadata>
Created by potrace 1.16, written by Peter Selinger 2001-2019
</metadata>
<g transform="translate(0.000000,225.000000) scale(0.100000,-0.100000)"
fill="#000000" stroke="none">
<path d="M535 2191 c-69 -9 -92 -17 -166 -62 -73 -45 -165 -138 -224 -227 -48
-73 -49 -75 -47 -145 2 -42 -1 -73 -8 -77 -8 -5 -8 -15 0 -34 5 -15 10 -41 10
-57 0 -17 11 -45 24 -62 13 -18 35 -57 50 -87 37 -76 140 -177 223 -220 38
-19 70 -38 71 -42 2 -5 9 -8 17 -8 18 0 103 -39 110 -51 8 -13 7 -358 -1 -421
-4 -31 -11 -48 -20 -48 -21 0 -17 -17 6 -23 19 -5 20 -11 14 -248 -4 -166 -9
-246 -17 -251 -23 -14 3 -20 32 -7 26 12 31 20 36 64 3 27 5 88 4 135 -1 47 0
240 3 429 l6 343 49 18 c110 40 141 57 197 112 33 32 65 58 71 58 14 0 42 38
89 123 21 37 42 67 47 67 5 0 9 -17 10 -37 1 -69 28 74 28 155 1 57 4 72 16
72 19 0 19 19 1 34 -8 7 -16 39 -19 81 -6 73 -14 105 -27 105 -5 0 -18 19 -29
43 -34 69 -168 196 -257 243 -38 20 -65 26 -143 29 -53 2 -123 0 -156 -4z
m260 -70 c93 -36 237 -161 271 -235 27 -60 45 -206 25 -206 -8 0 -7 -6 4 -16
22 -23 12 -71 -38 -174 -46 -96 -118 -178 -212 -245 -62 -43 -176 -91 -193
-81 -5 3 -16 27 -23 53 l-13 48 -4 -43 c-3 -41 -5 -43 -28 -38 -13 4 -70 28
-126 54 -217 102 -312 243 -317 470 -1 64 3 93 18 128 22 49 172 210 205 220
12 4 34 16 51 28 16 11 54 28 85 38 72 21 239 21 295 -1z"/>
<path d="M1015 2190 c-3 -5 -1 -10 4 -10 6 0 11 5 11 10 0 6 -2 10 -4 10 -3 0
-8 -4 -11 -10z"/>
</g>
</svg>
