<?xml version="1.0" standalone="no"?>
<!DOCTYPE svg PUBLIC "-//W3C//DTD SVG 20010904//EN"
 "http://www.w3.org/TR/2001/REC-SVG-20010904/DTD/svg10.dtd">
<svg version="1.0" xmlns="http://www.w3.org/2000/svg"
 width="120.000000pt" height="225.000000pt" viewBox="0 0 120.000000 225.000000"
 preserveAspectRatio="xMidYMid meet">
<metadata>
Created by potrace 1.16, written by Peter Selinger 2001-2019
</metadata>
<g transform="translate(0.000000,225.000000) scale(0.100000,-0.100000)"
fill="#000000" stroke="none">
<path d="M1051 2152 c-11 -9 -45 -64 -75 -122 -29 -58 -65 -127 -79 -155 -31
-60 -107 -224 -107 -231 0 -7 -32 -77 -90 -199 -50 -104 -109 -183 -127 -172
-10 6 -23 28 -96 157 -11 19 -39 69 -62 110 -72 128 -115 207 -219 414 -56
109 -105 197 -111 195 -6 -2 -9 -29 -7 -59 4 -67 11 -92 23 -85 11 7 62 -72
86 -134 23 -59 150 -311 167 -331 8 -8 28 -42 46 -75 18 -33 48 -83 65 -111
18 -28 36 -61 40 -73 8 -25 -9 -51 -34 -51 -9 0 -27 -7 -41 -15 -14 -7 -40
-21 -58 -29 -38 -18 -162 -133 -162 -151 0 -6 -13 -31 -29 -56 -44 -69 -72
-156 -83 -249 -11 -95 -8 -109 48 -228 19 -40 34 -75 34 -77 0 -21 80 -121
122 -153 29 -23 64 -50 78 -60 30 -23 77 -38 143 -48 27 -4 51 -13 54 -21 5
-12 9 -12 27 0 19 12 66 26 139 42 40 8 155 89 208 146 25 27 61 79 80 114 19
36 39 65 46 65 15 0 21 136 10 235 -11 98 -11 98 -2 119 7 16 5 18 -9 13 -11
-4 -19 -1 -23 11 -10 28 -149 225 -175 248 -46 41 -134 91 -183 104 -27 7 -52
15 -54 16 -2 2 15 31 36 66 49 77 111 205 198 408 26 61 75 155 116 225 10 17
28 50 40 75 18 38 22 42 28 26 10 -27 20 -8 27 53 6 56 -4 69 -35 43z m-351
-989 c101 -32 169 -91 254 -219 62 -95 79 -161 74 -288 -3 -89 -8 -110 -37
-172 -55 -119 -169 -211 -305 -245 -73 -18 -199 -5 -261 27 -118 61 -191 142
-245 273 -25 62 -30 87 -30 158 0 214 139 418 318 469 60 16 174 15 232 -3z"/>
<path d="M581 1403 c2 -79 6 -70 11 25 2 28 0 52 -4 52 -5 0 -7 -35 -7 -77z"/>
<path d="M92 985 c0 -16 2 -22 5 -12 2 9 2 23 0 30 -3 6 -5 -1 -5 -18z"/>
<path d="M1092 70 c0 -14 2 -19 5 -12 2 6 2 18 0 25 -3 6 -5 1 -5 -13z"/>
</g>
</svg>
