<?xml version="1.0" standalone="no"?>
<!DOCTYPE svg PUBLIC "-//W3C//DTD SVG 20010904//EN"
 "http://www.w3.org/TR/2001/REC-SVG-20010904/DTD/svg10.dtd">
<svg version="1.0" xmlns="http://www.w3.org/2000/svg"
 width="141.000000pt" height="240.000000pt" viewBox="0 0 141.000000 240.000000"
 preserveAspectRatio="xMidYMid meet">
<metadata>
Created by potrace 1.16, written by Peter Selinger 2001-2019
</metadata>
<g transform="translate(0.000000,240.000000) scale(0.100000,-0.100000)"
fill="#000000" stroke="none">
<path d="M610 2320 c-8 -5 -22 -10 -31 -10 -19 0 -170 -87 -247 -142 -32 -23
-71 -66 -103 -115 -44 -64 -57 -95 -75 -172 -19 -79 -21 -106 -14 -170 5 -42
13 -92 18 -111 6 -19 13 -52 17 -73 4 -28 10 -37 20 -33 10 3 24 -10 41 -39
14 -25 29 -45 33 -45 4 0 35 -18 69 -40 33 -22 64 -40 67 -40 3 0 27 -10 53
-22 57 -26 41 -23 135 -32 42 -5 80 -13 83 -18 12 -19 4 -472 -8 -479 -9 -6
-9 -11 -1 -21 8 -9 11 -90 11 -246 l-1 -232 -96 -1 c-53 -1 -168 -2 -256 -2
-131 -1 -162 -4 -172 -16 -7 -10 -8 -22 -2 -33 5 -9 9 -26 9 -37 0 -12 7 -21
15 -21 8 0 15 9 15 20 0 20 6 20 213 19 116 0 241 3 277 8 36 4 170 8 297 8
175 0 234 3 238 12 2 7 11 10 19 7 20 -8 28 10 16 41 -10 25 -13 27 -53 21
-23 -4 -122 -9 -219 -11 -97 -3 -190 -8 -207 -11 -30 -6 -31 -5 -31 28 0 325
-14 916 -22 925 -17 21 -1 30 77 42 41 7 77 17 80 22 4 5 29 19 56 30 65 28
178 150 220 236 31 65 56 94 45 52 -7 -23 -6 -23 8 -6 10 13 15 43 15 93 0 41
2 78 5 82 2 4 0 47 -5 97 -7 73 -13 94 -33 115 -13 14 -31 41 -39 60 -8 19
-46 69 -85 111 -55 59 -84 81 -124 96 -126 47 -295 75 -328 53z m73 -67 c-2
-7 4 -13 12 -13 8 0 15 4 15 9 0 27 75 19 198 -21 55 -17 70 -29 129 -93 36
-41 79 -92 94 -115 56 -83 66 -232 23 -352 -35 -98 -62 -141 -133 -215 -99
-102 -209 -142 -382 -137 -174 4 -323 85 -414 222 -22 33 -25 51 -29 162 -5
139 4 198 42 274 52 106 77 129 232 225 97 59 220 90 213 54z"/>
<path d="M686 1385 c4 -8 8 -15 10 -15 2 0 4 7 4 15 0 8 -4 15 -10 15 -5 0 -7
-7 -4 -15z"/>
<path d="M95 250 c3 -5 11 -10 16 -10 6 0 7 5 4 10 -3 6 -11 10 -16 10 -6 0
-7 -4 -4 -10z"/>
<path d="M675 20 c3 -5 8 -10 11 -10 2 0 4 5 4 10 0 6 -5 10 -11 10 -5 0 -7
-4 -4 -10z"/>
</g>
</svg>
