<?xml version="1.0" standalone="no"?>
<!DOCTYPE svg PUBLIC "-//W3C//DTD SVG 20010904//EN"
 "http://www.w3.org/TR/2001/REC-SVG-20010904/DTD/svg10.dtd">
<svg version="1.0" xmlns="http://www.w3.org/2000/svg"
 width="123.000000pt" height="225.000000pt" viewBox="0 0 123.000000 225.000000"
 preserveAspectRatio="xMidYMid meet">
<metadata>
Created by potrace 1.16, written by Peter Selinger 2001-2019
</metadata>
<g transform="translate(0.000000,225.000000) scale(0.100000,-0.100000)"
fill="#000000" stroke="none">
<path d="M112 2075 c4 -27 15 -56 31 -75 27 -31 177 -327 177 -347 0 -6 7 -16
16 -24 8 -7 27 -36 41 -63 14 -28 45 -84 69 -123 24 -40 44 -75 44 -77 0 -3
25 -44 55 -92 30 -49 55 -93 55 -100 0 -6 -17 -14 -38 -16 -44 -6 -217 -99
-272 -146 -21 -18 -60 -71 -87 -118 -26 -47 -53 -96 -60 -107 -33 -58 -27
-318 8 -358 10 -12 19 -25 19 -30 0 -4 16 -27 36 -50 33 -40 145 -112 217
-140 18 -7 26 -17 23 -25 -4 -11 4 -14 37 -12 23 1 69 -1 102 -5 104 -12 148
-10 229 12 114 31 195 80 245 146 23 30 46 55 52 55 6 0 7 -6 3 -12 -5 -9 -4
-10 3 -3 9 9 20 46 38 130 13 59 5 203 -15 266 -11 34 -20 73 -20 86 0 13 -4
22 -8 19 -13 -8 -28 7 -50 49 -32 62 -65 102 -113 137 -50 36 -176 92 -231
102 -43 8 -46 18 -20 61 10 17 24 46 31 65 7 19 42 98 78 175 35 77 70 154 77
170 7 17 34 73 59 125 77 161 105 225 112 253 5 20 13 27 32 27 22 0 24 3 21
42 -2 30 -8 44 -20 46 -12 2 -29 -23 -66 -100 -134 -278 -176 -368 -198 -430
-13 -36 -44 -104 -68 -150 -23 -46 -49 -101 -56 -123 -27 -85 -70 -146 -70
-101 0 8 -10 27 -23 43 -13 15 -58 91 -101 168 -43 77 -82 147 -87 155 -5 8
-15 29 -24 45 -8 17 -39 75 -69 130 -31 55 -86 160 -123 233 -72 140 -100 167
-91 87z m699 -1005 c100 -32 159 -78 205 -161 63 -114 83 -183 88 -305 6 -129
-1 -146 -101 -250 -46 -49 -81 -76 -108 -85 -22 -7 -45 -17 -52 -22 -21 -15
-126 -36 -183 -37 -68 0 -153 21 -211 53 -24 13 -61 30 -81 36 -39 13 -113 77
-141 121 -9 14 -23 63 -31 110 -18 106 -9 214 23 258 11 17 21 34 21 40 0 32
65 126 81 116 5 -3 9 2 9 10 0 18 53 54 149 103 66 34 126 43 133 21 4 -10 9
-9 21 3 19 20 94 15 178 -11z"/>
<path d="M590 711 c-38 -10 -36 -41 5 -81 l36 -35 30 33 c36 40 36 45 3 71
-28 22 -34 23 -74 12z"/>
<path d="M625 550 c3 -5 8 -10 11 -10 2 0 4 5 4 10 0 6 -5 10 -11 10 -5 0 -7
-4 -4 -10z"/>
<path d="M1091 1624 c0 -11 3 -14 6 -6 3 7 2 16 -1 19 -3 4 -6 -2 -5 -13z"/>
</g>
</svg>
