<?xml version="1.0" standalone="no"?>
<!DOCTYPE svg PUBLIC "-//W3C//DTD SVG 20010904//EN"
 "http://www.w3.org/TR/2001/REC-SVG-20010904/DTD/svg10.dtd">
<svg version="1.0" xmlns="http://www.w3.org/2000/svg"
 width="126.000000pt" height="228.000000pt" viewBox="0 0 126.000000 228.000000"
 preserveAspectRatio="xMidYMid meet">
<metadata>
Created by potrace 1.16, written by Peter Selinger 2001-2019
</metadata>
<g transform="translate(0.000000,228.000000) scale(0.100000,-0.100000)"
fill="#000000" stroke="none">
<path d="M611 2259 c-1 -25 -4 -27 -69 -31 -37 -3 -76 -10 -87 -16 -11 -6 -42
-19 -69 -29 -40 -15 -107 -65 -197 -148 -9 -8 -29 -41 -44 -72 -16 -31 -31
-51 -33 -45 -8 25 -23 11 -18 -15 3 -16 -4 -68 -17 -118 -17 -70 -21 -106 -16
-160 8 -99 38 -205 55 -198 9 3 26 -15 46 -47 57 -92 209 -174 367 -199 80
-12 89 -38 41 -114 -17 -26 -30 -49 -30 -52 0 -2 -19 -36 -43 -77 -41 -69
-125 -238 -224 -448 -69 -146 -113 -230 -150 -286 -27 -42 -33 -61 -33 -104 0
-52 6 -64 13 -24 1 10 11 29 22 42 34 39 237 438 330 647 13 30 37 74 54 99
17 25 31 48 31 53 0 21 53 84 66 79 10 -4 14 3 14 23 0 55 15 40 70 -71 54
-109 72 -143 122 -225 29 -46 65 -129 72 -164 3 -14 17 -42 30 -62 14 -20 53
-90 87 -154 33 -65 69 -127 80 -139 25 -27 24 -44 -3 -44 -19 0 -17 -3 12 -19
19 -10 37 -15 38 -10 2 5 12 9 22 9 32 0 32 17 0 63 -16 25 -30 49 -30 55 0 6
-4 12 -8 14 -8 3 -72 104 -72 114 0 3 -21 41 -46 85 -25 44 -56 108 -68 143
-13 35 -43 97 -68 137 -51 82 -147 270 -179 350 -20 52 -16 68 15 69 19 0 212
100 236 122 43 39 114 140 145 206 16 34 35 62 42 62 13 0 17 24 13 87 -1 27
4 35 26 45 l27 13 -24 5 c-21 5 -25 14 -32 69 -11 93 -62 192 -147 283 -59 64
-86 85 -157 120 -68 33 -98 42 -142 43 -54 1 -56 2 -62 30 -6 29 -7 29 -8 4z
m49 -84 c131 -24 185 -51 270 -135 51 -50 86 -95 106 -135 26 -54 29 -72 33
-178 3 -123 -1 -146 -51 -257 -46 -102 -147 -186 -285 -236 -58 -21 -78 -25
-97 -16 -12 5 -33 8 -47 5 -39 -7 -188 35 -263 75 -50 27 -83 54 -122 101 -84
101 -89 116 -89 267 0 81 5 140 12 155 6 13 27 58 46 99 33 74 67 111 168 186
30 22 154 68 209 77 14 2 27 5 30 5 3 1 39 -5 80 -13z"/>
<path d="M980 2219 c0 -5 5 -7 10 -4 6 3 10 8 10 11 0 2 -4 4 -10 4 -5 0 -10
-5 -10 -11z"/>
<path d="M330 2210 c0 -5 5 -10 10 -10 6 0 10 5 10 10 0 6 -4 10 -10 10 -5 0
-10 -4 -10 -10z"/>
<path d="M1120 1866 c0 -9 5 -16 10 -16 6 0 10 4 10 9 0 6 -4 13 -10 16 -5 3
-10 -1 -10 -9z"/>
<path d="M91 1338 c0 -28 2 -30 9 -13 12 28 12 45 0 45 -5 0 -10 -15 -9 -32z"/>
</g>
</svg>
