<?xml version="1.0" standalone="no"?>
<!DOCTYPE svg PUBLIC "-//W3C//DTD SVG 20010904//EN"
 "http://www.w3.org/TR/2001/REC-SVG-20010904/DTD/svg10.dtd">
<svg version="1.0" xmlns="http://www.w3.org/2000/svg"
 width="129.000000pt" height="228.000000pt" viewBox="0 0 129.000000 228.000000"
 preserveAspectRatio="xMidYMid meet">
<metadata>
Created by potrace 1.16, written by Peter Selinger 2001-2019
</metadata>
<g transform="translate(0.000000,228.000000) scale(0.100000,-0.100000)"
fill="#000000" stroke="none">
<path d="M106 2217 c3 -10 9 -15 12 -12 3 3 0 11 -7 18 -10 9 -11 8 -5 -6z"/>
<path d="M89 2154 c-10 -12 -10 -27 -1 -73 7 -31 12 -65 12 -75 0 -10 13 -30
29 -45 17 -16 33 -41 37 -57 4 -16 17 -45 29 -64 12 -19 27 -51 35 -70 13 -33
55 -113 89 -172 36 -60 131 -217 162 -268 19 -31 51 -79 72 -107 20 -28 37
-58 37 -66 0 -9 5 -19 10 -22 13 -8 12 -259 -1 -380 -5 -49 -9 -117 -9 -150 1
-33 -4 -126 -11 -207 -9 -111 -10 -156 -1 -184 7 -24 8 -43 2 -54 -11 -21 10
-44 35 -38 14 3 16 29 20 188 2 102 6 230 9 285 11 193 16 331 17 460 0 118 3
133 24 166 12 19 36 62 53 95 17 33 56 102 86 152 31 51 76 130 100 175 91
175 115 218 134 242 11 14 23 43 27 64 4 22 15 47 26 57 18 16 19 16 20 -12
l1 -29 8 30 c4 17 8 47 9 68 1 23 8 43 20 54 19 16 19 17 -6 36 -26 21 -29 21
-488 1 -184 -8 -534 -5 -552 5 -16 8 -24 7 -34 -5z m1021 -39 c0 -3 -13 -32
-30 -65 -16 -33 -30 -64 -30 -69 0 -6 -30 -63 -67 -128 -36 -65 -81 -149 -100
-188 -18 -38 -38 -77 -43 -85 -5 -8 -19 -33 -31 -55 -12 -22 -31 -53 -42 -69
-11 -16 -39 -65 -62 -110 -24 -44 -52 -85 -64 -91 -12 -6 -21 -19 -21 -33 0
-36 -16 -19 -95 102 -66 102 -235 396 -235 410 0 6 -91 201 -125 266 -12 25
-26 59 -29 75 l-6 30 297 0 c164 -1 325 2 358 6 75 8 325 11 325 4z"/>
<path d="M698 1143 c7 -3 16 -2 19 1 4 3 -2 6 -13 5 -11 0 -14 -3 -6 -6z"/>
</g>
</svg>
