<?xml version="1.0" standalone="no"?>
<!DOCTYPE svg PUBLIC "-//W3C//DTD SVG 20010904//EN"
 "http://www.w3.org/TR/2001/REC-SVG-20010904/DTD/svg10.dtd">
<svg version="1.0" xmlns="http://www.w3.org/2000/svg"
 width="126.000000pt" height="234.000000pt" viewBox="0 0 126.000000 234.000000"
 preserveAspectRatio="xMidYMid meet">
<metadata>
Created by potrace 1.16, written by Peter Selinger 2001-2019
</metadata>
<g transform="translate(0.000000,234.000000) scale(0.100000,-0.100000)"
fill="#000000" stroke="none">
<path d="M575 2289 c-22 -4 -53 -12 -68 -18 -16 -6 -38 -11 -50 -11 -23 0
-109 -58 -162 -109 -16 -16 -43 -37 -58 -47 -16 -9 -46 -44 -68 -76 -22 -32
-42 -58 -46 -58 -3 0 -3 13 -1 29 2 17 1 28 -4 25 -4 -3 -8 -26 -8 -52 0 -26
-5 -63 -11 -82 -22 -73 -27 -154 -14 -230 8 -41 16 -105 20 -142 5 -48 11 -68
20 -68 8 0 20 -8 27 -19 18 -25 165 -142 221 -174 29 -17 60 -27 86 -27 22 0
42 -4 45 -9 3 -5 26 -12 51 -15 30 -5 45 -12 45 -22 0 -8 -20 -50 -44 -92 -25
-42 -68 -126 -96 -187 -28 -60 -58 -123 -67 -140 -9 -16 -32 -60 -50 -98 -18
-37 -61 -111 -96 -165 -35 -53 -72 -117 -82 -142 -11 -25 -34 -64 -52 -88 -36
-48 -39 -59 -21 -97 12 -27 28 -34 28 -12 0 10 47 12 228 9 249 -3 272 -5 272
-27 0 -19 16 -20 23 -2 5 15 57 20 327 37 97 6 148 5 157 -1 17 -15 53 -1 53
19 -1 9 -9 35 -20 57 -10 22 -16 43 -14 47 2 3 0 9 -6 13 -5 3 -10 1 -10 -5 0
-7 -4 -10 -9 -8 -10 4 -105 143 -142 208 -14 25 -42 74 -63 108 -20 35 -36 70
-36 77 0 7 -3 15 -7 17 -5 2 -37 64 -72 138 -119 253 -131 282 -131 321 0 27
3 29 52 35 35 5 59 14 74 31 12 12 27 23 33 23 26 0 119 53 129 74 5 11 29 44
53 71 25 28 58 77 73 110 16 33 36 68 44 77 25 30 34 182 21 350 -7 84 -16
109 -30 87 -8 -12 -11 -11 -18 1 -45 72 -96 128 -147 165 -33 24 -66 50 -73
59 -8 9 -27 16 -43 16 -16 0 -38 5 -49 11 -24 12 -158 17 -214 8z m278 -87
c62 -35 123 -85 150 -126 16 -22 36 -50 46 -61 30 -32 40 -60 56 -143 11 -58
13 -87 5 -107 -6 -15 -8 -30 -5 -35 10 -16 -17 -115 -50 -185 -51 -110 -120
-178 -234 -232 -84 -40 -106 -46 -179 -50 -85 -4 -192 14 -260 44 -34 15 -158
107 -180 132 -18 22 -49 90 -57 126 -4 17 -11 72 -15 122 -7 75 -5 105 9 161
16 62 49 130 84 172 27 35 170 152 200 165 126 54 196 68 190 38 -2 -7 4 -10
12 -7 8 4 15 10 15 14 0 26 153 6 213 -28z m-240 -1159 c-5 -13 -2 -15 19 -10
25 7 28 3 58 -71 35 -87 46 -110 60 -132 15 -23 50 -103 50 -113 0 -6 12 -25
26 -44 14 -19 43 -65 63 -102 71 -132 97 -174 144 -239 26 -37 46 -71 44 -77
-7 -20 -186 -28 -541 -27 -197 1 -362 5 -367 8 -5 3 5 29 21 58 17 29 30 58
30 65 0 6 8 24 19 39 77 113 110 166 144 237 8 17 33 65 56 108 22 42 41 82
41 87 0 20 122 240 130 235 5 -3 6 -13 3 -22z"/>
<path d="M121 2064 c0 -11 3 -14 6 -6 3 7 2 16 -1 19 -3 4 -6 -2 -5 -13z"/>
<path d="M1132 1550 c0 -14 2 -19 5 -12 2 6 2 18 0 25 -3 6 -5 1 -5 -13z"/>
</g>
</svg>
