<?xml version="1.0" standalone="no"?>
<!DOCTYPE svg PUBLIC "-//W3C//DTD SVG 20010904//EN"
 "http://www.w3.org/TR/2001/REC-SVG-20010904/DTD/svg10.dtd">
<svg version="1.0" xmlns="http://www.w3.org/2000/svg"
 width="129.000000pt" height="234.000000pt" viewBox="0 0 129.000000 234.000000"
 preserveAspectRatio="xMidYMid meet">
<metadata>
Created by potrace 1.16, written by Peter Selinger 2001-2019
</metadata>
<g transform="translate(0.000000,234.000000) scale(0.100000,-0.100000)"
fill="#000000" stroke="none">
<path d="M233 2212 c-73 -1 -133 -5 -133 -8 0 -25 26 -103 40 -119 21 -24 105
-189 114 -225 7 -27 53 -135 67 -160 11 -19 80 -152 147 -285 28 -55 66 -118
84 -140 56 -66 57 -75 57 -323 0 -228 0 -230 -22 -237 -17 -5 -18 -8 -7 -12 8
-3 18 -11 22 -17 11 -16 9 -438 -1 -455 -7 -11 -46 -12 -227 -6 -120 4 -228
11 -241 16 -16 6 -28 3 -44 -10 l-23 -18 25 -30 c21 -26 27 -28 38 -15 10 10
27 13 60 8 120 -15 570 -27 740 -19 140 6 188 5 197 -4 15 -15 24 -6 24 24 0
13 6 23 13 23 6 1 1 7 -13 15 -20 11 -69 12 -256 8 l-231 -6 -1 499 -1 499 65
145 c104 231 140 304 158 319 9 7 16 22 16 32 0 11 17 45 39 77 21 31 71 122
111 201 54 106 75 140 80 127 5 -15 10 -8 24 28 10 26 15 50 11 54 -4 4 -120
7 -258 8 -139 0 -317 2 -397 5 -80 2 -205 3 -277 1z m336 -62 c47 -5 89 -6 95
-1 11 7 396 14 396 7 0 -15 -159 -318 -182 -346 -15 -19 -28 -39 -28 -44 0 -5
-11 -24 -25 -41 -13 -18 -22 -35 -18 -38 3 -3 -6 -25 -19 -49 -14 -24 -37 -72
-51 -108 -46 -116 -75 -176 -91 -189 -9 -7 -16 -22 -16 -32 0 -11 -4 -19 -9
-19 -21 0 -63 67 -140 227 -135 275 -139 285 -176 372 -20 46 -53 114 -74 150
-63 107 -64 105 59 112 181 9 193 9 279 -1z"/>
<path d="M1131 2014 c0 -11 3 -14 6 -6 3 7 2 16 -1 19 -3 4 -6 -2 -5 -13z"/>
<path d="M265 1710 c3 -5 11 -10 16 -10 6 0 7 5 4 10 -3 6 -11 10 -16 10 -6 0
-7 -4 -4 -10z"/>
</g>
</svg>
